<?xml version="1.0" encoding="UTF-8"?>
<svg id="Warstwa_1" data-name="Warstwa 1" xmlns="http://www.w3.org/2000/svg" viewBox="0 0 1080 1080">
  <defs>
    <style>
      .cls-1 {
        fill: #f07c00;
      }

      .cls-1, .cls-2, .cls-3 {
        stroke-width: 0px;
      }

      .cls-2 {
        fill: #9c9e9f;
      }

      .cls-3 {
        fill: #f07c00;
      }
    </style>
  </defs>
  <g>
    <path class="cls-2" d="M620.92,462.28c0,6.69-4.71,12.12-10.52,12.12-2.02,0-3.9-.65-5.5-1.78l-.64.4s0-.01-.01-.02l-64.66,41.12-60.97-38.78v.03l-5.58-3.55c-1.6,1.13-3.48,1.79-5.5,1.79-5.81,0-10.52-5.43-10.53-12.12h0c0-6.7,4.71-12.13,10.53-12.13s10.44,5.34,10.52,11.96l61.52,39.17,60.28-38.38c.07-6.62,4.75-11.98,10.52-11.98s10.52,5.43,10.52,12.13Z"/>
    <polygon class="cls-3" points="539.6 473.01 457.04 420.49 457.04 434.14 539.6 486.7 620.92 434.89 620.92 421.28 539.6 473.01"/>
    <polygon class="cls-1" points="539.6 528.18 457.04 475.48 457.04 489.12 539.6 541.82 620.92 489.91 620.92 476.27 539.6 528.18"/>
    <path class="cls-1" d="M615.3,410.39c3.19,0,5.78-2.53,5.78-5.65s-2.59-5.65-5.78-5.65-5.78,2.53-5.78,5.65,2.59,5.65,5.78,5.65Z"/>
    <path class="cls-1" d="M615.3,387.51c1.62,0,2.93-1.28,2.93-2.86s-1.31-2.86-2.93-2.86-2.93,1.28-2.93,2.86,1.31,2.86,2.93,2.86Z"/>
    <g>
      <path class="cls-1" d="M575.42,393c1.62,0,2.93-1.28,2.93-2.86s-1.31-2.86-2.93-2.86-2.93,1.28-2.93,2.86,1.31,2.86,2.93,2.86Z"/>
      <path class="cls-1" d="M575.42,376.34c1.62,0,2.93-1.28,2.93-2.86s-1.31-2.86-2.93-2.86-2.93,1.28-2.93,2.86,1.31,2.86,2.93,2.86Z"/>
      <path class="cls-1" d="M575.42,410.38c1.62,0,2.93-1.28,2.93-2.86s-1.31-2.86-2.93-2.86-2.93,1.28-2.93,2.86,1.31,2.86,2.93,2.86Z"/>
      <path class="cls-1" d="M575.42,433.26c3.19,0,5.78-2.53,5.78-5.65s-2.59-5.65-5.78-5.65-5.78,2.53-5.78,5.65,2.59,5.65,5.78,5.65Z"/>
    </g>
    <path class="cls-1" d="M462.86,410.17c3.2,0,5.78-2.53,5.78-5.65s-2.59-5.65-5.78-5.65-5.78,2.53-5.78,5.65,2.59,5.65,5.78,5.65Z"/>
    <path class="cls-1" d="M462.86,387.29c1.62,0,2.93-1.28,2.93-2.86s-1.31-2.86-2.93-2.86-2.93,1.28-2.93,2.86,1.31,2.86,2.93,2.86Z"/>
    <g>
      <path class="cls-1" d="M539.55,379.37c1.62,0,2.93-1.28,2.93-2.86s-1.31-2.86-2.93-2.86-2.93,1.28-2.93,2.86,1.31,2.86,2.93,2.86Z"/>
      <path class="cls-1" d="M539.55,398.73c1.62,0,2.93-1.28,2.93-2.86s-1.31-2.86-2.93-2.86-2.93,1.28-2.93,2.86,1.31,2.86,2.93,2.86Z"/>
      <path class="cls-1" d="M539.55,360.21c1.62,0,2.93-1.28,2.93-2.86s-1.31-2.86-2.93-2.86-2.93,1.28-2.93,2.86,1.31,2.86,2.93,2.86Z"/>
      <path class="cls-1" d="M539.55,421.61c3.19,0,5.78-2.53,5.78-5.65s-2.59-5.65-5.78-5.65-5.78,2.53-5.78,5.65,2.59,5.65,5.78,5.65Z"/>
      <path class="cls-1" d="M539.55,450.27c3.98,0,7.21-3.16,7.21-7.05s-3.23-7.05-7.21-7.05-7.21,3.16-7.21,7.05,3.23,7.05,7.21,7.05Z"/>
    </g>
    <path class="cls-1" d="M500.3,433.26c3.19,0,5.78-2.53,5.78-5.65s-2.59-5.65-5.78-5.65-5.78,2.53-5.78,5.65,2.59,5.65,5.78,5.65Z"/>
    <path class="cls-1" d="M500.3,410.38c1.62,0,2.93-1.28,2.93-2.86s-1.31-2.86-2.93-2.86-2.93,1.28-2.93,2.86,1.31,2.86,2.93,2.86Z"/>
    <path class="cls-1" d="M500.3,393c1.62,0,2.93-1.28,2.93-2.86s-1.31-2.86-2.93-2.86-2.93,1.28-2.93,2.86,1.31,2.86,2.93,2.86Z"/>
    <path class="cls-1" d="M500.3,376.37c1.62,0,2.93-1.28,2.93-2.86s-1.31-2.86-2.93-2.86-2.93,1.28-2.93,2.86,1.31,2.86,2.93,2.86Z"/>
  </g>
  <g>
    <path class="cls-2" d="M381.93,633.66h-9.31c-1.08,0-1.94-.25-2.58-.76-.65-.51-1.12-1.14-1.43-1.91l-3.87-12.03h-22.54l-3.83,11.99c-.25.68-.71,1.3-1.41,1.87-.69.57-1.54.85-2.56.85h-9.45l22.31-61.22h12.35l22.31,61.22ZM344.91,610.47h17.06l-6.22-19.36c-.37-.95-.75-2.07-1.15-3.34-.4-1.27-.8-2.67-1.2-4.17-.37,1.51-.75,2.9-1.15,4.2-.4,1.29-.77,2.41-1.11,3.37l-6.22,19.32Z"/>
    <path class="cls-2" d="M397.17,597.84h1.94c1.84,0,3.15-.61,3.92-1.84l12.03-21.07c.68-.92,1.42-1.57,2.24-1.94.81-.37,1.8-.55,2.97-.55h10.56l-15.77,25.22c-1.14,1.63-2.35,2.78-3.64,3.46.92.34,1.75.83,2.49,1.48.74.65,1.44,1.46,2.12,2.44l16.04,28.63h-10.74c-1.35,0-2.36-.21-3.02-.62-.66-.41-1.22-.96-1.68-1.64l-12.22-22.31c-.46-.74-1.01-1.27-1.64-1.61-.63-.34-1.5-.51-2.6-.51h-3v26.69h-12.12v-61.22h12.12v25.4Z"/>
    <path class="cls-2" d="M490.3,633.66h-9.31c-1.08,0-1.94-.25-2.58-.76-.65-.51-1.12-1.14-1.43-1.91l-3.87-12.03h-22.54l-3.83,11.99c-.25.68-.71,1.3-1.41,1.87-.69.57-1.54.85-2.56.85h-9.45l22.31-61.22h12.35l22.31,61.22ZM453.29,610.47h17.06l-6.22-19.36c-.37-.95-.75-2.07-1.15-3.34-.4-1.27-.8-2.67-1.2-4.17-.37,1.51-.75,2.9-1.15,4.2-.4,1.29-.77,2.41-1.11,3.37l-6.22,19.32Z"/>
    <path class="cls-2" d="M545.83,603c0,4.49-.71,8.61-2.12,12.38-1.41,3.76-3.42,7-6.02,9.7-2.6,2.7-5.72,4.81-9.38,6.32-3.66,1.51-7.71,2.26-12.17,2.26h-22.31v-61.22h22.31c4.46,0,8.51.75,12.17,2.26,3.66,1.51,6.78,3.61,9.38,6.32,2.6,2.7,4.6,5.93,6.02,9.68,1.41,3.75,2.12,7.85,2.12,12.31ZM533.52,603c0-3.26-.4-6.18-1.2-8.76-.8-2.58-1.94-4.78-3.43-6.59-1.49-1.81-3.31-3.2-5.46-4.17-2.15-.97-4.58-1.45-7.28-1.45h-10.14v42h10.14c2.7,0,5.13-.48,7.28-1.43,2.15-.95,3.97-2.34,5.46-4.15,1.49-1.81,2.63-4.02,3.43-6.62.8-2.6,1.2-5.54,1.2-8.83Z"/>
    <path class="cls-2" d="M589.59,572.44v9.63h-25.17v16.18h19.59v9.27h-19.59v16.5h25.22l-.05,9.63h-37.34v-61.22h37.34Z"/>
    <path class="cls-2" d="M632.31,613.56c.43-1.08.86-2.13,1.29-3.16.43-1.03.91-2.02,1.43-2.97l18.85-33.1c.25-.46.5-.82.76-1.08.26-.26.55-.45.85-.55.31-.11.66-.18,1.06-.21.4-.03.86-.05,1.38-.05h9.13v61.22h-10.65v-38.31c0-.83.02-1.73.07-2.7s.12-1.96.21-2.97l-19.32,34.21c-.95,1.78-2.35,2.67-4.19,2.67h-1.71c-1.87,0-3.29-.89-4.24-2.67l-19.55-34.39c.12,1.05.21,2.07.28,3.07.06,1,.09,1.93.09,2.79v38.31h-10.7v-61.22h9.17c.52,0,.98.02,1.36.05.38.03.74.11,1.06.23.32.12.61.31.88.55.26.25.51.6.76,1.06l18.99,33.19c1.04,1.94,1.95,3.95,2.72,6.04Z"/>
    <path class="cls-2" d="M689.96,633.66h-12.17v-61.22h12.17v61.22Z"/>
    <path class="cls-2" d="M751.03,633.66h-9.31c-1.08,0-1.94-.25-2.58-.76-.65-.51-1.12-1.14-1.43-1.91l-3.87-12.03h-22.54l-3.83,11.99c-.25.68-.71,1.3-1.41,1.87-.69.57-1.54.85-2.56.85h-9.45l22.31-61.22h12.35l22.31,61.22ZM714.02,610.47h17.06l-6.22-19.36c-.37-.95-.75-2.07-1.15-3.34-.4-1.27-.8-2.67-1.2-4.17-.37,1.51-.75,2.9-1.15,4.2-.4,1.29-.77,2.41-1.11,3.37l-6.22,19.32Z"/>
  </g>
  <g>
    <path class="cls-2" d="M188.38,674.82c-.46.86-1.09,1.29-1.89,1.29-.46,0-1.01-.24-1.64-.71-.63-.48-1.4-1-2.3-1.57-.91-.57-2-1.09-3.27-1.57-1.28-.48-2.8-.71-4.59-.71-1.69,0-3.17.24-4.45.71-1.28.48-2.34,1.14-3.18,1.98-.85.85-1.48,1.83-1.91,2.95-.43,1.12-.65,2.33-.65,3.62,0,1.69.39,3.09,1.18,4.2.78,1.11,1.81,2.05,3.09,2.84,1.27.78,2.73,1.47,4.36,2.05,1.63.58,3.29,1.18,4.98,1.8,1.69.62,3.35,1.31,4.98,2.1,1.63.78,3.08,1.77,4.36,2.95,1.27,1.18,2.31,2.64,3.09,4.36.78,1.72,1.18,3.83,1.18,6.32,0,2.67-.43,5.17-1.29,7.49-.86,2.32-2.11,4.34-3.76,6.06-1.64,1.72-3.66,3.07-6.06,4.06-2.4.98-5.13,1.48-8.21,1.48-3.72,0-7.14-.71-10.26-2.14-3.12-1.43-5.77-3.36-7.95-5.79l2.44-3.96c.21-.34.48-.61.81-.81.32-.2.7-.3,1.13-.3.58,0,1.24.32,1.96.95.72.63,1.62,1.32,2.7,2.07,1.08.75,2.37,1.45,3.9,2.07,1.52.63,3.34.95,5.46.95,1.78,0,3.37-.26,4.75-.78,1.38-.52,2.56-1.26,3.53-2.21.97-.95,1.71-2.1,2.21-3.43.51-1.34.76-2.82.76-4.45,0-1.81-.39-3.3-1.18-4.47-.78-1.17-1.81-2.14-3.09-2.93-1.28-.78-2.73-1.44-4.36-1.98-1.63-.54-3.29-1.1-4.98-1.68-1.69-.58-3.35-1.25-4.98-2.01-1.63-.75-3.08-1.74-4.36-2.97-1.28-1.23-2.3-2.75-3.09-4.56-.78-1.81-1.18-4.07-1.18-6.78,0-2.12.4-4.19,1.2-6.2.8-2.01,1.96-3.8,3.48-5.35,1.52-1.55,3.4-2.8,5.62-3.73,2.23-.94,4.79-1.41,7.68-1.41,3.23,0,6.18.54,8.87,1.61,2.69,1.08,5.02,2.64,6.98,4.7l-2.07,3.92Z"/>
    <path class="cls-2" d="M234.39,665.28v3.09c0,.98-.29,1.91-.88,2.77l-28.35,47.9h28.63v6.82h-38.77v-3.27c0-.46.08-.89.23-1.29.15-.4.35-.78.6-1.15l28.3-48.04h-27.57v-6.82h37.8Z"/>
    <path class="cls-2" d="M281.88,665.28v7.01h-17.66v53.57h-8.44v-53.57h-17.7v-7.01h43.79Z"/>
    <path class="cls-2" d="M311.27,719.22c2.43,0,4.6-.42,6.52-1.27,1.92-.84,3.54-2.03,4.86-3.55,1.32-1.52,2.33-3.33,3.02-5.42.69-2.09,1.04-4.39,1.04-6.91v-36.79h8.39v36.79c0,3.5-.55,6.75-1.66,9.73-1.11,2.98-2.68,5.56-4.73,7.74-2.04,2.18-4.54,3.89-7.49,5.14-2.95,1.24-6.27,1.87-9.96,1.87s-7-.62-9.93-1.87c-2.94-1.24-5.43-2.96-7.49-5.14-2.06-2.18-3.64-4.76-4.75-7.74-1.11-2.98-1.66-6.22-1.66-9.73v-36.79h8.39v36.74c0,2.52.35,4.83,1.04,6.94.69,2.11,1.7,3.92,3.02,5.44,1.32,1.52,2.94,2.7,4.86,3.55,1.92.85,4.09,1.27,6.52,1.27Z"/>
    <path class="cls-2" d="M354.21,691.74h2.4c.89,0,1.63-.14,2.21-.41.58-.28,1.09-.72,1.52-1.34l15.63-22.77c.55-.71,1.13-1.21,1.73-1.5.6-.29,1.34-.44,2.24-.44h7.19l-18.44,26c-.98,1.32-2.01,2.26-3.09,2.81,1.41.49,2.69,1.49,3.83,3l19.04,28.77h-7.38c-1.01,0-1.76-.16-2.24-.48-.48-.32-.93-.74-1.36-1.27l-16.04-23.97c-.49-.71-1.02-1.21-1.59-1.5-.57-.29-1.42-.44-2.56-.44h-3.09v27.66h-8.39v-60.57h8.39v26.46Z"/>
    <path class="cls-2" d="M402.8,725.85h-8.39v-60.57h8.39v60.57Z"/>
    <path class="cls-2" d="M445.95,691.74h2.4c.89,0,1.63-.14,2.21-.41.58-.28,1.09-.72,1.52-1.34l15.63-22.77c.55-.71,1.13-1.21,1.73-1.5.6-.29,1.34-.44,2.24-.44h7.19l-18.44,26c-.98,1.32-2.01,2.26-3.09,2.81,1.41.49,2.69,1.49,3.83,3l19.04,28.77h-7.38c-1.01,0-1.76-.16-2.24-.48-.48-.32-.93-.74-1.36-1.27l-16.04-23.97c-.49-.71-1.02-1.21-1.59-1.5-.57-.29-1.42-.44-2.56-.44h-3.09v27.66h-8.39v-60.57h8.39v26.46Z"/>
    <path class="cls-2" d="M482.23,665.28h7.05c.71,0,1.31.18,1.82.53.51.35.84.82.99,1.41l11.76,41.81c.43,1.48.83,3.2,1.2,5.16.18-.95.38-1.87.6-2.74.21-.88.44-1.7.69-2.47l13.51-41.72c.15-.52.49-.98,1.01-1.38.52-.4,1.14-.6,1.84-.6h2.44c.74,0,1.34.18,1.82.53.48.35.81.82.99,1.41l13.51,41.81c.25.74.48,1.53.69,2.37.21.85.42,1.73.6,2.65.18-.92.37-1.81.55-2.67.18-.86.38-1.64.6-2.35l11.71-41.77c.15-.52.5-.98,1.04-1.38.54-.4,1.16-.6,1.87-.6h6.59l-18.39,60.57h-7.61l-14.57-45.91c-.15-.43-.3-.9-.44-1.41-.14-.51-.28-1.05-.44-1.64-.12.58-.25,1.13-.39,1.64-.14.51-.28.98-.44,1.41l-14.66,45.91h-7.56l-18.39-60.57Z"/>
    <path class="cls-2" d="M613.88,725.85h-6.5c-.74,0-1.33-.18-1.77-.55-.45-.37-.79-.83-1.04-1.38l-5.16-14.57h-24.99l-5.12,14.52c-.18.52-.53.98-1.04,1.38-.51.4-1.11.6-1.82.6h-6.5l22.73-60.57h8.53l22.68,60.57ZM576.54,703.36h20.74l-8.57-24.39c-.31-.74-.62-1.6-.92-2.58-.31-.98-.6-2.04-.88-3.18-.31,1.17-.61,2.24-.92,3.23-.31.98-.6,1.84-.88,2.58l-8.57,24.34Z"/>
    <path class="cls-2" d="M625.26,665.53c.37.17.78.56,1.24,1.18l32.91,45.32c-.06-.74-.12-1.47-.16-2.19-.05-.72-.07-1.39-.07-2.01v-42.55h7.38v60.57h-4.24c-.65,0-1.19-.11-1.64-.32-.45-.21-.88-.6-1.31-1.15l-32.91-45.18c.06.71.11,1.38.14,2.03.03.65.05,1.26.05,1.84v42.78h-7.38v-60.57h4.38c.71,0,1.24.09,1.61.25Z"/>
    <path class="cls-2" d="M716.11,665.28v7.01h-17.66v53.57h-8.44v-53.57h-17.7v-7.01h43.79Z"/>
    <path class="cls-2" d="M772.17,695.57c0,4.55-.67,8.71-2.01,12.49-1.34,3.78-3.23,7.04-5.67,9.77-2.44,2.74-5.38,4.86-8.8,6.38-3.43,1.52-7.23,2.28-11.41,2.28s-7.94-.76-11.39-2.28c-3.44-1.52-6.39-3.65-8.85-6.38-2.46-2.74-4.36-5.99-5.72-9.77-1.35-3.78-2.03-7.94-2.03-12.49s.68-8.67,2.03-12.47c1.35-3.8,3.26-7.07,5.72-9.82,2.46-2.75,5.41-4.89,8.85-6.41,3.44-1.52,7.24-2.28,11.39-2.28s7.98.76,11.41,2.28c3.43,1.52,6.36,3.66,8.8,6.41,2.44,2.75,4.33,6.02,5.67,9.82,1.34,3.8,2.01,7.95,2.01,12.47ZM763.6,695.57c0-3.69-.45-7-1.36-9.93-.91-2.93-2.2-5.42-3.87-7.47-1.68-2.04-3.7-3.61-6.08-4.7-2.38-1.09-5.05-1.64-8-1.64s-5.62.55-8,1.64c-2.38,1.09-4.42,2.66-6.11,4.7-1.69,2.04-2.99,4.53-3.9,7.47-.91,2.94-1.36,6.25-1.36,9.93s.45,7,1.36,9.93c.91,2.94,2.2,5.42,3.9,7.47,1.69,2.04,3.73,3.6,6.11,4.68,2.38,1.08,5.05,1.61,8,1.61s5.62-.54,8-1.61c2.38-1.08,4.41-2.64,6.08-4.68,1.67-2.04,2.97-4.53,3.87-7.47.91-2.93,1.36-6.25,1.36-9.93Z"/>
    <path class="cls-2" d="M772.33,665.28h7.05c.71,0,1.31.18,1.82.53.51.35.84.82.99,1.41l11.76,41.81c.43,1.48.83,3.2,1.2,5.16.18-.95.38-1.87.6-2.74s.45-1.7.69-2.47l13.51-41.72c.15-.52.49-.98,1.01-1.38.52-.4,1.14-.6,1.84-.6h2.44c.74,0,1.34.18,1.82.53.48.35.81.82.99,1.41l13.51,41.81c.25.74.48,1.53.69,2.37.21.85.42,1.73.6,2.65.18-.92.37-1.81.55-2.67.18-.86.38-1.64.6-2.35l11.71-41.77c.15-.52.5-.98,1.04-1.38.54-.4,1.16-.6,1.87-.6h6.59l-18.39,60.57h-7.61l-14.57-45.91c-.15-.43-.3-.9-.44-1.41-.14-.51-.28-1.05-.44-1.64-.12.58-.25,1.13-.39,1.64-.14.51-.28.98-.44,1.41l-14.66,45.91h-7.56l-18.39-60.57Z"/>
    <path class="cls-2" d="M896.05,665.28v6.82h-26.97v19.87h21.71v6.59h-21.71v20.47h27.01l-.05,6.82h-35.4v-60.57h35.4Z"/>
    <path class="cls-2" d="M924,704.88c0,3.38-.34,6.41-1.01,9.08-.68,2.67-1.69,4.94-3.04,6.8-1.35,1.86-3.03,3.28-5.02,4.26s-4.3,1.48-6.91,1.48c-1.2,0-2.38-.09-3.55-.25-1.17-.17-2.4-.45-3.69-.85.06-.86.13-1.71.21-2.54.08-.83.16-1.64.25-2.44.06-.46.24-.84.53-1.15.29-.31.73-.46,1.31-.46.4,0,.91.12,1.54.35.63.23,1.47.35,2.51.35,2.77,0,4.87-1.14,6.32-3.41,1.44-2.27,2.17-5.95,2.17-11.02v-39.78h8.39v39.6Z"/>
  </g>
</svg>