<?xml version="1.0" encoding="UTF-8"?>
<svg id="Warstwa_1" data-name="Warstwa 1" xmlns="http://www.w3.org/2000/svg" viewBox="0 0 813.03 813.03">
  <defs>
    <style>
      .cls-1 {
        fill: #000;
        stroke-width: 0px;
      }
    </style>
  </defs>
  <path class="cls-1" d="M620.38,446.8c0,17.57-12.37,31.82-27.61,31.82-5.3,0-10.23-1.71-14.42-4.68l-1.67,1.06s-.01-.03-.03-.04l-169.69,107.92-160-101.77v.08l-14.64-9.32c-4.19,2.97-9.14,4.69-14.42,4.69-15.26,0-27.61-14.25-27.62-31.82h0c.01-17.58,12.37-31.83,27.62-31.83s27.41,14.02,27.61,31.4l161.45,102.79,158.2-100.72c.17-17.38,12.47-31.43,27.61-31.43s27.61,14.25,27.61,31.83Z"/>
  <polygon class="cls-1" points="406.97 474.94 190.3 337.11 190.3 372.93 406.97 510.87 620.39 374.91 620.39 339.19 406.97 474.94"/>
  <polygon class="cls-1" points="406.97 619.74 190.3 481.44 190.3 517.22 406.97 655.52 620.39 519.29 620.39 483.51 406.97 619.74"/>
  <path class="cls-1" d="M605.63,310.6c8.38,0,15.17-6.64,15.17-14.83s-6.79-14.83-15.17-14.83-15.17,6.64-15.17,14.83,6.79,14.83,15.17,14.83Z"/>
  <path class="cls-1" d="M605.63,250.56c4.25,0,7.69-3.37,7.69-7.52s-3.44-7.52-7.69-7.52-7.69,3.37-7.69,7.52,3.44,7.52,7.69,7.52Z"/>
  <g>
    <path class="cls-1" d="M500.96,264.98c4.25,0,7.69-3.37,7.69-7.52s-3.44-7.52-7.69-7.52-7.69,3.37-7.69,7.52,3.44,7.52,7.69,7.52Z"/>
    <path class="cls-1" d="M500.96,221.26c4.25,0,7.69-3.37,7.69-7.52s-3.44-7.52-7.69-7.52-7.69,3.37-7.69,7.52,3.44,7.52,7.69,7.52Z"/>
    <path class="cls-1" d="M500.96,310.59c4.25,0,7.69-3.37,7.69-7.52s-3.44-7.52-7.69-7.52-7.69,3.37-7.69,7.52,3.44,7.52,7.69,7.52Z"/>
    <path class="cls-1" d="M500.96,370.64c8.38,0,15.17-6.64,15.17-14.83s-6.79-14.83-15.17-14.83-15.17,6.64-15.17,14.83,6.8,14.83,15.17,14.83Z"/>
  </g>
  <path class="cls-1" d="M205.57,310.04c8.39,0,15.18-6.64,15.18-14.83s-6.79-14.83-15.18-14.83-15.17,6.64-15.17,14.83,6.79,14.83,15.17,14.83Z"/>
  <path class="cls-1" d="M205.57,249.99c4.25,0,7.69-3.37,7.69-7.52s-3.44-7.52-7.69-7.52-7.68,3.37-7.68,7.52,3.44,7.52,7.68,7.52Z"/>
  <g>
    <path class="cls-1" d="M406.84,229.21c4.25,0,7.69-3.37,7.69-7.52s-3.44-7.52-7.69-7.52-7.69,3.37-7.69,7.52,3.44,7.52,7.69,7.52Z"/>
    <path class="cls-1" d="M406.84,280.02c4.25,0,7.69-3.37,7.69-7.52s-3.44-7.52-7.69-7.52-7.68,3.37-7.68,7.52,3.44,7.52,7.68,7.52Z"/>
    <path class="cls-1" d="M406.84,178.91c4.25,0,7.69-3.37,7.69-7.52s-3.44-7.52-7.69-7.52-7.68,3.37-7.68,7.52,3.44,7.52,7.68,7.52Z"/>
    <path class="cls-1" d="M406.84,340.06c8.38,0,15.17-6.64,15.17-14.83s-6.79-14.83-15.17-14.83-15.17,6.64-15.17,14.83,6.79,14.83,15.17,14.83Z"/>
    <path class="cls-1" d="M406.84,415.27c10.45,0,18.93-8.28,18.93-18.5s-8.47-18.5-18.93-18.5-18.92,8.28-18.92,18.5,8.48,18.5,18.92,18.5Z"/>
  </g>
  <path class="cls-1" d="M303.84,370.64c8.37,0,15.17-6.64,15.17-14.83s-6.79-14.83-15.17-14.83-15.18,6.64-15.18,14.83,6.79,14.83,15.18,14.83Z"/>
  <path class="cls-1" d="M303.84,310.59c4.24,0,7.68-3.37,7.68-7.52s-3.44-7.52-7.68-7.52-7.69,3.37-7.69,7.52,3.44,7.52,7.69,7.52Z"/>
  <path class="cls-1" d="M303.84,264.98c4.24,0,7.68-3.37,7.68-7.52s-3.44-7.52-7.68-7.52-7.69,3.37-7.69,7.52,3.44,7.52,7.69,7.52Z"/>
  <path class="cls-1" d="M303.84,221.32c4.24,0,7.68-3.37,7.68-7.52s-3.44-7.52-7.68-7.52-7.69,3.37-7.69,7.52,3.44,7.52,7.69,7.52Z"/>
</svg>