<?xml version="1.0" encoding="UTF-8" standalone="no"?>
<!-- Created with Inkscape (http://www.inkscape.org/) -->

<svg
   xmlns:dc="http://purl.org/dc/elements/1.1/"
   xmlns:cc="http://creativecommons.org/ns#"
   xmlns:rdf="http://www.w3.org/1999/02/22-rdf-syntax-ns#"
   xmlns:svg="http://www.w3.org/2000/svg"
   xmlns="http://www.w3.org/2000/svg"
   xmlns:xlink="http://www.w3.org/1999/xlink"
   xmlns:sodipodi="http://sodipodi.sourceforge.net/DTD/sodipodi-0.dtd"
   xmlns:inkscape="http://www.inkscape.org/namespaces/inkscape"
   version="1.1"
   id="svg2"
   xml:space="preserve"
   width="466.60886"
   height="370.5723"
   viewBox="0 0 466.60886 370.5723"
   sodipodi:docname="Mach-Zehnder_interferometer_bomby_zla.svg"
   inkscape:version="0.92.2 (unknown)"><metadata
     id="metadata8"><rdf:RDF><cc:Work
         rdf:about=""><dc:format>image/svg+xml</dc:format><dc:type
           rdf:resource="http://purl.org/dc/dcmitype/StillImage" /><dc:title></dc:title></cc:Work></rdf:RDF></metadata><defs
     id="defs6"><linearGradient
       id="linearGradient3882"
       y2="655.5"
       gradientUnits="userSpaceOnUse"
       x2="313.10001"
       y1="652.60999"
       x1="281.01999"
       inkscape:collect="always"><stop
         id="stop3875"
         style="stop-color:#f7f7f7"
         offset="0" /><stop
         id="stop3877"
         style="stop-color:#000000"
         offset="1" /></linearGradient><linearGradient
       id="linearGradient3766"
       y2="404.41"
       xlink:href="#linearGradient3855"
       gradientUnits="userSpaceOnUse"
       x2="306.14999"
       gradientTransform="translate(-1.4142,-9.8995)"
       y1="399.82999"
       x1="211.87"
       inkscape:collect="always" /><linearGradient
       id="linearGradient3855"
       inkscape:collect="always"><stop
         id="stop3857"
         style="stop-color:#ffffff"
         offset="0" /><stop
         id="stop3859"
         style="stop-color:#ffffff;stop-opacity:0"
         offset="1" /></linearGradient><linearGradient
       id="linearGradient3800"
       y2="424.41"
       xlink:href="#linearGradient3855"
       gradientUnits="userSpaceOnUse"
       x2="276.60001"
       gradientTransform="matrix(-1,0,0,1,628.33,-1.4142)"
       y1="425.82999"
       x1="194.89999"
       inkscape:collect="always" /><filter
       id="filter3833"
       height="1.0324"
       width="1.2962"
       y="-0.016176"
       x="-0.14811"
       inkscape:collect="always"><feGaussianBlur
         id="feGaussianBlur3835"
         stdDeviation="4.1392095"
         inkscape:collect="always" /></filter><radialGradient
       id="radialGradient3843"
       gradientUnits="userSpaceOnUse"
       cy="317.98001"
       cx="303.82999"
       gradientTransform="matrix(1.2758,8.3387e-8,-1.1911e-8,0.18223,-83.798,260.03)"
       r="101.52"
       inkscape:collect="always"><stop
         id="stop3839"
         style="stop-color:#d6d6d6"
         offset="0" /><stop
         id="stop3841"
         style="stop-color:#d6d6d6;stop-opacity:0"
         offset="1" /></radialGradient><linearGradient
       id="linearGradient3861"
       y2="90.128998"
       xlink:href="#linearGradient3855"
       gradientUnits="userSpaceOnUse"
       x2="120.71"
       gradientTransform="translate(202.91,129.93)"
       y1="-6.1561999"
       x1="77.026001"
       inkscape:collect="always" /><linearGradient
       id="linearGradient4000"
       y2="78.128998"
       xlink:href="#linearGradient3855"
       gradientUnits="userSpaceOnUse"
       x2="100.4"
       gradientTransform="translate(202.91,129.93)"
       y1="-6.1561999"
       x1="77.026001"
       inkscape:collect="always" /></defs><sodipodi:namedview
     pagecolor="#ffffff"
     bordercolor="#666666"
     borderopacity="1"
     objecttolerance="10"
     gridtolerance="10"
     guidetolerance="10"
     inkscape:pageopacity="0"
     inkscape:pageshadow="2"
     inkscape:window-width="1920"
     inkscape:window-height="1143"
     id="namedview4"
     showgrid="false"
     inkscape:zoom="1.28"
     inkscape:cx="32.859641"
     inkscape:cy="175.45003"
     inkscape:window-x="0"
     inkscape:window-y="0"
     inkscape:window-maximized="1"
     inkscape:current-layer="g10" /><g
     id="g10"
     inkscape:groupmode="layer"
     inkscape:label="Mach-Zehnder_interferometer_bomby"
     transform="matrix(1.3333333,0,0,-1.3333333,0,370.57231)"><g
       id="g12"><g
         id="g14"
         transform="matrix(1,0,0,-1,0,277.92923)"><path
           d="M 87.113,203.168 V 74.77"
           style="fill:none;stroke:#da2724;stroke-width:2.01574993;stroke-linecap:butt;stroke-linejoin:miter;stroke-miterlimit:4;stroke-dasharray:none;stroke-opacity:1"
           id="path16"
           inkscape:connector-curvature="0" /></g><g
         id="g18"
         transform="matrix(1,0,0,-1,0,277.92923)"><path
           d="M 0,203.375 H 270.328"
           style="fill:none;stroke:#da2724;stroke-width:2.01574993;stroke-linecap:butt;stroke-linejoin:miter;stroke-miterlimit:4;stroke-dasharray:none;stroke-opacity:1"
           id="path20"
           inkscape:connector-curvature="0" /></g><g
         id="g22"
         transform="matrix(1,0,0,-1,0,277.92923)"><path
           d="M 270.832,203.16 V 75.461"
           style="fill:none;stroke:#da2724;stroke-width:2.01574993;stroke-linecap:butt;stroke-linejoin:miter;stroke-miterlimit:4;stroke-dasharray:none;stroke-opacity:1"
           id="path24"
           inkscape:connector-curvature="0" /></g><g
         id="g26"
         transform="matrix(1,0,0,-1,0,277.92923)"><path
           d="m 291.926,182.352 -42.117,42.043"
           style="fill:none;stroke:#1f1a17;stroke-width:2.01574993;stroke-linecap:butt;stroke-linejoin:miter;stroke-miterlimit:4;stroke-dasharray:none;stroke-opacity:1"
           id="path28"
           inkscape:connector-curvature="0" /></g><g
         id="g30"
         transform="matrix(1,0,0,-1,0,277.92923)"><path
           d="m 249.809,224.395 v -42.043 h 42.117"
           style="fill:none;stroke:#1f1a17;stroke-width:1.00787497;stroke-linecap:butt;stroke-linejoin:miter;stroke-miterlimit:4;stroke-dasharray:none;stroke-opacity:1"
           id="path32"
           inkscape:connector-curvature="0" /></g><g
         id="g34"
         transform="matrix(1,0,0,-1,0,277.92923)"><path
           d="M 86.895,75.805 H 349.516"
           style="fill:none;stroke:#da2724;stroke-width:2.01574993;stroke-linecap:butt;stroke-linejoin:miter;stroke-miterlimit:4;stroke-dasharray:none;stroke-opacity:1"
           id="path36"
           inkscape:connector-curvature="0" /></g><g
         id="g38"
         transform="matrix(1,0,0,-1,0,277.92923)"><path
           d="M 107.699,54.785 65.582,96.828"
           style="fill:none;stroke:#1f1a17;stroke-width:2.01574993;stroke-linecap:butt;stroke-linejoin:miter;stroke-miterlimit:4;stroke-dasharray:none;stroke-opacity:1"
           id="path40"
           inkscape:connector-curvature="0" /></g><g
         id="g42"
         transform="matrix(1,0,0,-1,0,277.92923)"><path
           d="M 107.625,54.785 V 96.828 H 65.582"
           style="fill:none;stroke:#1f1a17;stroke-width:1.00787497;stroke-linecap:butt;stroke-linejoin:miter;stroke-miterlimit:4;stroke-dasharray:none;stroke-opacity:1"
           id="path44"
           inkscape:connector-curvature="0" /></g><path
         d="m 31.461,74.554 -13.969,6.047 0.145,-0.43 0.144,-0.363 0.215,-0.359 0.145,-0.36 0.144,-0.429 0.074,-0.364 0.141,-0.359 0.074,-0.359 0.071,-0.36 0.144,-0.433 v -0.36 l 0.074,-0.359 0.071,-0.359 v -2.231 l -0.071,-0.433 -0.074,-0.36 V 72.324 L 18.645,71.964 18.574,71.601 18.5,71.171 18.359,70.812 18.285,70.453 18.141,70.089 17.996,69.66 17.781,69.3 17.637,68.941 17.492,68.578 Z"
         style="fill:#da2724;fill-opacity:1;fill-rule:evenodd;stroke:none"
         id="path46"
         inkscape:connector-curvature="0" /><path
         d="m 323.961,203.132 h 0.07 v -2.02 h -0.07 z"
         style="fill:#da2724;fill-opacity:1;fill-rule:evenodd;stroke:none"
         id="path48"
         inkscape:connector-curvature="0" /><path
         d="m 331.086,202.125 -14.039,5.972 0.219,-0.359 0.144,-0.36 0.215,-0.359 0.145,-0.434 0.07,-0.359 0.289,-0.719 0.07,-0.359 0.074,-0.434 0.071,-0.359 0.074,-0.359 0.07,-0.36 0.074,-0.433 v -2.231 l -0.074,-0.363 -0.07,-0.359 -0.074,-0.36 -0.071,-0.43 -0.074,-0.363 -0.07,-0.359 -0.289,-0.719 -0.07,-0.434 -0.145,-0.359 -0.215,-0.359 -0.144,-0.36 -0.219,-0.359 z"
         style="fill:#da2724;fill-opacity:1;fill-rule:evenodd;stroke:none"
         id="path50"
         inkscape:connector-curvature="0" /><g
         id="g52"
         transform="matrix(1,0,0,-1,0,277.92923)"><path
           d="M 291.926,54.785 249.809,96.828"
           style="fill:none;stroke:#1f1a17;stroke-width:2.01574993;stroke-linecap:butt;stroke-linejoin:miter;stroke-miterlimit:4;stroke-dasharray:none;stroke-opacity:1"
           id="path54"
           inkscape:connector-curvature="0" /></g><g
         id="g56"
         transform="matrix(1,0,0,-1,0,277.92923)"><path
           d="M 249.809,96.828 V 54.785 h 42.117"
           style="fill:none;stroke:#1f1a17;stroke-width:1.00787497;stroke-linecap:butt;stroke-linejoin:miter;stroke-miterlimit:4;stroke-dasharray:none;stroke-opacity:1"
           id="path58"
           inkscape:connector-curvature="0" /></g><g
         id="g60"
         transform="matrix(1,0,0,-1,0,277.92923)"><path
           d="M 291.926,54.785 V 96.828 H 249.809"
           style="fill:none;stroke:#1f1a17;stroke-width:1.00787497;stroke-linecap:butt;stroke-linejoin:miter;stroke-miterlimit:4;stroke-dasharray:none;stroke-opacity:1"
           id="path62"
           inkscape:connector-curvature="0" /></g><g
         id="g64"
         transform="matrix(1,0,0,-1,0,277.92923)"><path
           d="M 107.699,182.352 65.582,224.395"
           style="fill:none;stroke:#1f1a17;stroke-width:2.01574993;stroke-linecap:butt;stroke-linejoin:miter;stroke-miterlimit:4;stroke-dasharray:none;stroke-opacity:1"
           id="path66"
           inkscape:connector-curvature="0" /></g><g
         id="g68"
         transform="matrix(1,0,0,-1,0,277.92923)"><path
           d="m 65.582,224.395 v -42.043 h 42.043"
           style="fill:none;stroke:#1f1a17;stroke-width:1.00787497;stroke-linecap:butt;stroke-linejoin:miter;stroke-miterlimit:4;stroke-dasharray:none;stroke-opacity:1"
           id="path70"
           inkscape:connector-curvature="0" /></g><g
         id="g72"
         transform="matrix(1,0,0,-1,0,277.92923)"><path
           d="m 107.625,182.352 v 42.043 H 65.582"
           style="fill:none;stroke:#1f1a17;stroke-width:1.00787497;stroke-linecap:butt;stroke-linejoin:miter;stroke-miterlimit:4;stroke-dasharray:none;stroke-opacity:1"
           id="path74"
           inkscape:connector-curvature="0" /></g><path
         d="m 324.973,192.73 v 0.188 l -0.008,0.089 v 0.086 l -0.004,0.047 -0.008,0.043 -0.004,0.039 -0.023,0.117 -0.012,0.039 -0.012,0.036 -0.015,0.035 -0.016,0.031 -0.016,0.035 -0.019,0.028 -0.024,0.027 -0.019,0.027 -0.027,0.024 -0.032,0.023 -0.015,0.004 -0.031,0.023 -0.02,0.004 -0.016,0.008 -0.015,0.012 -0.039,0.008 -0.024,0.007 -0.015,0.004 h -0.024 l -0.023,0.008 h -0.024 l -0.027,0.004 h -0.051 c -0.558,0 -0.558,-0.496 -0.558,-0.996 v -25.855 c 0,-0.504 0,-1.004 0.558,-1.004 0.563,0 0.563,0.5 0.563,1.004 z"
         style="fill:#000000;fill-opacity:1;fill-rule:evenodd;stroke:none"
         id="path76"
         inkscape:connector-curvature="0" /><path
         d="m 341.078,181.75 -0.008,0.414 -0.004,0.418 -0.011,0.418 -0.016,0.414 -0.023,0.421 -0.036,0.415 -0.042,0.414 -0.059,0.406 -0.059,0.41 -0.078,0.406 -0.09,0.403 -0.105,0.402 -0.125,0.402 -0.133,0.395 -0.156,0.39 -0.086,0.196 -0.09,0.191 c -1.273,2.684 -3.566,3.129 -4.734,3.129 -1.668,0 -3.707,-0.726 -4.852,-3.32 -0.894,-1.926 -1.031,-4.102 -1.031,-6.324 0,-2.094 0.117,-4.598 1.258,-6.711 1.195,-2.254 3.238,-2.813 4.597,-2.813 v 0.609 c -1.082,0 -2.738,0.7 -3.234,3.372 -0.309,1.668 -0.309,4.226 -0.309,5.882 0,1.778 0,3.614 0.231,5.118 0.527,3.32 2.613,3.566 3.312,3.566 0.914,0 2.762,-0.496 3.285,-3.258 0.282,-1.555 0.282,-3.68 0.282,-5.426 0,-2.097 0,-3.988 -0.309,-5.769 -0.418,-2.645 -2.008,-3.485 -3.258,-3.485 v -0.609 c 1.504,0 3.617,0.582 4.848,3.231 0.895,1.918 1.035,4.089 1.035,6.293 z"
         style="fill:#000000;fill-opacity:1;fill-rule:evenodd;stroke:none"
         id="path78"
         inkscape:connector-curvature="0" /><path
         d="m 349.816,179.328 0.008,0.015 0.004,0.012 0.004,0.016 0.008,0.011 0.004,0.016 0.008,0.012 0.003,0.019 0.008,0.008 0.008,0.023 0.008,0.012 v 0.016 l 0.012,0.019 0.004,0.02 0.007,0.023 0.008,0.016 0.008,0.019 0.004,0.016 v 0.016 l 0.008,0.011 0.004,0.016 0.007,0.012 v 0.012 l 0.004,0.011 v 0.024 l 0.004,0.011 v 0.032 l 0.008,0.007 v 0.043 c 0,0.09 0,0.141 -0.141,0.477 l -4.875,12.816 c -0.168,0.469 -0.336,0.637 -0.636,0.637 -0.309,0 -0.563,-0.246 -0.563,-0.555 0,-0.082 0,-0.136 0.141,-0.441 l 4.937,-12.934 -4.937,-12.867 c -0.141,-0.308 -0.141,-0.359 -0.141,-0.496 0,-0.308 0.254,-0.562 0.563,-0.562 0.363,0 0.468,0.281 0.578,0.562 z"
         style="fill:#000000;fill-opacity:1;fill-rule:evenodd;stroke:none"
         id="path80"
         inkscape:connector-curvature="0" /><path
         d="m 283.59,271.128 v 0.184 l -0.008,0.09 v 0.09 l -0.004,0.043 -0.008,0.047 -0.004,0.039 -0.007,0.039 -0.012,0.039 -0.004,0.039 -0.012,0.039 -0.011,0.035 -0.016,0.031 -0.016,0.035 -0.019,0.032 -0.016,0.031 -0.023,0.027 -0.02,0.028 -0.027,0.023 -0.031,0.02 -0.016,0.007 -0.016,0.012 -0.015,0.008 -0.02,0.008 -0.015,0.004 -0.016,0.011 -0.02,0.008 -0.019,0.004 -0.024,0.004 -0.015,0.008 h -0.024 l -0.023,0.004 h -0.024 l -0.027,0.008 h -0.051 c -0.558,0 -0.558,-0.5 -0.558,-0.997 v -25.859 c 0,-0.504 0,-1 0.558,-1 0.563,0 0.563,0.496 0.563,1 z"
         style="fill:#000000;fill-opacity:1;fill-rule:evenodd;stroke:none"
         id="path82"
         inkscape:connector-curvature="0" /><path
         d="m 295.062,269.066 v 0.195 l -0.003,0.028 v 0.129 l -0.008,0.023 v 0.016 l -0.004,0.039 -0.008,0.031 -0.004,0.031 -0.004,0.027 -0.011,0.028 -0.012,0.023 -0.012,0.02 -0.016,0.019 -0.011,0.016 -0.024,0.016 -0.015,0.019 -0.024,0.008 -0.027,0.012 -0.012,0.007 -0.012,0.004 h -0.015 l -0.016,0.008 -0.012,0.004 h -0.019 l -0.02,0.004 h -0.019 l -0.016,0.008 h -0.039 l -0.023,0.004 h -0.117 l -0.02,0.008 h -0.113 c -1.735,-1.786 -4.176,-1.786 -5.074,-1.786 v -0.867 c 0.562,0 2.207,0 3.648,0.727 v -14.434 c 0,-1.004 -0.078,-1.336 -2.59,-1.336 h -0.89 v -0.867 c 0.98,0.09 3.402,0.09 4.507,0.09 1.121,0 3.539,0 4.52,-0.09 v 0.867 h -0.891 c -2.508,0 -2.594,0.305 -2.594,1.336 z"
         style="fill:#000000;fill-opacity:1;fill-rule:evenodd;stroke:none"
         id="path84"
         inkscape:connector-curvature="0" /><path
         d="m 308.434,257.722 0.004,0.02 0.007,0.011 0.004,0.016 0.008,0.012 0.004,0.015 0.008,0.012 0.004,0.016 0.004,0.011 0.007,0.012 0.004,0.012 0.008,0.012 v 0.015 l 0.012,0.016 0.004,0.023 0.008,0.024 0.015,0.031 0.004,0.02 v 0.015 l 0.008,0.012 0.004,0.016 0.008,0.011 v 0.012 l 0.003,0.012 v 0.019 l 0.004,0.012 v 0.035 l 0.008,0.004 v 0.047 c 0,0.09 0,0.137 -0.14,0.473 l -4.875,12.82 c -0.168,0.469 -0.336,0.637 -0.637,0.637 -0.309,0 -0.563,-0.247 -0.563,-0.555 0,-0.082 0,-0.141 0.141,-0.442 l 4.938,-12.933 -4.938,-12.867 c -0.141,-0.309 -0.141,-0.36 -0.141,-0.5 0,-0.309 0.254,-0.559 0.563,-0.559 0.363,0 0.469,0.281 0.578,0.559 z"
         style="fill:#000000;fill-opacity:1;fill-rule:evenodd;stroke:none"
         id="path86"
         inkscape:connector-curvature="0" /><path
         d="m 31.758,110.117 v 0.183 l -0.004,0.09 v 0.09 l -0.008,0.043 -0.004,0.047 -0.004,0.039 -0.008,0.039 -0.011,0.039 -0.004,0.039 -0.012,0.039 -0.012,0.031 -0.015,0.036 -0.02,0.031 -0.015,0.035 -0.016,0.027 -0.023,0.028 -0.024,0.031 -0.027,0.019 -0.028,0.024 -0.015,0.004 -0.016,0.012 -0.019,0.011 -0.016,0.008 -0.016,0.004 -0.019,0.012 -0.016,0.004 -0.023,0.007 -0.02,0.004 -0.019,0.008 h -0.02 l -0.023,0.004 h -0.024 l -0.027,0.004 h -0.051 c -0.558,0 -0.558,-0.496 -0.558,-0.992 v -25.86 c 0,-0.504 0,-1 0.558,-1 0.559,0 0.559,0.496 0.559,1 z"
         style="fill:#000000;fill-opacity:1;fill-rule:evenodd;stroke:none"
         id="path88"
         inkscape:connector-curvature="0" /><path
         d="m 47.863,99.132 -0.004,0.414 -0.007,0.418 -0.012,0.422 -0.016,0.414 -0.023,0.418 -0.031,0.414 -0.047,0.414 -0.055,0.407 -0.063,0.41 -0.078,0.406 -0.089,0.402 -0.106,0.403 -0.121,0.406 -0.137,0.391 -0.156,0.39 -0.082,0.196 -0.09,0.191 c -1.277,2.684 -3.566,3.129 -4.738,3.129 -1.664,0 -3.707,-0.727 -4.848,-3.32 -0.894,-1.922 -1.035,-4.098 -1.035,-6.325 0,-2.089 0.117,-4.597 1.258,-6.711 1.199,-2.253 3.238,-2.812 4.597,-2.812 v 0.609 c -1.078,0 -2.734,0.7 -3.23,3.371 -0.309,1.668 -0.309,4.231 -0.309,5.883 0,1.781 0,3.613 0.231,5.117 0.523,3.325 2.609,3.571 3.308,3.571 0.918,0 2.762,-0.5 3.29,-3.262 0.281,-1.555 0.281,-3.68 0.281,-5.426 0,-2.097 0,-3.984 -0.309,-5.769 -0.422,-2.645 -2.008,-3.485 -3.262,-3.485 v -0.609 c 1.504,0 3.618,0.582 4.848,3.23 0.895,1.918 1.035,4.09 1.035,6.293 z"
         style="fill:#000000;fill-opacity:1;fill-rule:evenodd;stroke:none"
         id="path90"
         inkscape:connector-curvature="0" /><path
         d="m 56.605,96.71 0.004,0.016 0.008,0.012 0.004,0.019 0.004,0.008 0.008,0.02 0.004,0.011 0.008,0.016 0.003,0.012 0.008,0.011 0.004,0.008 0.008,0.012 v 0.02 l 0.008,0.015 0.008,0.024 0.004,0.019 0.011,0.02 0.008,0.015 0.004,0.016 v 0.019 l 0.004,0.008 0.008,0.02 0.004,0.012 v 0.007 l 0.007,0.012 v 0.023 l 0.004,0.012 v 0.031 l 0.008,0.008 v 0.043 c 0,0.09 0,0.141 -0.141,0.477 l -4.878,12.816 c -0.168,0.469 -0.332,0.637 -0.637,0.637 -0.309,0 -0.559,-0.246 -0.559,-0.551 0,-0.086 0,-0.14 0.141,-0.441 L 55.609,97.179 50.672,84.312 c -0.141,-0.305 -0.141,-0.355 -0.141,-0.496 0,-0.309 0.25,-0.559 0.559,-0.559 0.363,0 0.469,0.278 0.582,0.559 z"
         style="fill:#000000;fill-opacity:1;fill-rule:evenodd;stroke:none"
         id="path92"
         inkscape:connector-curvature="0" /><path
         d="m 100.113,30.98 v 0.184 l -0.004,0.089 v 0.09 l -0.007,0.047 -0.004,0.043 -0.004,0.039 -0.008,0.039 -0.012,0.039 -0.004,0.039 -0.011,0.039 -0.012,0.036 -0.016,0.031 -0.019,0.035 -0.032,0.063 -0.046,0.054 -0.028,0.024 -0.027,0.019 -0.016,0.008 -0.015,0.012 -0.02,0.011 -0.031,0.008 -0.02,0.012 -0.015,0.008 -0.024,0.004 -0.019,0.007 -0.02,0.004 H 99.68 l -0.024,0.004 h -0.023 l -0.028,0.008 h -0.05 c -0.559,0 -0.559,-0.5 -0.559,-0.996 V 5.121 c 0,-0.5 0,-1 0.559,-1 0.558,0 0.558,0.5 0.558,1 z"
         style="fill:#000000;fill-opacity:1;fill-rule:evenodd;stroke:none"
         id="path94"
         inkscape:connector-curvature="0" /><path
         d="m 111.59,28.918 v 0.195 l -0.008,0.027 v 0.129 l -0.004,0.024 v 0.015 l -0.004,0.039 -0.008,0.035 -0.004,0.028 -0.007,0.027 -0.012,0.027 -0.008,0.024 -0.012,0.023 -0.019,0.016 -0.008,0.016 -0.023,0.015 -0.02,0.02 -0.019,0.011 -0.028,0.008 -0.011,0.008 -0.012,0.004 h -0.016 l -0.019,0.008 -0.012,0.004 h -0.016 l -0.023,0.007 h -0.016 l -0.015,0.004 h -0.039 l -0.024,0.004 h -0.117 l -0.024,0.008 h -0.109 c -1.734,-1.785 -4.18,-1.785 -5.074,-1.785 v -0.867 c 0.559,0 2.203,0 3.648,0.726 V 13.285 c 0,-1.004 -0.078,-1.336 -2.589,-1.336 h -0.891 v -0.867 c 0.98,0.089 3.402,0.089 4.508,0.089 1.117,0 3.539,0 4.519,-0.089 v 0.867 h -0.89 c -2.512,0 -2.594,0.304 -2.594,1.336 z"
         style="fill:#000000;fill-opacity:1;fill-rule:evenodd;stroke:none"
         id="path96"
         inkscape:connector-curvature="0" /><path
         d="m 124.961,17.578 0.004,0.015 0.008,0.012 0.004,0.016 0.003,0.011 0.008,0.016 0.004,0.012 0.008,0.015 0.004,0.012 0.008,0.012 0.004,0.011 0.007,0.012 v 0.016 l 0.008,0.015 0.008,0.024 0.004,0.023 0.012,0.016 0.007,0.016 0.004,0.019 v 0.016 l 0.004,0.011 0.008,0.016 0.004,0.012 v 0.012 l 0.008,0.011 v 0.02 l 0.004,0.011 v 0.036 L 125.102,18 v 0.046 c 0,0.09 0,0.141 -0.141,0.473 l -4.879,12.82 c -0.168,0.469 -0.332,0.637 -0.637,0.637 -0.308,0 -0.558,-0.246 -0.558,-0.555 0,-0.082 0,-0.14 0.14,-0.441 l 4.938,-12.934 -4.938,-12.867 c -0.14,-0.308 -0.14,-0.359 -0.14,-0.5 0,-0.304 0.25,-0.558 0.558,-0.558 0.364,0 0.469,0.281 0.582,0.558 z"
         style="fill:#000000;fill-opacity:1;fill-rule:evenodd;stroke:none"
         id="path98"
         inkscape:connector-curvature="0" /></g><g
       transform="matrix(0.16287631,0,0,-0.16287631,119.06879,150.52328)"
       id="g902"><path
         inkscape:connector-curvature="0"
         d="m 376.44,606.95 55,89 1,121 -53,1 -39,-42 z"
         style="fill:#000000;fill-rule:evenodd"
         sodipodi:nodetypes="cccccc"
         id="path3768" /><path
         inkscape:connector-curvature="0"
         d="m 242.44,604.95 -55,89 -1,121 53,1 39,-42 z"
         style="fill:#000000;fill-rule:evenodd"
         sodipodi:nodetypes="cccccc"
         id="path3385" /><path
         inkscape:connector-curvature="0"
         d="m 301.97,131.34 c 0,0 -99.67,86.11 -100,216.04 -0.34,133.14 68,435 68,435 h 72.06 c 0,0 68.34,-301.86 68,-435 -0.33,-129.93 -100,-216.04 -100,-216.04 z"
         style="fill:#282828"
         sodipodi:nodetypes="csccscc"
         id="rect3379" /><path
         inkscape:connector-curvature="0"
         d="m 299.09,626.3 7.91,-19.5 8.09,19.5 v 187 h -16 z"
         style="fill:url(#linearGradient3882)"
         sodipodi:nodetypes="cccccc"
         id="rect3411" /><path
         inkscape:connector-curvature="0"
         d="m 304.74,132.91 c -0.69,0.59 -93.97,81.62 -94.28,203.74 -0.33,125.62 64.15,410.38 64.15,410.38 11.14,-213.07 -93.79,-435.56 30.13,-614.12 z"
         style="fill:url(#linearGradient3766)"
         sodipodi:nodetypes="cscc"
         id="path3753" /><path
         inkscape:connector-curvature="0"
         d="m 363.5,214.41 c 48.02,143.63 -3.33,288.01 -3.38,434.65 19.85,-99.51 38.31,-199.75 42.44,-301.31 -0.01,-47.02 -14.22,-93.91 -39.06,-133.34 z"
         style="fill:url(#linearGradient3800)"
         sodipodi:nodetypes="cccc"
         id="path3770" /><path
         inkscape:connector-curvature="0"
         d="m 304.75,142.91 c -0.22,0.19 -10.5,9.14 -24.16,25.34 -91.62,167.51 -7.44,369.33 -11.28,564.69 v 0.09 c 3.24,14.95 5.28,24 5.28,24 11.14,-213.07 -93.76,-435.56 30.16,-614.12 z"
         style="fill:#70716d;filter:url(#filter3833)"
         id="path3802" /><path
         inkscape:connector-curvature="0"
         d="m 202.4,299.48 c -0.05,0.46 -0.09,0.93 -0.09,1.39 0,19.66 45.48,35.61 101.52,35.61 56.03,0 101.51,-15.95 101.51,-35.61 0,-0.46 -0.04,-0.93 -0.09,-1.39 -2.09,19 -46.72,34.21 -101.42,34.21 -54.71,0 -99.34,-15.21 -101.43,-34.21 z"
         style="fill:url(#radialGradient3843)"
         id="path3404" /><path
         inkscape:connector-curvature="0"
         d="m 249.57,203.27 c 0,0 1.82,33.36 56.74,3.56 36.7,-19.91 50.75,2.18 50.75,2.18 0,0 -34.23,-72.44 -52.91,-72.21 -16.12,2.8 -54.58,66.47 -54.58,66.47 z"
         style="opacity:0.56337998;fill:url(#linearGradient3861);fill-rule:evenodd"
         sodipodi:nodetypes="csccc"
         id="path3853" /><path
         inkscape:connector-curvature="0"
         d="m 249.57,203.27 c 0,0 1.82,33.36 56.74,3.56 36.7,-19.91 50.75,2.18 50.75,2.18 0,0 -34.23,-72.44 -52.91,-72.21 -16.12,2.8 -54.58,66.47 -54.58,66.47 z"
         style="opacity:0.56337998;fill:url(#linearGradient4000);fill-rule:evenodd"
         sodipodi:nodetypes="csccc"
         id="path3904" /></g><g
       transform="matrix(0.03595218,0,0,-0.03595218,155.45165,93.292571)"
       id="g827"><rect
         x="72.785004"
         y="215.8"
         width="594.21002"
         height="553.40997"
         ry="60.587002"
         style="color:#000000;fill:#ffffff;fill-rule:evenodd;stroke:#c1022d;stroke-width:91.94300079;stroke-linecap:round;stroke-linejoin:round"
         id="rect3071" /><g
         transform="matrix(10.209,0,0,-10.209,-3310,5423.8)"
         id="g3871"><path
           d="m 358.34,463.49 c -1.5517,0.13437 -2.8862,1.5173 -3.1442,3.3728 l -0.28583,2.1152 c -0.0574,0.10167 -0.12104,0.19679 -0.1715,0.30489 l -5.5261,11.853 c -0.22363,0.47909 -0.35442,0.98155 -0.40017,1.4673 h -2.9917 c -1.9589,0 -3.5443,1.5663 -3.5443,3.5253 v 11.186 c 0,1.9589 1.5854,3.5443 3.5443,3.5443 h 5.2022 c 1.1908,1.0775 2.7573,1.734 4.4971,1.734 h 7.0887 c 3.7219,0 6.7075,-2.9857 6.7075,-6.7076 v -11.529 c 0,-3.7219 -2.9857,-6.7076 -6.7075,-6.7076 h -2.1914 l 1.3529,-9.8326 c 0.29477,-2.1206 -0.92096,-4.0379 -2.744,-4.3066 -0.22788,-0.0336 -0.46434,-0.0382 -0.686,-0.019 z"
           inkscape:connector-curvature="0"
           style="color:#000000;fill:#c1022d;stroke-opacity:0"
           id="rect9675" /><rect
           x="477.64001"
           y="-376.28"
           width="6.0861001"
           height="15.217"
           transform="rotate(90)"
           style="color:#000000;fill:#c1022d;stroke:#ffffff;stroke-width:1.08029997"
           ry="2.8259001"
           id="rect9623-6" /><rect
           height="17.563"
           x="483.89999"
           y="-378.63"
           width="6.0861001"
           ry="3.0431001"
           transform="rotate(90)"
           inkscape:transform-center-y="-6.844065"
           inkscape:transform-center-x="-2.9954163"
           style="color:#000000;fill:#c1022d;stroke:#ffffff;stroke-width:1.08029997"
           id="rect9623-6-5" /><rect
           height="15.619"
           x="490.16"
           y="-376.69"
           width="6.0861001"
           ry="3.0431001"
           transform="rotate(90)"
           inkscape:transform-center-y="-6.844065"
           inkscape:transform-center-x="-2.6638674"
           style="color:#000000;fill:#c1022d;stroke:#ffffff;stroke-width:1.08029997"
           id="rect9671" /><rect
           height="13.541"
           x="496.42001"
           y="-374.60999"
           width="6.0861001"
           ry="3.0431001"
           transform="rotate(90)"
           inkscape:transform-center-y="-6.844065"
           inkscape:transform-center-x="-2.3094439"
           style="color:#000000;fill:#c1022d;stroke:#ffffff;stroke-width:1.08029997"
           id="rect9673" /></g></g></g></svg>