<?xml version="1.0" encoding="UTF-8" standalone="no"?>
<!-- Created with Inkscape (http://www.inkscape.org/) -->

<svg
   xmlns:dc="http://purl.org/dc/elements/1.1/"
   xmlns:cc="http://creativecommons.org/ns#"
   xmlns:rdf="http://www.w3.org/1999/02/22-rdf-syntax-ns#"
   xmlns:svg="http://www.w3.org/2000/svg"
   xmlns="http://www.w3.org/2000/svg"
   xmlns:xlink="http://www.w3.org/1999/xlink"
   xmlns:sodipodi="http://sodipodi.sourceforge.net/DTD/sodipodi-0.dtd"
   xmlns:inkscape="http://www.inkscape.org/namespaces/inkscape"
   version="1.1"
   id="svg2"
   xml:space="preserve"
   width="360.43732"
   height="149.11"
   viewBox="0 0 360.43732 149.11"
   sodipodi:docname="Mach-Zehnder_interferometer_bomby.svg"
   inkscape:version="0.92.2 (unknown)"><metadata
     id="metadata8"><rdf:RDF><cc:Work
         rdf:about=""><dc:format>image/svg+xml</dc:format><dc:type
           rdf:resource="http://purl.org/dc/dcmitype/StillImage" /><dc:title></dc:title></cc:Work></rdf:RDF></metadata><defs
     id="defs6"><linearGradient
       id="linearGradient3882"
       y2="655.5"
       gradientUnits="userSpaceOnUse"
       x2="313.10001"
       y1="652.60999"
       x1="281.01999"
       inkscape:collect="always"><stop
         id="stop3875"
         style="stop-color:#f7f7f7"
         offset="0" /><stop
         id="stop3877"
         style="stop-color:#000000"
         offset="1" /></linearGradient><linearGradient
       id="linearGradient3766"
       y2="404.41"
       xlink:href="#linearGradient3855"
       gradientUnits="userSpaceOnUse"
       x2="306.14999"
       gradientTransform="translate(-1.4142,-9.8995)"
       y1="399.82999"
       x1="211.87"
       inkscape:collect="always" /><linearGradient
       id="linearGradient3855"
       inkscape:collect="always"><stop
         id="stop3857"
         style="stop-color:#ffffff"
         offset="0" /><stop
         id="stop3859"
         style="stop-color:#ffffff;stop-opacity:0"
         offset="1" /></linearGradient><linearGradient
       id="linearGradient3800"
       y2="424.41"
       xlink:href="#linearGradient3855"
       gradientUnits="userSpaceOnUse"
       x2="276.60001"
       gradientTransform="matrix(-1,0,0,1,628.33,-1.4142)"
       y1="425.82999"
       x1="194.89999"
       inkscape:collect="always" /><filter
       id="filter3833"
       height="1.0324"
       width="1.2962"
       y="-0.016176"
       x="-0.14811"
       inkscape:collect="always"><feGaussianBlur
         id="feGaussianBlur3835"
         stdDeviation="4.1392095"
         inkscape:collect="always" /></filter><radialGradient
       id="radialGradient3843"
       gradientUnits="userSpaceOnUse"
       cy="317.98001"
       cx="303.82999"
       gradientTransform="matrix(1.2758,8.3387e-8,-1.1911e-8,0.18223,-83.798,260.03)"
       r="101.52"
       inkscape:collect="always"><stop
         id="stop3839"
         style="stop-color:#d6d6d6"
         offset="0" /><stop
         id="stop3841"
         style="stop-color:#d6d6d6;stop-opacity:0"
         offset="1" /></radialGradient><linearGradient
       id="linearGradient3861"
       y2="90.128998"
       xlink:href="#linearGradient3855"
       gradientUnits="userSpaceOnUse"
       x2="120.71"
       gradientTransform="translate(202.91,129.93)"
       y1="-6.1561999"
       x1="77.026001"
       inkscape:collect="always" /><linearGradient
       id="linearGradient4000"
       y2="78.128998"
       xlink:href="#linearGradient3855"
       gradientUnits="userSpaceOnUse"
       x2="100.4"
       gradientTransform="translate(202.91,129.93)"
       y1="-6.1561999"
       x1="77.026001"
       inkscape:collect="always" /></defs><sodipodi:namedview
     pagecolor="#ffffff"
     bordercolor="#666666"
     borderopacity="1"
     objecttolerance="10"
     gridtolerance="10"
     guidetolerance="10"
     inkscape:pageopacity="0"
     inkscape:pageshadow="2"
     inkscape:window-width="1920"
     inkscape:window-height="1143"
     id="namedview4"
     showgrid="false"
     inkscape:zoom="1.8101934"
     inkscape:cx="113.12377"
     inkscape:cy="230.19495"
     inkscape:window-x="0"
     inkscape:window-y="0"
     inkscape:window-maximized="1"
     inkscape:current-layer="g10"
     fit-margin-top="0"
     fit-margin-left="0"
     fit-margin-right="0"
     fit-margin-bottom="0" /><g
     id="g10"
     inkscape:groupmode="layer"
     inkscape:label="Mach-Zehnder_interferometer_bomby"
     transform="matrix(1.3333333,0,0,-1.3333333,0,172.1748)"><g
       transform="matrix(1,0,0,-1,0,277.92923)"
       id="g14" /><g
       transform="matrix(1,0,0,-1,0,277.92923)"
       id="g18"><path
         inkscape:connector-curvature="0"
         id="path20"
         style="fill:none;stroke:#da2724;stroke-width:2.01574993;stroke-linecap:butt;stroke-linejoin:miter;stroke-miterlimit:4;stroke-dasharray:none;stroke-opacity:1"
         d="M 0,203.375 H 270.328" /></g><g
       transform="matrix(1,0,0,-1,0,277.92923)"
       id="g22" /><g
       transform="matrix(1,0,0,-1,0,277.92923)"
       id="g26" /><g
       transform="matrix(1,0,0,-1,0,277.92923)"
       id="g30" /><g
       transform="matrix(1,0,0,-1,0,277.92923)"
       id="g34" /><path
       inkscape:connector-curvature="0"
       id="path46"
       style="fill:#da2724;fill-opacity:1;fill-rule:evenodd;stroke:none"
       d="m 31.461,74.554 -13.969,6.047 0.145,-0.43 0.144,-0.363 0.215,-0.359 0.145,-0.36 0.144,-0.429 0.074,-0.364 0.141,-0.359 0.074,-0.359 0.071,-0.36 0.144,-0.433 v -0.36 l 0.074,-0.359 0.071,-0.359 v -2.231 l -0.071,-0.433 -0.074,-0.36 V 72.324 L 18.645,71.964 18.574,71.601 18.5,71.171 18.359,70.812 18.285,70.453 18.141,70.089 17.996,69.66 17.781,69.3 17.637,68.941 17.492,68.578 Z" /><g
       transform="matrix(0.16287631,0,0,-0.16287631,89.237722,150.52328)"
       id="g902"><path
         inkscape:connector-curvature="0"
         d="m 376.44,606.95 55,89 1,121 -53,1 -39,-42 z"
         style="fill:#000000;fill-rule:evenodd"
         sodipodi:nodetypes="cccccc"
         id="path3768" /><path
         inkscape:connector-curvature="0"
         d="m 242.44,604.95 -55,89 -1,121 53,1 39,-42 z"
         style="fill:#000000;fill-rule:evenodd"
         sodipodi:nodetypes="cccccc"
         id="path3385" /><path
         inkscape:connector-curvature="0"
         d="m 301.97,131.34 c 0,0 -99.67,86.11 -100,216.04 -0.34,133.14 68,435 68,435 h 72.06 c 0,0 68.34,-301.86 68,-435 -0.33,-129.93 -100,-216.04 -100,-216.04 z"
         style="fill:#282828"
         sodipodi:nodetypes="csccscc"
         id="rect3379" /><path
         inkscape:connector-curvature="0"
         d="m 299.09,626.3 7.91,-19.5 8.09,19.5 v 187 h -16 z"
         style="fill:url(#linearGradient3882)"
         sodipodi:nodetypes="cccccc"
         id="rect3411" /><path
         inkscape:connector-curvature="0"
         d="m 304.74,132.91 c -0.69,0.59 -93.97,81.62 -94.28,203.74 -0.33,125.62 64.15,410.38 64.15,410.38 11.14,-213.07 -93.79,-435.56 30.13,-614.12 z"
         style="fill:url(#linearGradient3766)"
         sodipodi:nodetypes="cscc"
         id="path3753" /><path
         inkscape:connector-curvature="0"
         d="m 363.5,214.41 c 48.02,143.63 -3.33,288.01 -3.38,434.65 19.85,-99.51 38.31,-199.75 42.44,-301.31 -0.01,-47.02 -14.22,-93.91 -39.06,-133.34 z"
         style="fill:url(#linearGradient3800)"
         sodipodi:nodetypes="cccc"
         id="path3770" /><path
         inkscape:connector-curvature="0"
         d="m 304.75,142.91 c -0.22,0.19 -10.5,9.14 -24.16,25.34 -91.62,167.51 -7.44,369.33 -11.28,564.69 v 0.09 c 3.24,14.95 5.28,24 5.28,24 11.14,-213.07 -93.76,-435.56 30.16,-614.12 z"
         style="fill:#70716d;filter:url(#filter3833)"
         id="path3802" /><path
         inkscape:connector-curvature="0"
         d="m 202.4,299.48 c -0.05,0.46 -0.09,0.93 -0.09,1.39 0,19.66 45.48,35.61 101.52,35.61 56.03,0 101.51,-15.95 101.51,-35.61 0,-0.46 -0.04,-0.93 -0.09,-1.39 -2.09,19 -46.72,34.21 -101.42,34.21 -54.71,0 -99.34,-15.21 -101.43,-34.21 z"
         style="fill:url(#radialGradient3843)"
         id="path3404" /><path
         inkscape:connector-curvature="0"
         d="m 249.57,203.27 c 0,0 1.82,33.36 56.74,3.56 36.7,-19.91 50.75,2.18 50.75,2.18 0,0 -34.23,-72.44 -52.91,-72.21 -16.12,2.8 -54.58,66.47 -54.58,66.47 z"
         style="opacity:0.56337998;fill:url(#linearGradient3861);fill-rule:evenodd"
         sodipodi:nodetypes="csccc"
         id="path3853" /><path
         inkscape:connector-curvature="0"
         d="m 249.57,203.27 c 0,0 1.82,33.36 56.74,3.56 36.7,-19.91 50.75,2.18 50.75,2.18 0,0 -34.23,-72.44 -52.91,-72.21 -16.12,2.8 -54.58,66.47 -54.58,66.47 z"
         style="opacity:0.56337998;fill:url(#linearGradient4000);fill-rule:evenodd"
         sodipodi:nodetypes="csccc"
         id="path3904" /></g><g
       transform="matrix(1.1458477,0,0,-1.1458477,-288.18012,885.45647)"
       id="g837"><g
         id="g829"><g
           id="g822"><g
             id="g2994"><rect
               x="756.75"
               y="229.25999"
               width="15.166"
               height="15.166"
               ry="2.3006001"
               transform="rotate(45)"
               style="color:#000000;fill:#ffffff;stroke:#cf5e01;stroke-width:2.454;stroke-linecap:round;stroke-linejoin:round"
               id="rect2985" /><g
               transform="matrix(0.15337,0,0,0.15337,306.47,608.68)"
               style="fill:#cf5e01"
               id="text2987"><path
                 inkscape:connector-curvature="0"
                 sodipodi:nodetypes="cccscccccccsssc"
                 style="fill:#cf5e01"
                 d="m 451.4,647.89 c 6.666,-4.5329 7.4659,-15.287 5.155,-21.331 -4.2662,-11.643 -18.487,-16.887 -39.729,-11.11 -8.9768,2.5775 -10.043,14.754 -5.9549,18.842 0.0889,0.0889 0.35552,0.17776 0.79991,0.0889 2.933,-1.4221 11.288,-5.4217 13.865,-5.8661 9.7768,-1.5998 13.954,5.6883 11.11,10.488 -5.4217,9.1546 -14.843,5.0662 -13.599,22.042 6.3105,4.2662 18.22,1.3332 18.487,-2.222 0.53328,-7.377 4.444,-7.1104 9.8656,-10.932 m -28.53,23.109 c 1.1554,5.4216 1.1406,7.5906 4.4979,8.8291 3.555,1.3114 8.5943,1.444 12.389,-0.82993 3.0035,-1.7998 3.2258,-7.2206 0.0889,-11.021 -1.4851,-1.7993 -18.576,-5.4216 -16.976,3.0219"
                 id="path2992" /></g></g></g></g></g></g></svg>