<?xml version="1.0" encoding="UTF-8"?>
<svg id="Warstwa_1" data-name="Warstwa 1" xmlns="http://www.w3.org/2000/svg" viewBox="0 0 2051 903">
  <defs>
    <style>
      .cls-1 {
        fill: #000;
      }

      .cls-1, .cls-2 {
        stroke-width: 0px;
      }

      .cls-2 {
        fill: #fff;
      }
    </style>
  </defs>
  <rect class="cls-1" x="-40" y="-19" width="2189" height="957"/>
  <g>
    <g>
      <path class="cls-2" d="M620.86,478.78c0,13.07-9.2,23.67-20.54,23.67-3.94,0-7.61-1.27-10.73-3.48l-1.24.79s-.01-.02-.02-.03l-126.24,80.29-119.03-75.71v.06l-10.89-6.93c-3.12,2.21-6.8,3.49-10.73,3.49-11.35,0-20.54-10.6-20.55-23.67h0c.01-13.08,9.2-23.68,20.55-23.68s20.39,10.43,20.54,23.36l120.11,76.47,117.69-74.93c.13-12.93,9.28-23.38,20.54-23.38s20.54,10.6,20.54,23.68Z"/>
      <polygon class="cls-2" points="462.09 499.72 300.89 397.18 300.89 423.83 462.09 526.45 620.86 425.3 620.86 398.73 462.09 499.72"/>
      <polygon class="cls-2" points="462.09 607.44 300.89 504.56 300.89 531.17 462.09 634.06 620.86 532.71 620.86 506.09 462.09 607.44"/>
      <path class="cls-2" d="M609.89,377.46c6.23,0,11.29-4.94,11.29-11.04s-5.05-11.04-11.29-11.04-11.29,4.94-11.29,11.04,5.05,11.04,11.29,11.04Z"/>
      <path class="cls-2" d="M609.89,332.79c3.16,0,5.72-2.5,5.72-5.59s-2.56-5.59-5.72-5.59-5.72,2.5-5.72,5.59,2.56,5.59,5.72,5.59Z"/>
      <g>
        <path class="cls-2" d="M532.02,343.52c3.16,0,5.72-2.5,5.72-5.59s-2.56-5.59-5.72-5.59-5.72,2.5-5.72,5.59,2.56,5.59,5.72,5.59Z"/>
        <path class="cls-2" d="M532.02,310.99c3.16,0,5.72-2.5,5.72-5.59s-2.56-5.59-5.72-5.59-5.72,2.5-5.72,5.59,2.56,5.59,5.72,5.59Z"/>
        <path class="cls-2" d="M532.02,377.45c3.16,0,5.72-2.5,5.72-5.59s-2.56-5.59-5.72-5.59-5.72,2.5-5.72,5.59,2.56,5.59,5.72,5.59Z"/>
        <path class="cls-2" d="M532.02,422.12c6.23,0,11.29-4.94,11.29-11.03s-5.05-11.03-11.29-11.03-11.29,4.94-11.29,11.03,5.06,11.03,11.29,11.03Z"/>
      </g>
      <path class="cls-2" d="M312.25,377.04c6.24,0,11.29-4.94,11.29-11.04s-5.05-11.03-11.29-11.03-11.28,4.94-11.28,11.03,5.05,11.04,11.28,11.04Z"/>
      <path class="cls-2" d="M312.25,332.37c3.16,0,5.72-2.5,5.72-5.59s-2.56-5.59-5.72-5.59-5.72,2.5-5.72,5.59,2.56,5.59,5.72,5.59Z"/>
      <g>
        <path class="cls-2" d="M461.99,316.91c3.16,0,5.72-2.5,5.72-5.59s-2.56-5.59-5.72-5.59-5.72,2.5-5.72,5.59,2.56,5.59,5.72,5.59Z"/>
        <path class="cls-2" d="M461.99,354.7c3.16,0,5.72-2.5,5.72-5.59s-2.56-5.59-5.72-5.59-5.72,2.5-5.72,5.59,2.56,5.59,5.72,5.59Z"/>
        <path class="cls-2" d="M461.99,279.49c3.16,0,5.72-2.5,5.72-5.59s-2.56-5.59-5.72-5.59-5.72,2.5-5.72,5.59,2.56,5.59,5.72,5.59Z"/>
        <path class="cls-2" d="M461.99,399.38c6.23,0,11.29-4.94,11.29-11.04s-5.05-11.04-11.29-11.04-11.29,4.94-11.29,11.04,5.06,11.04,11.29,11.04Z"/>
        <path class="cls-2" d="M461.99,455.32c7.78,0,14.08-6.16,14.08-13.77s-6.3-13.76-14.08-13.76-14.08,6.16-14.08,13.76,6.31,13.77,14.08,13.77Z"/>
      </g>
      <path class="cls-2" d="M385.37,422.12c6.23,0,11.29-4.94,11.29-11.03s-5.06-11.03-11.29-11.03-11.29,4.94-11.29,11.03,5.05,11.03,11.29,11.03Z"/>
      <path class="cls-2" d="M385.37,377.45c3.16,0,5.72-2.5,5.72-5.59s-2.56-5.59-5.72-5.59-5.72,2.5-5.72,5.59,2.56,5.59,5.72,5.59Z"/>
      <path class="cls-2" d="M385.37,343.52c3.16,0,5.72-2.5,5.72-5.59s-2.56-5.59-5.72-5.59-5.72,2.5-5.72,5.59,2.56,5.59,5.72,5.59Z"/>
      <path class="cls-2" d="M385.37,311.04c3.16,0,5.72-2.5,5.72-5.59s-2.56-5.59-5.72-5.59-5.72,2.5-5.72,5.59,2.56,5.59,5.72,5.59Z"/>
    </g>
    <g>
      <path class="cls-2" d="M821.69,360.13c0,10.07-1.8,19.2-5.41,27.39-3.6,8.19-8.65,15.03-15.15,20.51l30.47,34.49h-19.3c-2.8,0-5.29-.36-7.46-1.07-2.17-.71-4.21-2.12-6.12-4.2l-16.44-19.03c-5.72,1.73-11.77,2.59-18.14,2.59-8.64,0-16.5-1.52-23.59-4.56-7.09-3.04-13.17-7.27-18.23-12.69-5.06-5.42-8.98-11.84-11.75-19.26-2.77-7.42-4.16-15.47-4.16-24.17s1.38-16.66,4.16-24.08c2.77-7.42,6.69-13.82,11.75-19.21,5.06-5.39,11.14-9.62,18.23-12.69,7.09-3.07,14.95-4.6,23.59-4.6s16.5,1.53,23.59,4.6c7.09,3.07,13.15,7.31,18.18,12.73,5.03,5.42,8.92,11.83,11.66,19.21,2.74,7.39,4.11,15.4,4.11,24.04ZM797.74,360.13c0-6.31-.77-11.97-2.32-16.98-1.55-5-3.77-9.26-6.66-12.78-2.89-3.51-6.4-6.21-10.54-8.09-4.14-1.88-8.83-2.81-14.07-2.81s-9.95.94-14.12,2.81c-4.17,1.88-7.7,4.57-10.59,8.09-2.89,3.52-5.11,7.77-6.66,12.78-1.55,5-2.32,10.66-2.32,16.98s.77,12.08,2.32,17.11c1.55,5.03,3.77,9.29,6.66,12.78,2.89,3.49,6.42,6.15,10.59,8,4.17,1.85,8.88,2.77,14.12,2.77s9.93-.92,14.07-2.77c4.14-1.85,7.65-4.51,10.54-8,2.89-3.48,5.11-7.74,6.66-12.78,1.55-5.03,2.32-10.74,2.32-17.11Z"/>
      <path class="cls-2" d="M882.2,400.61c4.17,0,7.88-.68,11.12-2.06,3.25-1.37,5.99-3.31,8.22-5.81,2.23-2.5,3.95-5.54,5.14-9.11,1.19-3.57,1.79-7.56,1.79-11.97v-70.77h23.41v70.77c0,7.15-1.15,13.73-3.44,19.75-2.29,6.02-5.58,11.21-9.87,15.59-4.29,4.38-9.5,7.79-15.64,10.23-6.14,2.44-13.05,3.66-20.73,3.66s-14.61-1.22-20.77-3.66c-6.17-2.44-11.39-5.85-15.68-10.23-4.29-4.38-7.58-9.57-9.87-15.59-2.29-6.02-3.44-12.6-3.44-19.75v-70.77h23.5v70.77c0,4.41.59,8.4,1.79,11.97,1.19,3.57,2.9,6.61,5.14,9.11,2.23,2.5,4.97,4.44,8.22,5.81,3.25,1.37,6.95,2.06,11.12,2.06Z"/>
      <path class="cls-2" d="M1044.19,419.55h-18.05c-2.09,0-3.75-.49-5-1.47-1.25-.98-2.18-2.22-2.77-3.71l-7.51-23.32h-43.69l-7.42,23.23c-.48,1.31-1.39,2.52-2.73,3.62-1.34,1.1-2.99,1.65-4.96,1.65h-18.32l43.25-118.66h23.95l43.25,118.66ZM972.43,374.61h33.06l-12.06-37.53c-.71-1.85-1.46-4.01-2.23-6.48-.77-2.47-1.55-5.17-2.32-8.09-.71,2.92-1.46,5.63-2.23,8.13-.77,2.5-1.49,4.68-2.14,6.52l-12.06,37.44Z"/>
      <path class="cls-2" d="M1066.18,301.02c.71.09,1.35.27,1.92.54.57.27,1.1.64,1.61,1.12.51.48,1.09,1.1,1.74,1.88l58.44,77.02c-.36-3.93-.54-7.65-.54-11.17v-69.52h20.64v118.66h-12.06c-1.85,0-3.38-.31-4.6-.94-1.22-.62-2.43-1.65-3.62-3.08l-58.26-76.58c.36,3.69.54,7.12.54,10.28v70.32h-20.73v-118.66h12.33c1.01,0,1.88.04,2.59.13Z"/>
      <path class="cls-2" d="M1245.19,300.89v19.12h-31.99v99.54h-23.41v-99.54h-31.99v-19.12h87.39Z"/>
      <path class="cls-2" d="M1302.34,400.61c4.17,0,7.88-.68,11.12-2.06,3.25-1.37,5.99-3.31,8.22-5.81,2.23-2.5,3.95-5.54,5.14-9.11,1.19-3.57,1.79-7.56,1.79-11.97v-70.77h23.41v70.77c0,7.15-1.15,13.73-3.44,19.75-2.29,6.02-5.58,11.21-9.87,15.59-4.29,4.38-9.5,7.79-15.64,10.23-6.14,2.44-13.05,3.66-20.73,3.66s-14.61-1.22-20.77-3.66c-6.17-2.44-11.39-5.85-15.68-10.23-4.29-4.38-7.58-9.57-9.87-15.59-2.29-6.02-3.44-12.6-3.44-19.75v-70.77h23.5v70.77c0,4.41.59,8.4,1.79,11.97,1.19,3.57,2.9,6.61,5.14,9.11,2.23,2.5,4.97,4.44,8.22,5.81,3.25,1.37,6.95,2.06,11.12,2.06Z"/>
      <path class="cls-2" d="M1438.86,380.59c.83-2.08,1.67-4.12,2.5-6.12.83-2,1.76-3.92,2.77-5.76l36.55-64.16c.48-.89.97-1.59,1.47-2.1.51-.51,1.06-.86,1.65-1.07.59-.21,1.28-.34,2.05-.4.77-.06,1.67-.09,2.68-.09h17.69v118.66h-20.64v-74.25c0-1.61.04-3.35.13-5.23.09-1.88.22-3.8.4-5.76l-37.44,66.3c-1.85,3.46-4.56,5.18-8.13,5.18h-3.31c-3.63,0-6.38-1.73-8.22-5.18l-37.89-66.66c.24,2.03.42,4.01.54,5.94.12,1.94.18,3.74.18,5.41v74.25h-20.73v-118.66h17.78c1.01,0,1.89.03,2.64.09.74.06,1.43.21,2.06.45.62.24,1.19.6,1.7,1.07.51.48,1,1.16,1.47,2.06l36.81,64.34c2.02,3.75,3.78,7.66,5.27,11.71Z"/>
    </g>
    <g>
      <path class="cls-2" d="M811.5,599.55h-12.6c-1.43,0-2.58-.36-3.44-1.07-.86-.71-1.53-1.61-2.01-2.68l-10.01-28.24h-48.43l-9.92,28.15c-.36,1.01-1.03,1.91-2.01,2.68-.98.77-2.16,1.16-3.53,1.16h-12.6l44.05-117.41h16.53l43.96,117.41ZM739.12,555.95h40.21l-16.62-47.27c-.6-1.43-1.19-3.1-1.79-5-.6-1.91-1.16-3.96-1.7-6.17-.6,2.26-1.19,4.35-1.79,6.25-.6,1.91-1.16,3.57-1.7,5l-16.62,47.18Z"/>
      <path class="cls-2" d="M838.21,550.77v48.79h-16.26v-117.41h32.17c7.15,0,13.33.76,18.54,2.28,5.21,1.52,9.5,3.69,12.87,6.52,3.36,2.83,5.85,6.25,7.46,10.28,1.61,4.02,2.41,8.53,2.41,13.54,0,4.11-.61,7.95-1.83,11.53-1.22,3.57-2.98,6.79-5.27,9.65-2.29,2.86-5.11,5.32-8.44,7.37-3.34,2.05-7.12,3.62-11.35,4.69,1.01.66,1.97,1.39,2.86,2.19.89.8,1.76,1.77,2.59,2.9l31.54,46.46h-14.48c-2.8,0-4.97-1.1-6.52-3.31l-27.79-41.82c-.89-1.31-1.86-2.25-2.9-2.81-1.04-.57-2.61-.85-4.69-.85h-10.9ZM838.21,538.88h15.28c4.29,0,8.06-.55,11.3-1.65,3.25-1.1,5.97-2.67,8.18-4.69,2.2-2.02,3.86-4.45,4.96-7.28,1.1-2.83,1.65-5.94,1.65-9.34,0-14-8.49-21-25.47-21h-15.91v43.96Z"/>
      <path class="cls-2" d="M989.35,482.14v13.58h-34.22v103.83h-16.35v-103.83h-34.31v-13.58h84.89Z"/>
      <path class="cls-2" d="M1138.13,599.55h-12.6c-1.43,0-2.58-.36-3.44-1.07-.86-.71-1.53-1.61-2.01-2.68l-10.01-28.24h-48.43l-9.92,28.15c-.36,1.01-1.03,1.91-2.01,2.68-.98.77-2.16,1.16-3.53,1.16h-12.6l44.05-117.41h16.53l43.96,117.41ZM1065.75,555.95h40.21l-16.62-47.27c-.6-1.43-1.19-3.1-1.79-5-.6-1.91-1.16-3.96-1.7-6.17-.6,2.26-1.19,4.35-1.79,6.25-.6,1.91-1.16,3.57-1.7,5l-16.62,47.18Z"/>
      <path class="cls-2" d="M1216.35,575.07c.83,0,1.61.36,2.32,1.07l6.43,6.97c-4.23,5.6-9.44,9.95-15.64,13.05-6.2,3.1-13.61,4.65-22.25,4.65-7.63,0-14.52-1.46-20.69-4.38-6.17-2.92-11.44-7.01-15.82-12.29-4.38-5.27-7.74-11.59-10.1-18.94-2.35-7.36-3.53-15.47-3.53-24.35s1.25-16.99,3.75-24.35c2.5-7.36,6.02-13.69,10.54-18.99,4.53-5.3,9.95-9.41,16.26-12.33,6.31-2.92,13.28-4.38,20.91-4.38s14.22,1.34,19.97,4.02c5.75,2.68,10.77,6.31,15.06,10.9l-5.36,7.51c-.36.54-.8.98-1.34,1.34s-1.22.54-2.06.54c-1.01,0-2.13-.54-3.35-1.61-1.22-1.07-2.81-2.25-4.78-3.53-1.97-1.28-4.41-2.46-7.33-3.53-2.92-1.07-6.55-1.61-10.9-1.61-5.12,0-9.81,1.04-14.07,3.13-4.26,2.09-7.92,5.11-10.99,9.07-3.07,3.96-5.45,8.79-7.15,14.48-1.7,5.69-2.55,12.14-2.55,19.35s.89,13.76,2.68,19.48,4.23,10.54,7.33,14.48c3.1,3.93,6.75,6.94,10.95,9.02,4.2,2.09,8.71,3.13,13.54,3.13,2.98,0,5.64-.21,8-.63,2.35-.42,4.53-1.06,6.52-1.92,2-.86,3.87-1.97,5.63-3.31,1.76-1.34,3.5-2.93,5.23-4.78.95-.83,1.88-1.25,2.77-1.25Z"/>
      <path class="cls-2" d="M1333.08,599.55h-12.6c-1.43,0-2.58-.36-3.44-1.07-.86-.71-1.53-1.61-2.01-2.68l-10.01-28.24h-48.43l-9.92,28.15c-.36,1.01-1.03,1.91-2.01,2.68-.98.77-2.16,1.16-3.53,1.16h-12.6l44.05-117.41h16.53l43.96,117.41ZM1260.7,555.95h40.21l-16.62-47.27c-.6-1.43-1.19-3.1-1.79-5-.6-1.91-1.16-3.96-1.7-6.17-.6,2.26-1.19,4.35-1.79,6.25-.6,1.91-1.16,3.57-1.7,5l-16.62,47.18Z"/>
      <path class="cls-2" d="M1437.31,540.85c0,8.82-1.3,16.83-3.89,24.04-2.59,7.21-6.23,13.39-10.9,18.54-4.68,5.15-10.31,9.13-16.89,11.93-6.58,2.8-13.87,4.2-21.85,4.2h-40.57v-117.41h40.57c7.98,0,15.26,1.42,21.85,4.24,6.58,2.83,12.21,6.81,16.89,11.93,4.68,5.12,8.31,11.3,10.9,18.54,2.59,7.24,3.89,15.23,3.89,23.99ZM1420.6,540.85c0-7.15-.86-13.54-2.59-19.17-1.73-5.63-4.2-10.41-7.42-14.34s-7.09-6.92-11.62-8.98c-4.53-2.05-9.59-3.08-15.19-3.08h-24.22v91.14h24.22c5.6,0,10.66-1.03,15.19-3.08,4.53-2.06,8.4-5.03,11.62-8.94,3.22-3.9,5.69-8.68,7.42-14.34,1.73-5.66,2.59-12.06,2.59-19.21Z"/>
      <path class="cls-2" d="M1521.8,482.14v13.22h-52.27v38.51h42.09v12.78h-42.09v39.67h52.36l-.09,13.22h-68.62v-117.41h68.62Z"/>
      <path class="cls-2" d="M1598.07,560.95c.62,1.43,1.24,2.89,1.83,4.38.6-1.55,1.21-3.04,1.83-4.47.63-1.43,1.3-2.8,2.01-4.11l41.46-71.93c.71-1.25,1.49-2.01,2.32-2.28.83-.27,1.97-.4,3.4-.4h11.97v117.41h-14.39v-85.69c0-1.19.04-2.52.13-3.98.09-1.46.19-2.93.31-4.42l-41.91,73.63c-1.37,2.44-3.34,3.66-5.9,3.66h-2.32c-2.56,0-4.53-1.22-5.9-3.66l-42.89-73.54c.36,2.98.54,5.75.54,8.31v85.69h-14.3v-117.41h11.97c1.43,0,2.55.13,3.35.4.8.27,1.59,1.06,2.37,2.37l42,71.84c.77,1.37,1.47,2.77,2.1,4.2Z"/>
      <path class="cls-2" d="M1726.49,552.64v46.91h-16.26v-46.73l-36.46-70.68h14.3c1.37,0,2.49.34,3.35,1.03.86.69,1.59,1.59,2.19,2.73l20.1,45.3c1.01,1.85,1.91,3.59,2.68,5.23.77,1.64,1.46,3.26,2.05,4.87.59-1.61,1.26-3.23,2.01-4.87.74-1.64,1.62-3.35,2.64-5.14l19.93-45.39c.48-.89,1.16-1.74,2.06-2.55.89-.8,2.02-1.21,3.4-1.21h14.48l-36.46,70.5Z"/>
    </g>
  </g>
</svg>