<?xml version="1.0" encoding="UTF-8"?>
<svg id="Warstwa_1" data-name="Warstwa 1" xmlns="http://www.w3.org/2000/svg" viewBox="0 0 1080 1080">
  <defs>
    <style>
      .cls-1 {
        fill: #f07c00;
      }

      .cls-1, .cls-2, .cls-3 {
        stroke-width: 0px;
      }

      .cls-2 {
        fill: #9c9e9f;
      }

      .cls-3 {
        fill: #f07c00;
      }
    </style>
  </defs>
  <g>
    <path class="cls-2" d="M620.79,457.04c0,6.77-4.77,12.27-10.65,12.27-2.04,0-3.94-.66-5.56-1.8l-.64.41s0-.01-.01-.02l-65.44,41.62-61.7-39.24v.03l-5.64-3.59c-1.62,1.15-3.52,1.81-5.56,1.81-5.88,0-10.65-5.49-10.65-12.27h0c0-6.78,4.77-12.27,10.65-12.27s10.57,5.41,10.65,12.11l62.26,39.64,61-38.84c.07-6.7,4.81-12.12,10.65-12.12s10.65,5.49,10.65,12.27Z"/>
    <polygon class="cls-3" points="538.49 467.89 454.94 414.74 454.94 428.55 538.49 481.75 620.79 429.31 620.79 415.54 538.49 467.89"/>
    <polygon class="cls-1" points="538.49 523.73 454.94 470.4 454.94 484.2 538.49 537.53 620.79 484.99 620.79 471.2 538.49 523.73"/>
    <path class="cls-1" d="M615.1,404.52c3.23,0,5.85-2.56,5.85-5.72s-2.62-5.72-5.85-5.72-5.85,2.56-5.85,5.72,2.62,5.72,5.85,5.72Z"/>
    <path class="cls-1" d="M615.1,381.36c1.64,0,2.96-1.3,2.96-2.9s-1.33-2.9-2.96-2.9-2.97,1.3-2.97,2.9,1.33,2.9,2.97,2.9Z"/>
    <g>
      <path class="cls-1" d="M574.74,386.92c1.64,0,2.96-1.3,2.96-2.9s-1.33-2.9-2.96-2.9-2.97,1.3-2.97,2.9,1.33,2.9,2.97,2.9Z"/>
      <path class="cls-1" d="M574.74,370.07c1.64,0,2.96-1.3,2.96-2.9s-1.33-2.9-2.96-2.9-2.97,1.3-2.97,2.9,1.33,2.9,2.97,2.9Z"/>
      <path class="cls-1" d="M574.74,404.51c1.64,0,2.96-1.3,2.96-2.9s-1.33-2.9-2.96-2.9-2.97,1.3-2.97,2.9,1.33,2.9,2.97,2.9Z"/>
      <path class="cls-1" d="M574.74,427.67c3.23,0,5.85-2.56,5.85-5.72s-2.62-5.72-5.85-5.72-5.85,2.56-5.85,5.72,2.62,5.72,5.85,5.72Z"/>
    </g>
    <path class="cls-1" d="M460.83,404.3c3.23,0,5.85-2.56,5.85-5.72s-2.62-5.72-5.85-5.72-5.85,2.56-5.85,5.72,2.62,5.72,5.85,5.72Z"/>
    <path class="cls-1" d="M460.83,381.15c1.64,0,2.97-1.3,2.97-2.9s-1.33-2.9-2.97-2.9-2.96,1.3-2.96,2.9,1.33,2.9,2.96,2.9Z"/>
    <g>
      <path class="cls-1" d="M538.44,373.13c1.64,0,2.96-1.3,2.96-2.9s-1.33-2.9-2.96-2.9-2.97,1.3-2.97,2.9,1.33,2.9,2.97,2.9Z"/>
      <path class="cls-1" d="M538.44,392.72c1.64,0,2.97-1.3,2.97-2.9s-1.33-2.9-2.97-2.9-2.96,1.3-2.96,2.9,1.33,2.9,2.96,2.9Z"/>
      <path class="cls-1" d="M538.44,353.73c1.64,0,2.97-1.3,2.97-2.9s-1.33-2.9-2.97-2.9-2.96,1.3-2.96,2.9,1.33,2.9,2.96,2.9Z"/>
      <path class="cls-1" d="M538.44,415.88c3.23,0,5.85-2.56,5.85-5.72s-2.62-5.72-5.85-5.72-5.85,2.56-5.85,5.72,2.62,5.72,5.85,5.72Z"/>
      <path class="cls-1" d="M538.44,444.88c4.03,0,7.3-3.19,7.3-7.14s-3.27-7.13-7.3-7.13-7.3,3.19-7.3,7.13,3.27,7.14,7.3,7.14Z"/>
    </g>
    <path class="cls-1" d="M498.72,427.67c3.23,0,5.85-2.56,5.85-5.72s-2.62-5.72-5.85-5.72-5.85,2.56-5.85,5.72,2.62,5.72,5.85,5.72Z"/>
    <path class="cls-1" d="M498.72,404.51c1.64,0,2.96-1.3,2.96-2.9s-1.33-2.9-2.96-2.9-2.97,1.3-2.97,2.9,1.33,2.9,2.97,2.9Z"/>
    <path class="cls-1" d="M498.72,386.92c1.64,0,2.96-1.3,2.96-2.9s-1.33-2.9-2.96-2.9-2.97,1.3-2.97,2.9,1.33,2.9,2.97,2.9Z"/>
    <path class="cls-1" d="M498.72,370.09c1.64,0,2.96-1.3,2.96-2.9s-1.33-2.9-2.96-2.9-2.97,1.3-2.97,2.9,1.33,2.9,2.97,2.9Z"/>
  </g>
  <g>
    <path class="cls-2" d="M390.04,599.77c0,5.22-.93,9.95-2.8,14.2-1.87,4.25-4.49,7.79-7.85,10.63l15.79,17.88h-10c-1.45,0-2.74-.19-3.87-.56-1.13-.37-2.18-1.1-3.17-2.18l-8.52-9.87c-2.96.9-6.1,1.34-9.4,1.34-4.48,0-8.55-.79-12.23-2.36-3.68-1.57-6.82-3.77-9.45-6.58-2.62-2.81-4.66-6.14-6.09-9.98-1.44-3.84-2.15-8.02-2.15-12.53s.72-8.64,2.15-12.48c1.44-3.84,3.47-7.16,6.09-9.96,2.62-2.79,5.77-4.99,9.45-6.58,3.67-1.59,7.75-2.39,12.23-2.39s8.55.8,12.23,2.39c3.67,1.59,6.82,3.79,9.43,6.6,2.61,2.81,4.62,6.13,6.04,9.96,1.42,3.83,2.13,7.98,2.13,12.46ZM377.62,599.77c0-3.27-.4-6.21-1.2-8.8-.8-2.59-1.95-4.8-3.45-6.62-1.5-1.82-3.32-3.22-5.47-4.19-2.15-.97-4.58-1.46-7.29-1.46s-5.16.49-7.32,1.46c-2.16.97-3.99,2.37-5.49,4.19-1.5,1.82-2.65,4.03-3.45,6.62-.8,2.59-1.2,5.53-1.2,8.8s.4,6.26,1.2,8.87c.8,2.61,1.95,4.82,3.45,6.62,1.5,1.81,3.33,3.19,5.49,4.15,2.16.96,4.6,1.44,7.32,1.44s5.15-.48,7.29-1.44c2.15-.96,3.97-2.34,5.47-4.15,1.5-1.81,2.65-4.01,3.45-6.62.8-2.61,1.2-5.57,1.2-8.87Z"/>
    <path class="cls-2" d="M421.41,620.75c2.16,0,4.08-.35,5.77-1.07,1.68-.71,3.1-1.71,4.26-3.01,1.16-1.3,2.05-2.87,2.66-4.72.62-1.85.93-3.92.93-6.21v-36.68h12.14v36.68c0,3.71-.59,7.12-1.78,10.24-1.19,3.12-2.89,5.81-5.12,8.08-2.22,2.27-4.93,4.04-8.11,5.3-3.18,1.27-6.76,1.9-10.75,1.9s-7.57-.63-10.77-1.9c-3.2-1.27-5.91-3.03-8.13-5.3-2.22-2.27-3.93-4.96-5.12-8.08-1.19-3.12-1.78-6.53-1.78-10.24v-36.68h12.18v36.68c0,2.29.31,4.35.93,6.21.62,1.85,1.51,3.43,2.66,4.72,1.16,1.3,2.58,2.3,4.26,3.01,1.68.71,3.6,1.07,5.77,1.07Z"/>
    <path class="cls-2" d="M505.37,630.57h-9.36c-1.08,0-1.95-.25-2.59-.76-.65-.51-1.13-1.15-1.44-1.92l-3.89-12.09h-22.65l-3.84,12.04c-.25.68-.72,1.3-1.41,1.88-.7.57-1.55.86-2.57.86h-9.5l22.42-61.51h12.41l22.42,61.51ZM468.18,607.27h17.14l-6.25-19.45c-.37-.96-.76-2.08-1.16-3.36-.4-1.28-.8-2.68-1.2-4.19-.37,1.51-.76,2.92-1.16,4.21-.4,1.3-.77,2.42-1.11,3.38l-6.25,19.41Z"/>
    <path class="cls-2" d="M516.77,569.13c.37.05.7.14,1,.28.29.14.57.33.83.58.26.25.56.57.9.97l30.29,39.93c-.19-2.04-.28-3.97-.28-5.79v-36.03h10.7v61.51h-6.25c-.96,0-1.75-.16-2.39-.49-.63-.32-1.26-.86-1.88-1.6l-30.2-39.69c.19,1.91.28,3.69.28,5.33v36.45h-10.75v-61.51h6.39c.52,0,.97.02,1.34.07Z"/>
    <path class="cls-2" d="M609.56,569.06v9.91h-16.58v51.6h-12.14v-51.6h-16.58v-9.91h45.3Z"/>
    <path class="cls-2" d="M639.18,620.75c2.16,0,4.08-.35,5.77-1.07,1.68-.71,3.1-1.71,4.26-3.01,1.16-1.3,2.05-2.87,2.66-4.72.62-1.85.93-3.92.93-6.21v-36.68h12.14v36.68c0,3.71-.59,7.12-1.78,10.24-1.19,3.12-2.89,5.81-5.12,8.08-2.22,2.27-4.93,4.04-8.11,5.3-3.18,1.27-6.76,1.9-10.75,1.9s-7.57-.63-10.77-1.9c-3.2-1.27-5.91-3.03-8.13-5.3-2.22-2.27-3.93-4.96-5.12-8.08-1.19-3.12-1.78-6.53-1.78-10.24v-36.68h12.18v36.68c0,2.29.31,4.35.93,6.21.62,1.85,1.51,3.43,2.66,4.72,1.16,1.3,2.58,2.3,4.26,3.01,1.68.71,3.6,1.07,5.77,1.07Z"/>
    <path class="cls-2" d="M709.95,610.37c.43-1.08.86-2.14,1.3-3.17.43-1.03.91-2.03,1.44-2.99l18.94-33.26c.25-.46.5-.83.76-1.09.26-.26.55-.45.86-.56.31-.11.66-.18,1.07-.21.4-.03.86-.05,1.39-.05h9.17v61.51h-10.7v-38.49c0-.83.02-1.74.07-2.71.05-.97.12-1.97.21-2.99l-19.41,34.37c-.96,1.79-2.36,2.69-4.21,2.69h-1.71c-1.88,0-3.3-.9-4.26-2.69l-19.64-34.55c.12,1.05.22,2.08.28,3.08.06,1,.09,1.94.09,2.8v38.49h-10.75v-61.51h9.22c.52,0,.98.02,1.37.05.39.03.74.11,1.07.23.32.12.62.31.88.56.26.25.52.6.76,1.07l19.08,33.35c1.05,1.95,1.96,3.97,2.73,6.07Z"/>
  </g>
  <g>
    <path class="cls-2" d="M318.41,723.35h-6.53c-.74,0-1.34-.19-1.78-.56-.45-.37-.8-.83-1.04-1.39l-5.19-14.64h-25.1l-5.14,14.59c-.19.53-.53.99-1.04,1.39-.51.4-1.12.6-1.83.6h-6.53l22.83-60.86h8.57l22.79,60.86ZM280.89,700.75h20.84l-8.62-24.5c-.31-.74-.62-1.61-.93-2.59-.31-.99-.6-2.05-.88-3.2-.31,1.17-.62,2.25-.93,3.24-.31.99-.6,1.85-.88,2.59l-8.62,24.46Z"/>
    <path class="cls-2" d="M332.25,698.06v25.29h-8.43v-60.86h16.67c3.71,0,6.91.39,9.61,1.18,2.7.79,4.92,1.91,6.67,3.38,1.74,1.47,3.03,3.24,3.87,5.33.83,2.08,1.25,4.42,1.25,7.02,0,2.13-.32,4.12-.95,5.97-.63,1.85-1.54,3.52-2.73,5-1.19,1.48-2.65,2.76-4.38,3.82-1.73,1.07-3.69,1.88-5.88,2.43.52.34,1.02.72,1.48,1.13.46.42.91.92,1.34,1.51l16.35,24.09h-7.5c-1.45,0-2.58-.57-3.38-1.71l-14.4-21.68c-.46-.68-.97-1.17-1.51-1.46-.54-.29-1.35-.44-2.43-.44h-5.65ZM332.25,691.9h7.92c2.22,0,4.18-.29,5.86-.86,1.68-.57,3.1-1.38,4.24-2.43,1.14-1.05,2-2.31,2.57-3.77.57-1.47.86-3.08.86-4.84,0-7.26-4.4-10.88-13.2-10.88h-8.24v22.79Z"/>
    <path class="cls-2" d="M410.6,662.49v7.04h-17.74v53.82h-8.48v-53.82h-17.79v-7.04h44Z"/>
    <path class="cls-2" d="M487.71,723.35h-6.53c-.74,0-1.34-.19-1.78-.56-.45-.37-.8-.83-1.04-1.39l-5.19-14.64h-25.1l-5.14,14.59c-.19.53-.53.99-1.04,1.39-.51.4-1.12.6-1.83.6h-6.53l22.83-60.86h8.57l22.79,60.86ZM450.2,700.75h20.84l-8.62-24.5c-.31-.74-.62-1.61-.93-2.59-.31-.99-.6-2.05-.88-3.2-.31,1.17-.62,2.25-.93,3.24-.31.99-.6,1.85-.88,2.59l-8.62,24.46Z"/>
    <path class="cls-2" d="M528.26,710.66c.43,0,.83.19,1.2.56l3.33,3.61c-2.19,2.9-4.89,5.16-8.11,6.76-3.21,1.61-7.06,2.41-11.53,2.41-3.95,0-7.53-.76-10.72-2.27-3.2-1.51-5.93-3.64-8.2-6.37-2.27-2.73-4.01-6.01-5.23-9.82-1.22-3.81-1.83-8.02-1.83-12.62s.65-8.81,1.95-12.62c1.3-3.81,3.12-7.09,5.47-9.84,2.35-2.75,5.16-4.88,8.43-6.39,3.27-1.51,6.89-2.27,10.84-2.27s7.37.69,10.35,2.08c2.98,1.39,5.58,3.27,7.8,5.65l-2.78,3.89c-.19.28-.42.51-.69.69s-.63.28-1.07.28c-.53,0-1.1-.28-1.74-.83-.63-.56-1.46-1.17-2.48-1.83-1.02-.66-2.29-1.27-3.8-1.83-1.51-.56-3.4-.83-5.65-.83-2.66,0-5.09.54-7.29,1.62-2.21,1.08-4.11,2.65-5.7,4.7-1.59,2.05-2.83,4.55-3.71,7.5-.88,2.95-1.32,6.29-1.32,10.03s.46,7.13,1.39,10.1,2.19,5.47,3.8,7.5c1.61,2.04,3.5,3.6,5.67,4.68,2.18,1.08,4.52,1.62,7.02,1.62,1.54,0,2.93-.11,4.15-.32,1.22-.22,2.35-.55,3.38-1,1.03-.45,2.01-1.02,2.92-1.71.91-.69,1.81-1.52,2.71-2.48.49-.43.97-.65,1.44-.65Z"/>
    <path class="cls-2" d="M588.77,723.35h-6.53c-.74,0-1.34-.19-1.78-.56-.45-.37-.8-.83-1.04-1.39l-5.19-14.64h-25.1l-5.14,14.59c-.19.53-.53.99-1.04,1.39-.51.4-1.12.6-1.83.6h-6.53l22.83-60.86h8.57l22.79,60.86ZM551.25,700.75h20.84l-8.62-24.5c-.31-.74-.62-1.61-.93-2.59-.31-.99-.6-2.05-.88-3.2-.31,1.17-.62,2.25-.93,3.24-.31.99-.6,1.85-.88,2.59l-8.62,24.46Z"/>
    <path class="cls-2" d="M642.79,692.92c0,4.57-.67,8.72-2.01,12.46-1.34,3.74-3.23,6.94-5.65,9.61-2.42,2.67-5.34,4.73-8.75,6.18-3.41,1.45-7.19,2.18-11.32,2.18h-21.03v-60.86h21.03c4.14,0,7.91.73,11.32,2.2,3.41,1.47,6.33,3.53,8.75,6.18,2.42,2.66,4.31,5.86,5.65,9.61,1.34,3.75,2.01,7.9,2.01,12.44ZM634.13,692.92c0-3.71-.45-7.02-1.34-9.93-.9-2.92-2.18-5.4-3.84-7.43s-3.68-3.59-6.02-4.66c-2.35-1.07-4.97-1.6-7.87-1.6h-12.55v47.24h12.55c2.9,0,5.53-.53,7.87-1.6,2.35-1.07,4.35-2.61,6.02-4.63,1.67-2.02,2.95-4.5,3.84-7.43.9-2.93,1.34-6.25,1.34-9.96Z"/>
    <path class="cls-2" d="M686.59,662.49v6.85h-27.1v19.96h21.82v6.62h-21.82v20.56h27.14l-.05,6.85h-35.57v-60.86h35.57Z"/>
    <path class="cls-2" d="M726.12,703.34c.32.74.64,1.5.95,2.27.31-.8.63-1.57.95-2.32.32-.74.67-1.45,1.04-2.13l21.49-37.29c.37-.65.77-1.04,1.2-1.18.43-.14,1.02-.21,1.76-.21h6.21v60.86h-7.46v-44.42c0-.62.02-1.3.07-2.06.05-.76.1-1.52.16-2.29l-21.72,38.17c-.71,1.27-1.73,1.9-3.06,1.9h-1.2c-1.33,0-2.35-.63-3.06-1.9l-22.23-38.12c.19,1.54.28,2.98.28,4.31v44.42h-7.41v-60.86h6.21c.74,0,1.32.07,1.74.21.42.14.83.55,1.23,1.23l21.77,37.24c.4.71.76,1.44,1.09,2.18Z"/>
    <path class="cls-2" d="M792.69,699.03v24.32h-8.43v-24.22l-18.9-36.64h7.41c.71,0,1.29.18,1.74.53.45.36.83.83,1.13,1.41l10.42,23.48c.52.96.99,1.86,1.39,2.71.4.85.76,1.69,1.07,2.52.31-.83.66-1.67,1.04-2.52.39-.85.84-1.74,1.37-2.66l10.33-23.53c.25-.46.6-.9,1.07-1.32.46-.42,1.05-.63,1.76-.63h7.5l-18.9,36.54Z"/>
  </g>
</svg>