<?xml version="1.0" encoding="UTF-8"?>
<svg id="Warstwa_1" data-name="Warstwa 1" xmlns="http://www.w3.org/2000/svg" viewBox="0 0 1080 1080">
  <defs>
    <style>
      .cls-1 {
        fill: #f07c00;
      }

      .cls-1, .cls-2, .cls-3 {
        stroke-width: 0px;
      }

      .cls-2 {
        fill: #9c9e9f;
      }

      .cls-3 {
        fill: #f07c00;
      }
    </style>
  </defs>
  <path class="cls-2" d="M700.86,573.78c0,13.07-9.2,23.67-20.54,23.67-3.94,0-7.61-1.27-10.73-3.48l-1.24.79s-.01-.02-.02-.03l-126.24,80.29-119.03-75.71v.06l-10.89-6.93c-3.12,2.21-6.8,3.49-10.73,3.49-11.35,0-20.54-10.6-20.55-23.67h0c.01-13.08,9.2-23.68,20.55-23.68s20.39,10.43,20.54,23.36l120.11,76.47,117.69-74.93c.13-12.93,9.28-23.38,20.54-23.38s20.54,10.6,20.54,23.68Z"/>
  <polygon class="cls-3" points="542.09 594.72 380.89 492.18 380.89 518.83 542.09 621.45 700.86 520.3 700.86 493.73 542.09 594.72"/>
  <polygon class="cls-1" points="542.09 702.44 380.89 599.56 380.89 626.17 542.09 729.06 700.86 627.71 700.86 601.09 542.09 702.44"/>
  <path class="cls-1" d="M689.89,472.46c6.23,0,11.29-4.94,11.29-11.04s-5.05-11.04-11.29-11.04-11.29,4.94-11.29,11.04,5.05,11.04,11.29,11.04Z"/>
  <path class="cls-1" d="M689.89,427.79c3.16,0,5.72-2.5,5.72-5.59s-2.56-5.59-5.72-5.59-5.72,2.5-5.72,5.59,2.56,5.59,5.72,5.59Z"/>
  <g>
    <path class="cls-1" d="M612.02,438.52c3.16,0,5.72-2.5,5.72-5.59s-2.56-5.59-5.72-5.59-5.72,2.5-5.72,5.59,2.56,5.59,5.72,5.59Z"/>
    <path class="cls-1" d="M612.02,405.99c3.16,0,5.72-2.5,5.72-5.59s-2.56-5.59-5.72-5.59-5.72,2.5-5.72,5.59,2.56,5.59,5.72,5.59Z"/>
    <path class="cls-1" d="M612.02,472.45c3.16,0,5.72-2.5,5.72-5.59s-2.56-5.59-5.72-5.59-5.72,2.5-5.72,5.59,2.56,5.59,5.72,5.59Z"/>
    <path class="cls-1" d="M612.02,517.12c6.23,0,11.29-4.94,11.29-11.03s-5.05-11.03-11.29-11.03-11.29,4.94-11.29,11.03,5.06,11.03,11.29,11.03Z"/>
  </g>
  <path class="cls-1" d="M392.25,472.04c6.24,0,11.29-4.94,11.29-11.04s-5.05-11.03-11.29-11.03-11.28,4.94-11.28,11.03,5.05,11.04,11.28,11.04Z"/>
  <path class="cls-1" d="M392.25,427.37c3.16,0,5.72-2.5,5.72-5.59s-2.56-5.59-5.72-5.59-5.72,2.5-5.72,5.59,2.56,5.59,5.72,5.59Z"/>
  <g>
    <path class="cls-1" d="M541.99,411.91c3.16,0,5.72-2.5,5.72-5.59s-2.56-5.59-5.72-5.59-5.72,2.5-5.72,5.59,2.56,5.59,5.72,5.59Z"/>
    <path class="cls-1" d="M541.99,449.7c3.16,0,5.72-2.5,5.72-5.59s-2.56-5.59-5.72-5.59-5.72,2.5-5.72,5.59,2.56,5.59,5.72,5.59Z"/>
    <path class="cls-1" d="M541.99,374.49c3.16,0,5.72-2.5,5.72-5.59s-2.56-5.59-5.72-5.59-5.72,2.5-5.72,5.59,2.56,5.59,5.72,5.59Z"/>
    <path class="cls-1" d="M541.99,494.38c6.23,0,11.29-4.94,11.29-11.04s-5.05-11.04-11.29-11.04-11.29,4.94-11.29,11.04,5.06,11.04,11.29,11.04Z"/>
    <path class="cls-1" d="M541.99,550.32c7.78,0,14.08-6.16,14.08-13.77s-6.3-13.76-14.08-13.76-14.08,6.16-14.08,13.76,6.31,13.77,14.08,13.77Z"/>
  </g>
  <path class="cls-1" d="M465.37,517.12c6.23,0,11.29-4.94,11.29-11.03s-5.06-11.03-11.29-11.03-11.29,4.94-11.29,11.03,5.05,11.03,11.29,11.03Z"/>
  <path class="cls-1" d="M465.37,472.45c3.16,0,5.72-2.5,5.72-5.59s-2.56-5.59-5.72-5.59-5.72,2.5-5.72,5.59,2.56,5.59,5.72,5.59Z"/>
  <path class="cls-1" d="M465.37,438.52c3.16,0,5.72-2.5,5.72-5.59s-2.56-5.59-5.72-5.59-5.72,2.5-5.72,5.59,2.56,5.59,5.72,5.59Z"/>
  <path class="cls-1" d="M465.37,406.04c3.16,0,5.72-2.5,5.72-5.59s-2.56-5.59-5.72-5.59-5.72,2.5-5.72,5.59,2.56,5.59,5.72,5.59Z"/>
</svg>