<?xml version="1.0" encoding="UTF-8"?>
<svg id="Warstwa_1" data-name="Warstwa 1" xmlns="http://www.w3.org/2000/svg" viewBox="0 0 2107 1333">
  <defs>
    <style>
      .cls-1 {
        fill: #fff;
        stroke-width: 0px;
      }
    </style>
  </defs>
  <g>
    <path class="cls-1" d="M1214.86,513.78c0,13.07-9.2,23.67-20.54,23.67-3.94,0-7.61-1.27-10.73-3.48l-1.24.79s-.01-.02-.02-.03l-126.24,80.29-119.03-75.71v.06l-10.89-6.93c-3.12,2.21-6.8,3.49-10.73,3.49-11.35,0-20.54-10.6-20.55-23.67h0c.01-13.08,9.2-23.68,20.55-23.68s20.39,10.43,20.54,23.36l120.11,76.47,117.69-74.93c.13-12.93,9.28-23.38,20.54-23.38s20.54,10.6,20.54,23.68Z"/>
    <polygon class="cls-1" points="1056.09 534.72 894.89 432.18 894.89 458.83 1056.09 561.45 1214.86 460.3 1214.86 433.73 1056.09 534.72"/>
    <polygon class="cls-1" points="1056.09 642.44 894.89 539.56 894.89 566.17 1056.09 669.06 1214.86 567.71 1214.86 541.09 1056.09 642.44"/>
    <path class="cls-1" d="M1203.89,412.46c6.23,0,11.29-4.94,11.29-11.04s-5.05-11.04-11.29-11.04-11.29,4.94-11.29,11.04,5.05,11.04,11.29,11.04Z"/>
    <path class="cls-1" d="M1203.89,367.79c3.16,0,5.72-2.5,5.72-5.59s-2.56-5.59-5.72-5.59-5.72,2.5-5.72,5.59,2.56,5.59,5.72,5.59Z"/>
    <g>
      <path class="cls-1" d="M1126.02,378.52c3.16,0,5.72-2.5,5.72-5.59s-2.56-5.59-5.72-5.59-5.72,2.5-5.72,5.59,2.56,5.59,5.72,5.59Z"/>
      <path class="cls-1" d="M1126.02,345.99c3.16,0,5.72-2.5,5.72-5.59s-2.56-5.59-5.72-5.59-5.72,2.5-5.72,5.59,2.56,5.59,5.72,5.59Z"/>
      <path class="cls-1" d="M1126.02,412.45c3.16,0,5.72-2.5,5.72-5.59s-2.56-5.59-5.72-5.59-5.72,2.5-5.72,5.59,2.56,5.59,5.72,5.59Z"/>
      <path class="cls-1" d="M1126.02,457.12c6.23,0,11.29-4.94,11.29-11.03s-5.05-11.03-11.29-11.03-11.29,4.94-11.29,11.03,5.06,11.03,11.29,11.03Z"/>
    </g>
    <path class="cls-1" d="M906.25,412.04c6.24,0,11.29-4.94,11.29-11.04s-5.05-11.03-11.29-11.03-11.28,4.94-11.28,11.03,5.05,11.04,11.28,11.04Z"/>
    <path class="cls-1" d="M906.25,367.37c3.16,0,5.72-2.5,5.72-5.59s-2.56-5.59-5.72-5.59-5.72,2.5-5.72,5.59,2.56,5.59,5.72,5.59Z"/>
    <g>
      <path class="cls-1" d="M1055.99,351.91c3.16,0,5.72-2.5,5.72-5.59s-2.56-5.59-5.72-5.59-5.72,2.5-5.72,5.59,2.56,5.59,5.72,5.59Z"/>
      <path class="cls-1" d="M1055.99,389.7c3.16,0,5.72-2.5,5.72-5.59s-2.56-5.59-5.72-5.59-5.72,2.5-5.72,5.59,2.56,5.59,5.72,5.59Z"/>
      <path class="cls-1" d="M1055.99,314.49c3.16,0,5.72-2.5,5.72-5.59s-2.56-5.59-5.72-5.59-5.72,2.5-5.72,5.59,2.56,5.59,5.72,5.59Z"/>
      <path class="cls-1" d="M1055.99,434.38c6.23,0,11.29-4.94,11.29-11.04s-5.05-11.04-11.29-11.04-11.29,4.94-11.29,11.04,5.06,11.04,11.29,11.04Z"/>
      <path class="cls-1" d="M1055.99,490.32c7.78,0,14.08-6.16,14.08-13.77s-6.3-13.76-14.08-13.76-14.08,6.16-14.08,13.76,6.31,13.77,14.08,13.77Z"/>
    </g>
    <path class="cls-1" d="M979.37,457.12c6.23,0,11.29-4.94,11.29-11.03s-5.06-11.03-11.29-11.03-11.29,4.94-11.29,11.03,5.05,11.03,11.29,11.03Z"/>
    <path class="cls-1" d="M979.37,412.45c3.16,0,5.72-2.5,5.72-5.59s-2.56-5.59-5.72-5.59-5.72,2.5-5.72,5.59,2.56,5.59,5.72,5.59Z"/>
    <path class="cls-1" d="M979.37,378.52c3.16,0,5.72-2.5,5.72-5.59s-2.56-5.59-5.72-5.59-5.72,2.5-5.72,5.59,2.56,5.59,5.72,5.59Z"/>
    <path class="cls-1" d="M979.37,346.04c3.16,0,5.72-2.5,5.72-5.59s-2.56-5.59-5.72-5.59-5.72,2.5-5.72,5.59,2.56,5.59,5.72,5.59Z"/>
  </g>
  <g>
    <path class="cls-1" d="M748.25,848.37h-18.18c-2.1,0-3.78-.5-5.04-1.48-1.26-.99-2.19-2.23-2.79-3.74l-7.56-23.49h-44.01l-7.47,23.4c-.48,1.32-1.4,2.54-2.75,3.65-1.35,1.11-3.02,1.67-5,1.67h-18.45l43.56-119.52h24.12l43.56,119.52ZM675.98,803.1h33.3l-12.15-37.8c-.72-1.86-1.47-4.03-2.25-6.53-.78-2.49-1.56-5.2-2.34-8.15-.72,2.94-1.47,5.67-2.25,8.19-.78,2.52-1.5,4.71-2.16,6.57l-12.15,37.71Z"/>
    <path class="cls-1" d="M778.02,778.44h3.78c3.6,0,6.15-1.2,7.65-3.6l23.49-41.13c1.32-1.8,2.77-3.06,4.37-3.78,1.59-.72,3.52-1.08,5.8-1.08h20.61l-30.78,49.23c-2.22,3.18-4.59,5.43-7.11,6.75,1.8.66,3.42,1.62,4.86,2.88,1.44,1.26,2.82,2.85,4.14,4.77l31.32,55.89h-20.97c-2.64,0-4.61-.4-5.9-1.21-1.29-.81-2.39-1.88-3.29-3.2l-23.85-43.56c-.9-1.44-1.97-2.49-3.2-3.15-1.23-.66-2.92-.99-5.08-.99h-5.85v52.11h-23.67v-119.52h23.67v49.59Z"/>
    <path class="cls-1" d="M959.84,848.37h-18.18c-2.1,0-3.78-.5-5.04-1.48-1.26-.99-2.19-2.23-2.79-3.74l-7.56-23.49h-44.01l-7.47,23.4c-.48,1.32-1.4,2.54-2.75,3.65-1.35,1.11-3.02,1.67-5,1.67h-18.45l43.56-119.52h24.12l43.56,119.52ZM887.57,803.1h33.3l-12.15-37.8c-.72-1.86-1.47-4.03-2.25-6.53-.78-2.49-1.56-5.2-2.34-8.15-.72,2.94-1.47,5.67-2.25,8.19-.78,2.52-1.5,4.71-2.16,6.57l-12.15,37.71Z"/>
    <path class="cls-1" d="M1068.25,788.52c0,8.76-1.38,16.82-4.14,24.17-2.76,7.35-6.68,13.67-11.75,18.95-5.07,5.28-11.18,9.39-18.32,12.33-7.14,2.94-15.06,4.41-23.76,4.41h-43.56v-119.52h43.56c8.7,0,16.62,1.47,23.76,4.41,7.14,2.94,13.24,7.05,18.32,12.33,5.07,5.28,8.98,11.58,11.75,18.9,2.76,7.32,4.14,15.33,4.14,24.03ZM1044.22,788.52c0-6.36-.78-12.06-2.34-17.1-1.56-5.04-3.8-9.33-6.71-12.87-2.91-3.54-6.47-6.26-10.67-8.15-4.2-1.89-8.94-2.83-14.22-2.83h-19.8v81.99h19.8c5.28,0,10.02-.93,14.22-2.79,4.2-1.86,7.75-4.56,10.67-8.1,2.91-3.54,5.14-7.84,6.71-12.92,1.56-5.07,2.34-10.81,2.34-17.24Z"/>
    <path class="cls-1" d="M1153.7,728.85v18.81h-49.14v31.59h38.25v18.09h-38.25v32.22h49.23l-.09,18.81h-72.9v-119.52h72.9Z"/>
    <path class="cls-1" d="M1237.09,809.13c.84-2.1,1.68-4.15,2.52-6.17.84-2.01,1.77-3.94,2.79-5.81l36.81-64.62c.48-.9.97-1.6,1.48-2.12.51-.51,1.06-.87,1.67-1.08.6-.21,1.29-.34,2.07-.4.78-.06,1.68-.09,2.7-.09h17.82v119.52h-20.79v-74.79c0-1.62.05-3.38.14-5.27s.23-3.83.4-5.81l-37.71,66.78c-1.86,3.48-4.59,5.22-8.19,5.22h-3.33c-3.66,0-6.42-1.74-8.28-5.22l-38.16-67.14c.24,2.04.42,4.04.54,5.98.12,1.95.18,3.77.18,5.45v74.79h-20.88v-119.52h17.91c1.02,0,1.9.03,2.65.09.75.06,1.44.21,2.07.45.63.24,1.2.6,1.71,1.08.51.48,1,1.17,1.48,2.07l37.08,64.8c2.04,3.78,3.81,7.71,5.31,11.79Z"/>
    <path class="cls-1" d="M1349.64,848.37h-23.76v-119.52h23.76v119.52Z"/>
    <path class="cls-1" d="M1468.88,848.37h-18.18c-2.1,0-3.78-.5-5.04-1.48-1.26-.99-2.19-2.23-2.79-3.74l-7.56-23.49h-44.01l-7.47,23.4c-.48,1.32-1.4,2.54-2.75,3.65-1.35,1.11-3.01,1.67-5,1.67h-18.45l43.56-119.52h24.12l43.56,119.52ZM1396.61,803.1h33.3l-12.15-37.8c-.72-1.86-1.47-4.03-2.25-6.53-.78-2.49-1.56-5.2-2.34-8.15-.72,2.94-1.47,5.67-2.25,8.19-.78,2.52-1.5,4.71-2.16,6.57l-12.15,37.71Z"/>
  </g>
  <g>
    <path class="cls-1" d="M370.38,928.74c-.9,1.68-2.13,2.52-3.69,2.52-.9,0-1.97-.46-3.2-1.4-1.23-.93-2.73-1.95-4.5-3.06-1.77-1.11-3.9-2.13-6.39-3.06-2.49-.93-5.48-1.4-8.96-1.4-3.3,0-6.2.47-8.69,1.4-2.49.93-4.56,2.22-6.21,3.87-1.65,1.65-2.9,3.57-3.74,5.76-.84,2.19-1.26,4.54-1.26,7.06,0,3.3.76,6.03,2.29,8.19,1.53,2.16,3.54,4.01,6.03,5.54,2.49,1.53,5.32,2.87,8.5,4.01,3.18,1.14,6.42,2.31,9.72,3.51,3.3,1.2,6.54,2.56,9.72,4.1,3.18,1.53,6.01,3.45,8.5,5.76,2.49,2.31,4.5,5.15,6.03,8.5,1.53,3.36,2.29,7.47,2.29,12.33,0,5.22-.84,10.1-2.52,14.62-1.68,4.53-4.13,8.48-7.33,11.84-3.21,3.36-7.16,6-11.84,7.92s-10.02,2.88-16.02,2.88c-7.26,0-13.94-1.39-20.03-4.18-6.09-2.79-11.27-6.55-15.53-11.3l4.77-7.74c.42-.66.95-1.18,1.58-1.57.63-.39,1.36-.59,2.21-.59,1.14,0,2.41.62,3.83,1.85,1.41,1.23,3.16,2.58,5.27,4.05,2.1,1.47,4.63,2.82,7.6,4.05,2.97,1.23,6.53,1.85,10.67,1.85,3.48,0,6.57-.51,9.27-1.53,2.7-1.02,5-2.46,6.89-4.32,1.89-1.86,3.33-4.09,4.32-6.71.99-2.61,1.49-5.5,1.49-8.69,0-3.54-.77-6.45-2.29-8.73-1.53-2.28-3.54-4.19-6.03-5.71-2.49-1.53-5.33-2.82-8.51-3.87-3.18-1.05-6.42-2.14-9.72-3.29-3.3-1.14-6.54-2.44-9.72-3.92-3.18-1.47-6.02-3.4-8.51-5.81-2.49-2.4-4.5-5.37-6.03-8.91-1.53-3.54-2.29-7.95-2.29-13.23,0-4.14.78-8.17,2.34-12.11,1.56-3.93,3.82-7.41,6.79-10.44,2.97-3.03,6.63-5.46,10.98-7.29,4.35-1.83,9.34-2.75,14.99-2.75,6.3,0,12.07,1.05,17.33,3.15,5.25,2.1,9.79,5.16,13.64,9.18l-4.05,7.65Z"/>
    <path class="cls-1" d="M460.21,910.11v6.03c0,1.92-.57,3.72-1.71,5.4l-55.35,93.51h55.89v13.32h-75.69v-6.39c0-.9.15-1.74.45-2.52.3-.78.69-1.53,1.17-2.25l55.26-93.78h-53.82v-13.32h73.8Z"/>
    <path class="cls-1" d="M552.93,910.11v13.68h-34.47v104.58h-16.47v-104.58h-34.56v-13.68h85.5Z"/>
    <path class="cls-1" d="M610.29,1015.41c4.74,0,8.98-.82,12.73-2.48,3.75-1.65,6.92-3.96,9.5-6.93,2.58-2.97,4.54-6.49,5.9-10.58,1.35-4.08,2.02-8.58,2.02-13.5v-71.82h16.38v71.82c0,6.84-1.08,13.17-3.24,18.99-2.16,5.82-5.24,10.86-9.23,15.12-3.99,4.26-8.87,7.6-14.62,10.04-5.76,2.43-12.24,3.64-19.44,3.64s-13.67-1.21-19.4-3.64c-5.73-2.43-10.61-5.77-14.62-10.04-4.02-4.26-7.11-9.3-9.27-15.12-2.16-5.82-3.24-12.15-3.24-18.99v-71.82h16.38v71.73c0,4.92.67,9.44,2.02,13.55,1.35,4.11,3.31,7.65,5.9,10.62,2.58,2.97,5.74,5.28,9.5,6.93,3.75,1.65,7.99,2.48,12.74,2.48Z"/>
    <path class="cls-1" d="M694.13,961.77h4.68c1.74,0,3.18-.27,4.32-.81,1.14-.54,2.13-1.41,2.97-2.61l30.51-44.46c1.08-1.38,2.21-2.35,3.38-2.93,1.17-.57,2.62-.85,4.37-.85h14.04l-36,50.76c-1.92,2.58-3.93,4.41-6.03,5.49,2.76.96,5.25,2.91,7.47,5.85l37.17,56.16h-14.4c-1.98,0-3.44-.32-4.37-.95-.93-.63-1.82-1.45-2.65-2.47l-31.32-46.8c-.96-1.38-2-2.35-3.1-2.93-1.11-.57-2.78-.85-5-.85h-6.03v54h-16.38v-118.26h16.38v51.66Z"/>
    <path class="cls-1" d="M789,1028.37h-16.38v-118.26h16.38v118.26Z"/>
    <path class="cls-1" d="M873.25,961.77h4.68c1.74,0,3.18-.27,4.32-.81,1.14-.54,2.13-1.41,2.97-2.61l30.51-44.46c1.08-1.38,2.21-2.35,3.38-2.93,1.17-.57,2.62-.85,4.37-.85h14.04l-36,50.76c-1.92,2.58-3.93,4.41-6.03,5.49,2.76.96,5.25,2.91,7.47,5.85l37.17,56.16h-14.4c-1.98,0-3.44-.32-4.37-.95-.93-.63-1.82-1.45-2.65-2.47l-31.32-46.8c-.96-1.38-2-2.35-3.1-2.93-1.11-.57-2.78-.85-5-.85h-6.03v54h-16.38v-118.26h16.38v51.66Z"/>
    <path class="cls-1" d="M944.08,910.11h13.77c1.38,0,2.56.35,3.55,1.04.99.69,1.63,1.61,1.94,2.75l22.95,81.63c.84,2.88,1.62,6.24,2.34,10.08.36-1.86.75-3.65,1.17-5.36.42-1.71.87-3.31,1.35-4.81l26.37-81.45c.3-1.02.96-1.92,1.98-2.7,1.02-.78,2.22-1.17,3.6-1.17h4.77c1.44,0,2.62.35,3.56,1.04.93.69,1.57,1.61,1.93,2.75l26.37,81.63c.48,1.44.93,2.99,1.35,4.64.42,1.65.81,3.38,1.17,5.17.36-1.8.72-3.54,1.08-5.22.36-1.68.75-3.21,1.17-4.59l22.86-81.54c.3-1.02.97-1.92,2.02-2.7,1.05-.78,2.26-1.17,3.65-1.17h12.87l-35.91,118.26h-14.85l-28.44-89.64c-.3-.84-.58-1.75-.85-2.75-.27-.99-.56-2.05-.86-3.19-.24,1.14-.5,2.21-.76,3.19-.27.99-.56,1.91-.86,2.75l-28.62,89.64h-14.76l-35.91-118.26Z"/>
    <path class="cls-1" d="M1201.12,1028.37h-12.69c-1.44,0-2.6-.36-3.46-1.08-.87-.72-1.54-1.62-2.02-2.7l-10.08-28.44h-48.78l-9.99,28.35c-.36,1.02-1.04,1.92-2.02,2.7-.99.78-2.18,1.17-3.56,1.17h-12.69l44.37-118.26h16.65l44.28,118.26ZM1128.21,984.45h40.5l-16.74-47.61c-.6-1.44-1.2-3.12-1.8-5.04-.6-1.92-1.17-3.99-1.71-6.21-.6,2.28-1.2,4.38-1.8,6.3-.6,1.92-1.17,3.6-1.71,5.04l-16.74,47.52Z"/>
    <path class="cls-1" d="M1223.32,910.6c.72.33,1.53,1.1,2.43,2.29l64.26,88.47c-.12-1.44-.23-2.86-.32-4.27-.09-1.41-.13-2.71-.13-3.92v-83.07h14.4v118.26h-8.28c-1.26,0-2.33-.21-3.2-.63-.87-.42-1.73-1.17-2.57-2.25l-64.26-88.2c.12,1.38.21,2.7.27,3.96.06,1.26.09,2.46.09,3.6v83.52h-14.4v-118.26h8.55c1.38,0,2.43.17,3.15.5Z"/>
    <path class="cls-1" d="M1400.71,910.11v13.68h-34.47v104.58h-16.47v-104.58h-34.56v-13.68h85.5Z"/>
    <path class="cls-1" d="M1510.15,969.24c0,8.88-1.31,17.01-3.92,24.39-2.61,7.38-6.3,13.74-11.07,19.08-4.77,5.34-10.5,9.5-17.19,12.46-6.69,2.97-14.12,4.46-22.28,4.46s-15.51-1.48-22.23-4.46c-6.72-2.97-12.48-7.12-17.28-12.46-4.8-5.34-8.52-11.7-11.16-19.08-2.64-7.38-3.96-15.51-3.96-24.39s1.32-16.93,3.96-24.35c2.64-7.41,6.36-13.8,11.16-19.17,4.8-5.37,10.56-9.54,17.28-12.51,6.72-2.97,14.13-4.46,22.23-4.46s15.58,1.48,22.28,4.46c6.69,2.97,12.42,7.14,17.19,12.51,4.77,5.37,8.46,11.76,11.07,19.17,2.61,7.41,3.92,15.53,3.92,24.35ZM1493.41,969.24c0-7.2-.89-13.66-2.65-19.4-1.77-5.73-4.29-10.59-7.56-14.58-3.27-3.99-7.23-7.05-11.88-9.18-4.65-2.13-9.86-3.2-15.62-3.2s-10.97,1.07-15.62,3.2c-4.65,2.13-8.63,5.19-11.92,9.18-3.3,3.99-5.84,8.85-7.61,14.58-1.77,5.73-2.66,12.2-2.66,19.4s.88,13.67,2.66,19.4c1.77,5.73,4.3,10.59,7.61,14.58,3.3,3.99,7.27,7.04,11.92,9.13,4.65,2.1,9.86,3.15,15.62,3.15s10.96-1.05,15.62-3.15c4.65-2.1,8.61-5.14,11.88-9.13,3.27-3.99,5.79-8.85,7.56-14.58,1.77-5.73,2.65-12.2,2.65-19.4Z"/>
    <path class="cls-1" d="M1510.47,910.11h13.77c1.38,0,2.56.35,3.55,1.04.99.69,1.63,1.61,1.94,2.75l22.95,81.63c.84,2.88,1.62,6.24,2.34,10.08.36-1.86.75-3.65,1.17-5.36s.87-3.31,1.35-4.81l26.37-81.45c.3-1.02.96-1.92,1.98-2.7,1.02-.78,2.22-1.17,3.6-1.17h4.77c1.44,0,2.62.35,3.56,1.04.93.69,1.57,1.61,1.93,2.75l26.37,81.63c.48,1.44.93,2.99,1.35,4.64.42,1.65.81,3.38,1.17,5.17.36-1.8.72-3.54,1.08-5.22.36-1.68.75-3.21,1.17-4.59l22.86-81.54c.3-1.02.97-1.92,2.02-2.7,1.05-.78,2.26-1.17,3.65-1.17h12.87l-35.91,118.26h-14.85l-28.44-89.64c-.3-.84-.58-1.75-.85-2.75-.27-.99-.56-2.05-.86-3.19-.24,1.14-.5,2.21-.76,3.19-.27.99-.56,1.91-.86,2.75l-28.62,89.64h-14.76l-35.91-118.26Z"/>
    <path class="cls-1" d="M1752.01,910.11v13.32h-52.65v38.79h42.39v12.87h-42.39v39.96h52.74l-.09,13.32h-69.12v-118.26h69.12Z"/>
    <path class="cls-1" d="M1806.58,987.42c0,6.6-.66,12.51-1.98,17.73-1.32,5.22-3.3,9.65-5.94,13.28-2.64,3.63-5.91,6.41-9.81,8.33s-8.4,2.88-13.5,2.88c-2.34,0-4.65-.17-6.93-.5-2.28-.33-4.68-.88-7.2-1.67.12-1.68.25-3.33.4-4.95.15-1.62.32-3.21.5-4.77.12-.9.46-1.65,1.04-2.25.57-.6,1.42-.9,2.57-.9.78,0,1.78.23,3.01.67,1.23.45,2.86.68,4.91.68,5.4,0,9.51-2.22,12.33-6.66,2.82-4.44,4.23-11.61,4.23-21.51v-77.67h16.38v77.31Z"/>
  </g>
</svg>