<?xml version="1.0" encoding="UTF-8"?>
<svg id="Warstwa_1" data-name="Warstwa 1" xmlns="http://www.w3.org/2000/svg" version="1.1" xmlns:xlink="http://www.w3.org/1999/xlink" viewBox="0 0 1080 1080">
  <defs>
    <style>
      .cls-1 {
        fill-rule: evenodd;
      }

      .cls-1, .cls-2, .cls-3, .cls-4, .cls-5, .cls-6, .cls-7 {
        stroke-width: 0px;
      }

      .cls-1, .cls-8, .cls-3, .cls-9, .cls-6 {
        fill: #fff;
      }

      .cls-2, .cls-10 {
        fill: #ed7e23;
      }

      .cls-8 {
        font-family: Lato-Bold, Lato;
        font-size: 38px;
      }

      .cls-8, .cls-11 {
        font-weight: 700;
      }

      .cls-3 {
        opacity: .8;
      }

      .cls-9 {
        font-family: Roboto-Regular, Roboto;
        font-size: 36px;
      }

      .cls-4 {
        fill: #f07c00;
      }

      .cls-12 {
        clip-path: url(#clippath-1);
      }

      .cls-13 {
        opacity: .3;
      }

      .cls-5 {
        fill: #9c9e9f;
      }

      .cls-7 {
        fill: #f07c00;
      }

      .cls-11 {
        fill: #242f44;
        font-family: Roboto-Bold, Roboto;
        font-size: 54.7px;
      }
    </style>
    <clipPath id="clippath-1">
      <polygon class="cls-2" points="-.5 879.4 39 992.2 1029.4 960.1 1081.9 1082.8 -.5 1082.8 -.5 879.4"/>
    </clipPath>
  </defs>
  <polygon class="cls-3" points="835.1 -12.2 775.5 107.4 561.4 537.3 819.4 1072.3 828.8 1092 1084.9 1092 1084.9 -12.2 835.1 -12.2"/>
  <g>
    <g>
      <path class="cls-5" d="M172.4,126.4c0,4.2-2.9,7.5-6.5,7.5s-2.4-.4-3.4-1.1l-.4.3s0,0,0,0l-40.1,25.5-37.8-24h0s-3.5-2.2-3.5-2.2c-1,.7-2.2,1.1-3.4,1.1-3.6,0-6.5-3.4-6.5-7.5h0c0-4.2,2.9-7.5,6.5-7.5s6.5,3.3,6.5,7.4l38.1,24.3,37.4-23.8c0-4.1,2.9-7.4,6.5-7.4s6.5,3.4,6.5,7.5Z"/>
      <polygon class="cls-7" points="122 133 70.8 100.5 70.8 108.9 122 141.5 172.4 109.4 172.4 101 122 133"/>
      <polygon class="cls-4" points="122 167.2 70.8 134.6 70.8 143 122 175.7 172.4 143.5 172.4 135.1 122 167.2"/>
      <path class="cls-4" d="M168.9,94.2c2,0,3.6-1.6,3.6-3.5s-1.6-3.5-3.6-3.5-3.6,1.6-3.6,3.5,1.6,3.5,3.6,3.5Z"/>
      <path class="cls-4" d="M168.9,80c1,0,1.8-.8,1.8-1.8s-.8-1.8-1.8-1.8-1.8.8-1.8,1.8.8,1.8,1.8,1.8Z"/>
      <g>
        <path class="cls-4" d="M144.2,83.4c1,0,1.8-.8,1.8-1.8s-.8-1.8-1.8-1.8-1.8.8-1.8,1.8.8,1.8,1.8,1.8Z"/>
        <path class="cls-4" d="M144.2,73.1c1,0,1.8-.8,1.8-1.8s-.8-1.8-1.8-1.8-1.8.8-1.8,1.8.8,1.8,1.8,1.8Z"/>
        <path class="cls-4" d="M144.2,94.2c1,0,1.8-.8,1.8-1.8s-.8-1.8-1.8-1.8-1.8.8-1.8,1.8.8,1.8,1.8,1.8Z"/>
        <path class="cls-4" d="M144.2,108.4c2,0,3.6-1.6,3.6-3.5s-1.6-3.5-3.6-3.5-3.6,1.6-3.6,3.5,1.6,3.5,3.6,3.5Z"/>
      </g>
      <path class="cls-4" d="M74.4,94.1c2,0,3.6-1.6,3.6-3.5s-1.6-3.5-3.6-3.5-3.6,1.6-3.6,3.5,1.6,3.5,3.6,3.5Z"/>
      <path class="cls-4" d="M74.4,79.9c1,0,1.8-.8,1.8-1.8s-.8-1.8-1.8-1.8-1.8.8-1.8,1.8.8,1.8,1.8,1.8Z"/>
      <g>
        <path class="cls-4" d="M121.9,75c1,0,1.8-.8,1.8-1.8s-.8-1.8-1.8-1.8-1.8.8-1.8,1.8.8,1.8,1.8,1.8Z"/>
        <path class="cls-4" d="M121.9,87c1,0,1.8-.8,1.8-1.8s-.8-1.8-1.8-1.8-1.8.8-1.8,1.8.8,1.8,1.8,1.8Z"/>
        <path class="cls-4" d="M121.9,63.1c1,0,1.8-.8,1.8-1.8s-.8-1.8-1.8-1.8-1.8.8-1.8,1.8.8,1.8,1.8,1.8Z"/>
        <path class="cls-4" d="M121.9,101.2c2,0,3.6-1.6,3.6-3.5s-1.6-3.5-3.6-3.5-3.6,1.6-3.6,3.5,1.6,3.5,3.6,3.5Z"/>
        <path class="cls-4" d="M121.9,118.9c2.5,0,4.5-2,4.5-4.4s-2-4.4-4.5-4.4-4.5,2-4.5,4.4,2,4.4,4.5,4.4Z"/>
      </g>
      <path class="cls-4" d="M97.6,108.4c2,0,3.6-1.6,3.6-3.5s-1.6-3.5-3.6-3.5-3.6,1.6-3.6,3.5,1.6,3.5,3.6,3.5Z"/>
      <path class="cls-4" d="M97.6,94.2c1,0,1.8-.8,1.8-1.8s-.8-1.8-1.8-1.8-1.8.8-1.8,1.8.8,1.8,1.8,1.8Z"/>
      <path class="cls-4" d="M97.6,83.4c1,0,1.8-.8,1.8-1.8s-.8-1.8-1.8-1.8-1.8.8-1.8,1.8.8,1.8,1.8,1.8Z"/>
      <path class="cls-4" d="M97.6,73.1c1,0,1.8-.8,1.8-1.8s-.8-1.8-1.8-1.8-1.8.8-1.8,1.8.8,1.8,1.8,1.8Z"/>
    </g>
    <path class="cls-5" d="M234.7,106.3h-5.8c-.7,0-1.2-.2-1.6-.5-.4-.3-.7-.7-.9-1.2l-2.4-7.5h-14l-2.4,7.4c-.2.4-.4.8-.9,1.2-.4.4-1,.5-1.6.5h-5.9l13.8-38h7.7l13.8,38ZM211.8,91.9h10.6l-3.9-12c-.2-.6-.5-1.3-.7-2.1-.2-.8-.5-1.7-.7-2.6-.2.9-.5,1.8-.7,2.6-.2.8-.5,1.5-.7,2.1l-3.9,12Z"/>
    <path class="cls-5" d="M244.2,84.1h1.2c1.1,0,2-.4,2.4-1.1l7.5-13.1c.4-.6.9-1,1.4-1.2.5-.2,1.1-.3,1.8-.3h6.5l-9.8,15.6c-.7,1-1.5,1.7-2.3,2.1.6.2,1.1.5,1.5.9.5.4.9.9,1.3,1.5l9.9,17.7h-6.7c-.8,0-1.5-.1-1.9-.4-.4-.3-.8-.6-1-1l-7.6-13.8c-.3-.5-.6-.8-1-1-.4-.2-.9-.3-1.6-.3h-1.9v16.5h-7.5v-38h7.5v15.7Z"/>
    <path class="cls-5" d="M301.9,106.3h-5.8c-.7,0-1.2-.2-1.6-.5-.4-.3-.7-.7-.9-1.2l-2.4-7.5h-14l-2.4,7.4c-.2.4-.4.8-.9,1.2-.4.4-1,.5-1.6.5h-5.9l13.8-38h7.7l13.8,38ZM279,91.9h10.6l-3.9-12c-.2-.6-.5-1.3-.7-2.1-.2-.8-.5-1.7-.7-2.6-.2.9-.5,1.8-.7,2.6-.2.8-.5,1.5-.7,2.1l-3.9,12Z"/>
    <path class="cls-5" d="M336.4,87.3c0,2.8-.4,5.3-1.3,7.7-.9,2.3-2.1,4.3-3.7,6-1.6,1.7-3.5,3-5.8,3.9-2.3.9-4.8,1.4-7.5,1.4h-13.8v-38h13.8c2.8,0,5.3.5,7.5,1.4,2.3.9,4.2,2.2,5.8,3.9,1.6,1.7,2.9,3.7,3.7,6,.9,2.3,1.3,4.9,1.3,7.6ZM328.7,87.3c0-2-.2-3.8-.7-5.4-.5-1.6-1.2-3-2.1-4.1-.9-1.1-2.1-2-3.4-2.6-1.3-.6-2.8-.9-4.5-.9h-6.3v26h6.3c1.7,0,3.2-.3,4.5-.9,1.3-.6,2.5-1.4,3.4-2.6.9-1.1,1.6-2.5,2.1-4.1.5-1.6.7-3.4.7-5.5Z"/>
    <path class="cls-5" d="M363.5,68.3v6h-15.6v10h12.1v5.7h-12.1v10.2h15.6v6h-23.2v-38h23.1Z"/>
    <path class="cls-5" d="M390,93.8c.3-.7.5-1.3.8-2,.3-.6.6-1.3.9-1.8l11.7-20.5c.2-.3.3-.5.5-.7.2-.2.3-.3.5-.3.2,0,.4-.1.7-.1.2,0,.5,0,.9,0h5.7v38h-6.6v-23.7c0-.5,0-1.1,0-1.7s0-1.2.1-1.8l-12,21.2c-.6,1.1-1.5,1.7-2.6,1.7h-1.1c-1.2,0-2-.6-2.6-1.7l-12.1-21.3c0,.6.1,1.3.2,1.9,0,.6,0,1.2,0,1.7v23.7h-6.6v-38h5.7c.3,0,.6,0,.8,0,.2,0,.5,0,.7.1.2,0,.4.2.5.3.2.2.3.4.5.7l11.8,20.6c.6,1.2,1.2,2.4,1.7,3.7Z"/>
    <path class="cls-5" d="M425.7,106.3h-7.5v-38h7.5v38Z"/>
    <path class="cls-5" d="M463.6,106.3h-5.8c-.7,0-1.2-.2-1.6-.5-.4-.3-.7-.7-.9-1.2l-2.4-7.5h-14l-2.4,7.4c-.2.4-.4.8-.9,1.2-.4.4-1,.5-1.6.5h-5.9l13.8-38h7.7l13.8,38ZM440.6,91.9h10.6l-3.9-12c-.2-.6-.5-1.3-.7-2.1-.2-.8-.5-1.7-.7-2.6-.2.9-.5,1.8-.7,2.6-.2.8-.5,1.5-.7,2.1l-3.9,12Z"/>
    <g>
      <path class="cls-5" d="M220.8,133.4c-.3.5-.7.8-1.2.8s-.6-.1-1-.4c-.4-.3-.9-.6-1.4-1-.6-.4-1.2-.7-2-1-.8-.3-1.7-.4-2.8-.4s-2,.1-2.8.4c-.8.3-1.4.7-2,1.2-.5.5-.9,1.1-1.2,1.8-.3.7-.4,1.4-.4,2.2s.2,1.9.7,2.6c.5.7,1.1,1.3,1.9,1.8.8.5,1.7.9,2.7,1.3,1,.4,2,.7,3.1,1.1,1,.4,2.1.8,3.1,1.3,1,.5,1.9,1.1,2.7,1.8.8.7,1.4,1.6,1.9,2.7.5,1.1.7,2.4.7,3.9s-.3,3.2-.8,4.6c-.5,1.4-1.3,2.7-2.3,3.8-1,1.1-2.3,1.9-3.8,2.5-1.5.6-3.2.9-5.1.9s-4.4-.4-6.4-1.3c-1.9-.9-3.6-2.1-4.9-3.6l1.5-2.5c.1-.2.3-.4.5-.5.2-.1.4-.2.7-.2s.8.2,1.2.6c.4.4,1,.8,1.7,1.3.7.5,1.5.9,2.4,1.3.9.4,2.1.6,3.4.6s2.1-.2,2.9-.5c.9-.3,1.6-.8,2.2-1.4.6-.6,1.1-1.3,1.4-2.1.3-.8.5-1.7.5-2.8s-.2-2-.7-2.8c-.5-.7-1.1-1.3-1.9-1.8-.8-.5-1.7-.9-2.7-1.2-1-.3-2-.7-3.1-1-1-.4-2.1-.8-3.1-1.2-1-.5-1.9-1.1-2.7-1.8-.8-.8-1.4-1.7-1.9-2.8-.5-1.1-.7-2.5-.7-4.2s.2-2.6.7-3.8c.5-1.2,1.2-2.4,2.2-3.3.9-1,2.1-1.7,3.5-2.3,1.4-.6,3-.9,4.8-.9s3.8.3,5.5,1c1.7.7,3.1,1.6,4.3,2.9l-1.3,2.4Z"/>
      <path class="cls-5" d="M249.3,127.4v1.9c0,.6-.2,1.2-.5,1.7l-17.6,29.7h17.7v4.2h-24v-2c0-.3,0-.6.1-.8,0-.2.2-.5.4-.7l17.5-29.8h-17.1v-4.2h23.4Z"/>
      <path class="cls-5" d="M278.8,127.4v4.3h-10.9v33.2h-5.2v-33.2h-11v-4.3h27.1Z"/>
      <path class="cls-5" d="M297,160.9c1.5,0,2.9-.3,4-.8,1.2-.5,2.2-1.3,3-2.2.8-.9,1.4-2.1,1.9-3.4.4-1.3.6-2.7.6-4.3v-22.8h5.2v22.8c0,2.2-.3,4.2-1,6-.7,1.8-1.7,3.4-2.9,4.8-1.3,1.4-2.8,2.4-4.6,3.2-1.8.8-3.9,1.2-6.2,1.2s-4.3-.4-6.2-1.2c-1.8-.8-3.4-1.8-4.6-3.2-1.3-1.4-2.3-3-2.9-4.8-.7-1.8-1-3.9-1-6v-22.8h5.2v22.8c0,1.6.2,3,.6,4.3.4,1.3,1.1,2.4,1.9,3.4.8.9,1.8,1.7,3,2.2,1.2.5,2.5.8,4,.8Z"/>
      <path class="cls-5" d="M323.6,143.9h1.5c.6,0,1,0,1.4-.3.4-.2.7-.4.9-.8l9.7-14.1c.3-.4.7-.7,1.1-.9.4-.2.8-.3,1.4-.3h4.5l-11.4,16.1c-.6.8-1.2,1.4-1.9,1.7.9.3,1.7.9,2.4,1.9l11.8,17.8h-4.6c-.6,0-1.1-.1-1.4-.3-.3-.2-.6-.5-.8-.8l-9.9-14.9c-.3-.4-.6-.7-1-.9-.4-.2-.9-.3-1.6-.3h-1.9v17.1h-5.2v-37.6h5.2v16.4Z"/>
      <path class="cls-5" d="M353.7,165h-5.2v-37.6h5.2v37.6Z"/>
      <path class="cls-5" d="M380.5,143.9h1.5c.6,0,1,0,1.4-.3.4-.2.7-.4.9-.8l9.7-14.1c.3-.4.7-.7,1.1-.9.4-.2.8-.3,1.4-.3h4.5l-11.4,16.1c-.6.8-1.2,1.4-1.9,1.7.9.3,1.7.9,2.4,1.9l11.8,17.8h-4.6c-.6,0-1.1-.1-1.4-.3-.3-.2-.6-.5-.8-.8l-9.9-14.9c-.3-.4-.6-.7-1-.9-.4-.2-.9-.3-1.6-.3h-1.9v17.1h-5.2v-37.6h5.2v16.4Z"/>
      <path class="cls-5" d="M403,127.4h4.4c.4,0,.8.1,1.1.3.3.2.5.5.6.9l7.3,25.9c.3.9.5,2,.7,3.2.1-.6.2-1.2.4-1.7.1-.5.3-1.1.4-1.5l8.4-25.9c0-.3.3-.6.6-.9.3-.2.7-.4,1.1-.4h1.5c.5,0,.8.1,1.1.3.3.2.5.5.6.9l8.4,25.9c.2.5.3.9.4,1.5.1.5.3,1.1.4,1.6.1-.6.2-1.1.3-1.7.1-.5.2-1,.4-1.5l7.3-25.9c0-.3.3-.6.6-.9.3-.2.7-.4,1.2-.4h4.1l-11.4,37.6h-4.7l-9-28.5c0-.3-.2-.6-.3-.9,0-.3-.2-.7-.3-1,0,.4-.2.7-.2,1,0,.3-.2.6-.3.9l-9.1,28.5h-4.7l-11.4-37.6Z"/>
      <path class="cls-5" d="M484.6,165h-4c-.5,0-.8-.1-1.1-.3-.3-.2-.5-.5-.6-.9l-3.2-9h-15.5l-3.2,9c-.1.3-.3.6-.6.9-.3.2-.7.4-1.1.4h-4l14.1-37.6h5.3l14.1,37.6ZM461.5,151.1h12.9l-5.3-15.1c-.2-.5-.4-1-.6-1.6-.2-.6-.4-1.3-.5-2-.2.7-.4,1.4-.6,2-.2.6-.4,1.1-.5,1.6l-5.3,15.1Z"/>
      <path class="cls-5" d="M491.7,127.6c.2.1.5.3.8.7l20.4,28.1c0-.5,0-.9-.1-1.4,0-.4,0-.9,0-1.2v-26.4h4.6v37.6h-2.6c-.4,0-.7,0-1-.2-.3-.1-.5-.4-.8-.7l-20.4-28c0,.4,0,.9,0,1.3,0,.4,0,.8,0,1.1v26.5h-4.6v-37.6h2.7c.4,0,.8,0,1,.2Z"/>
      <path class="cls-5" d="M548,127.4v4.3h-10.9v33.2h-5.2v-33.2h-11v-4.3h27.1Z"/>
      <path class="cls-5" d="M582.7,146.2c0,2.8-.4,5.4-1.2,7.7-.8,2.3-2,4.4-3.5,6.1-1.5,1.7-3.3,3-5.5,4-2.1.9-4.5,1.4-7.1,1.4s-4.9-.5-7.1-1.4c-2.1-.9-4-2.3-5.5-4-1.5-1.7-2.7-3.7-3.5-6.1-.8-2.3-1.3-4.9-1.3-7.7s.4-5.4,1.3-7.7c.8-2.4,2-4.4,3.5-6.1,1.5-1.7,3.4-3,5.5-4,2.1-.9,4.5-1.4,7.1-1.4s4.9.5,7.1,1.4c2.1.9,3.9,2.3,5.5,4,1.5,1.7,2.7,3.7,3.5,6.1.8,2.4,1.2,4.9,1.2,7.7ZM577.4,146.2c0-2.3-.3-4.3-.8-6.2-.6-1.8-1.4-3.4-2.4-4.6-1-1.3-2.3-2.2-3.8-2.9-1.5-.7-3.1-1-5-1s-3.5.3-5,1c-1.5.7-2.7,1.6-3.8,2.9-1,1.3-1.9,2.8-2.4,4.6-.6,1.8-.8,3.9-.8,6.2s.3,4.3.8,6.2c.6,1.8,1.4,3.4,2.4,4.6,1,1.3,2.3,2.2,3.8,2.9,1.5.7,3.1,1,5,1s3.5-.3,5-1c1.5-.7,2.7-1.6,3.8-2.9,1-1.3,1.8-2.8,2.4-4.6.6-1.8.8-3.9.8-6.2Z"/>
      <path class="cls-5" d="M582.8,127.4h4.4c.4,0,.8.1,1.1.3.3.2.5.5.6.9l7.3,25.9c.3.9.5,2,.7,3.2.1-.6.2-1.2.4-1.7s.3-1.1.4-1.5l8.4-25.9c0-.3.3-.6.6-.9.3-.2.7-.4,1.1-.4h1.5c.5,0,.8.1,1.1.3.3.2.5.5.6.9l8.4,25.9c.2.5.3.9.4,1.5.1.5.3,1.1.4,1.6.1-.6.2-1.1.3-1.7.1-.5.2-1,.4-1.5l7.3-25.9c0-.3.3-.6.6-.9.3-.2.7-.4,1.2-.4h4.1l-11.4,37.6h-4.7l-9-28.5c0-.3-.2-.6-.3-.9,0-.3-.2-.7-.3-1,0,.4-.2.7-.2,1,0,.3-.2.6-.3.9l-9.1,28.5h-4.7l-11.4-37.6Z"/>
      <path class="cls-5" d="M659.5,127.4v4.2h-16.7v12.3h13.5v4.1h-13.5v12.7h16.7v4.2h-22v-37.6h21.9Z"/>
      <path class="cls-5" d="M676.9,152c0,2.1-.2,4-.6,5.6-.4,1.7-1,3.1-1.9,4.2-.8,1.2-1.9,2-3.1,2.6-1.2.6-2.7.9-4.3.9s-1.5,0-2.2-.2c-.7-.1-1.5-.3-2.3-.5,0-.5,0-1.1.1-1.6,0-.5.1-1,.2-1.5,0-.3.1-.5.3-.7.2-.2.5-.3.8-.3s.6,0,1,.2c.4.1.9.2,1.6.2,1.7,0,3-.7,3.9-2.1.9-1.4,1.3-3.7,1.3-6.8v-24.7h5.2v24.5Z"/>
    </g>
  </g>
  <text class="cls-11" transform="translate(67.8 427.1)"><tspan x="0" y="0">Szkolenia z obliczeń </tspan><tspan x="0" y="65.7">kwantowych </tspan><tspan x="0" y="131.3">i SI kreujące innowacyjne </tspan><tspan x="0" y="197">społeczeństwo</tspan></text>
  <rect class="cls-7" x="69.9" y="676.9" width="278" height="70"/>
  <g>
    <text class="cls-9" transform="translate(106.2 724.3)"><tspan x="0" y="0">SPRAWDŹ</tspan></text>
    <polygon class="cls-1" points="310.9 711.2 298.7 718.2 286.5 725.2 286.5 711.2 286.5 697.1 298.7 704.1 310.9 711.2"/>
  </g>
  <g>
    <polygon class="cls-5" points="-.5 879.4 50.2 960.1 1029.4 960.1 1081.9 1082.8 -.5 1082.8 -.5 879.4"/>
    <g>
      <polygon class="cls-10" points="-.5 879.4 39 992.2 1029.4 960.1 1081.9 1082.8 -.5 1082.8 -.5 879.4"/>
      <g class="cls-12">
        <g class="cls-13">
          <path class="cls-6" d="M-252.5,832.1c-.2.3-.1.6.1.8l86.7,77.7-6.2,60.6-21.2-4.1c-.3,0-.5,0-.7.3l-35.3,45.9c-2.3-1.4-5.2-1.3-7.3.5-2.7,2.2-3,6.2-.7,8.9,2.2,2.7,6.2,3,8.9.7.7-.6,1.2-1.2,1.5-1.9l47.8,18.4-2.6,25.2c0,.2,0,.4.2.6.2.1.4.2.6.1l37.9-12,22.2,8.5c.2,0,.4,0,.5,0,.2,0,.3-.2.4-.4l6.3-17.4,104.8-33.2c0,.7,0,1.4.2,2.1l-69.9,82.6s0,0,0,0c0,0,0,.2-.1.3,0,0,0,0,0,0,0,0,0,0,0,0,0,.1,0,.2,0,.3,0,0,0,0,0,0,0,0,0,0,.1.1,0,0,0,.1.1.1h0s0,0,0,0l38.4,30c.2.1.4.2.6.1s.4-.2.5-.4l9.8-22.5c1.2.3,2.5,0,3.6-.8.7-.6,1.1-1.3,1.3-2.1l49.6,3.8c.2,0,.4,0,.6-.3.1-.2.2-.4.1-.6L-.8,1017.1c.5-.2.9-.5,1.4-.8,1.3-1.1,2-2.7,2-4.3l66.8,21.5-18.4,26.3c-.1.2-.2.4,0,.6,0,.2.3.4.5.4l90.1,22.8s0,0,0,0c0,0,.2,0,.3,0,0,0,.1,0,.2,0,0,0,0,0,0,0,0,0,0,0,0,0,0,0,0,0,.1,0l46-72.8c3.6,1.9,8.1,1.6,11.4-1.2,4.3-3.6,4.8-10,1.2-14.3-3.6-4.3-10-4.8-14.3-1.2-1.7,1.4-2.7,3.2-3.2,5.2l-32.5-6.2,23.9-34.5,40.7,2c.2,0,.4,0,.5-.2.1-.1.2-.3.2-.5l-1.8-67.5c0-.2,0-.3-.2-.4,0,0-.1-.1-.2-.2-.2-.1-.5,0-.7,0l-28.5,23.5-4.2-39,75.9-24.9c.4,1.1,1,2.2,1.8,3.1,4,4.7,11.1,5.3,15.9,1.3,4.7-4,5.3-11.1,1.3-15.9-4-4.7-11.1-5.3-15.9-1.3-.7.6-1.3,1.2-1.8,1.9l-87.5-56.8s-.1,0-.2,0c0,0,0,0-.2,0l-58.4-4.8,54.4-68.2c.2-.2.2-.6,0-.8,0,0,0,0,0,0-.2-.2-.4-.3-.7-.2l-77.4,23.1,13.5-18c2.7,1.7,6.3,1.5,8.9-.6,3.2-2.7,3.6-7.6.9-10.8-2.7-3.2-7.6-3.6-10.8-.9-2.2,1.9-3.1,4.7-2.5,7.3L-.9,738.8l-13.5-24.8s0,0,0-.1c-.2-.2-.4-.3-.7-.2l-47.9,11.1c-.3,0-.5.3-.5.6,0,.3.2.6.4.7l47.9,17-61.9,18.4c-.2-.4-.4-.7-.7-1.1-1.7-2-4.7-2.2-6.7-.6-2,1.7-2.2,4.7-.6,6.7,0,0,.1.1.2.2l-32.6,41.5-32.8-3.5c-.3,0-.5,0-.6.3-.1.2-.1.5,0,.7l16,24.8-19.9,25.3c-3.6-2.5-8.5-2.4-12.1.6-1.2,1.1-2.1,2.4-2.7,3.8l-82.3-28.2c-.3-.1-.6,0-.8.3ZM-160.5,873.8c.9,0,1.8,0,2.7-.3l18.8,59.3-25.3-22.6,3.7-36.3ZM-226.2,1020.3c.5-1.9.1-4.1-1.3-5.7-.1-.2-.3-.3-.5-.5l35.1-45.6,20.9,4-6.7,66-47.5-18.3ZM-180,1064.3l2.4-23.8,32.8,12.6-35.3,11.2ZM-142.7,1052.5l-34.7-13.4,6.8-66.2,55.9,10.8c0,.5.2.9.5,1.3l-10,14.5c-.1.2-.2.4,0,.6,0,.2.3.4.5.4l23.2,4.9-13.8,38.2-28.2,9ZM-110.2,984.6l15.9,3.1-5.9,16.5-22.4-4.7,9.4-13.7c.8.3,1.7.2,2.3-.4.3-.2.5-.5.6-.8ZM-92.8,987.3c0-.2,0-.4,0-.6,0,0,0,0,0-.1,0-.1-.2-.2-.4-.2l-16.8-3.2c0-.5-.2-.9-.5-1.3l29.3-42.4,1.9,69-19.5-4.1,6.1-17ZM-120.7,1060.9l-19.9-7.7,25.6-8.1-5.7,15.8ZM-32.1,1099.5l-42.8-3.3,57.6-22.4-9.9,22.8c-1.2-.3-2.5,0-3.6.8-.7.6-1.1,1.3-1.3,2.1ZM-39.8,1125.5l-35.9-28.1,43.5,3.4c0,.8.4,1.6.9,2.2.3.3.6.5.9.8l-9.4,21.7ZM-2.1,1017.5l26.6,86.3-48.6-3.8c0-.8-.4-1.6-.9-2.2-.3-.3-.6-.5-.9-.8l10.6-24.3c.1-.2,0-.5-.1-.7,0,0,0,0,0,0-.2-.2-.5-.3-.7-.2l-59.4,23.1L-7.9,1014.9c.2.3.3.5.5.7,1.3,1.6,3.4,2.2,5.3,1.9ZM52.7,1059.7l18.1-25.8,38.6,12.4c0,.9.1,1.8.8,2.5,1,1.2,2.7,1.5,4.1.8l25.7,32.1-87.2-22ZM185.3,1008.1c.5.6,1.1,1.1,1.8,1.6l-45.5,72-26.3-33c.7-.9,1-2.1.7-3.1l68.7-38.5c.2.4.4.7.7,1ZM183,1000.3c-.2,1.9,0,3.8.9,5.6l-68.7,38.5s0,0-.1-.1l34.8-50.3,33.1,6.3ZM114,1043.6c-1.1-.5-2.5-.4-3.5.5-.3.3-.5.6-.7.9l-38.2-12.3,33.2-47.3,43.8,8.3-34.5,49.8ZM212.9,893.6l1.7,65.4-39.1-2,9.7-14c1.2.5,2.7.4,3.8-.5,1.5-1.3,1.7-3.6.4-5.1-.6-.8-1.5-1.2-2.5-1.3l-2.1-19.4,28.1-23.2ZM183.6,917.8l2,18.6c-.5.1-.9.4-1.3.7-1.5,1.3-1.7,3.6-.4,5.1,0,0,.1,0,.2.2l-10.2,14.7-35.7-1.8,45.3-37.4ZM183.4,916.2l-46.7,38.5-27.1-50.9c.1,0,.2-.1.4-.2,1.5-1.2,2-3.1,1.7-4.9l67.4-22.1,4.3,39.6ZM135.5,955.3l-50.5,12.7,20.7-63.3c.9.2,1.9,0,2.7-.2l27,50.8ZM257,841.6c-1.4,2.6-1.8,5.6-1.1,8.4l-75.6,24.8-9.6-89.2,86.4,56.1ZM179,875.2l-67.7,22.2c-.2-.4-.4-.8-.7-1.1-.3-.3-.6-.6-.9-.8l59.7-109.1,9.6,88.8ZM92.8,800l-17-22.9,33.2,2.7-16.1,20.2ZM163.6,711.3l-53.6,67.2-35.2-2.9-9.5-12.8,21.3-28.5,77.1-23ZM-2.2,946.2l20.5,45.4-52.4-19.5,20.8-28.4,11.1,2.5ZM-12.4,942.5l5.3-7.3,4.2,9.4-9.6-2.1ZM-1.2,945l-5.1-11.3c0,0,0-.1,0-.2-.1-.1-.3-.2-.4-.2-.2,0-.5,0-.6.3l-6.4,8.7-44.2-9.8c0-.5,0-1-.2-1.4l64.2-32.8,8.3,17.1c-.6.4-1.3.8-1.8,1.3-5,4.2-5.6,11.6-1.4,16.6,4.2,5,11.6,5.6,16.6,1.4,5-4.2,5.6-11.6,1.4-16.6-.6-.8-1.4-1.4-2.2-1.9l24.6-39.2c.2,0,.3.1.5.1l-1.6,79.4-51.7-11.4ZM-58.8,929.8c0,0,0-.1-.1-.2,0,0-.1-.1-.2-.2l48.6-65.2,16,32.7-64.3,32.8ZM25.8,915.3c-3.1-1.7-6.9-1.9-10.2-.5l-8.4-17.2,42.8-21.8s0,0,0,.1c0,.1.2.2.3.2l-24.6,39.2ZM6.7,896.4l-16.3-33.3,11.3-15.1,47.8,24.7c-.2.6-.2,1.3,0,1.9l-42.7,21.8ZM-10.3,861.7l-13-26.7,23.8,12.3-10.7,14.4ZM-24.5,832.9c-.3-.1-.6,0-.8.1-.2.2-.3.5-.1.8l14.2,29.2-49,65.7c-.5-.3-1.1-.4-1.6-.4l-18.2-160.3c.7-.2,1.3-.5,1.9-.9.8-.7,1.3-1.6,1.5-2.5l50.8,4.2-19.2,35.1c-.1.2-.1.5,0,.7.2.2.4.3.7.3l46.8-6.7c.2,0,.4-.2.5-.3.1-.2.1-.4,0-.6l-12-27.1,58.4,4.8c0,1.4.5,2.8,1.5,3.9.1.1.3.3.4.4L1.3,846.2l-25.8-13.3ZM-23.7,767.5l6.7-12.2,5.9,13.3-12.6-1ZM-10.5,769.9l11.9,27-44.6,6.3,18.8-34.5,13.9,1.1ZM60.5,770.7c-.2-.2-.4-.4-.7-.6l4.5-6,8.6,11.5-10.9-.9c0-1.4-.5-2.8-1.5-3.9ZM64.4,761.7l-12.7-17,32.6-9.7-20,26.8ZM-1.6,740.4l4,7.4-13.2-4.7,9.2-2.7ZM-60.4,725.5l45.1-10.4,13.1,24.1-10.7,3.2-47.5-16.9ZM-12.9,743.8l16.6,5.9c.3,0,.6,0,.7-.2.2-.2.2-.5,0-.8l-4.7-8.7,98.4-29.3c.3.8.7,1.5,1.2,2.1.2.3.5.5.8.7l-14.5,19.5-35.3,10.5c-.2,0-.4.2-.4.4,0,.2,0,.4,0,.6l13.5,18.1-4.8,6.4c-2.2-1.2-5.1-1-7.1.7-1.1,1-1.8,2.3-2.1,3.6l-59.1-4.9-6.7-15.2c0,0,0-.1-.1-.2-.1-.1-.3-.2-.5-.2-.3,0-.5.1-.6.3l-7.6,14-51.4-4.3c0-.1,0-.3,0-.4l63.7-18.9ZM-148.8,806.1l30.6,3.3-15.6,19.9-15-23.2ZM-116.7,809.5l22.8,2.5-11.1,61.9-28.1-43.5,16.4-20.9ZM-134,831.6l28.8,44.5c.2.2.4.3.7.3.3,0,.5-.3.5-.5l11.6-64.3c0-.2,0-.4-.1-.5,0,0,0,0,0,0-.1-.1-.3-.2-.4-.2l-22.7-2.4,32.1-40.8c.7.4,1.4.6,2.2.6l18.2,160.3c-.5.2-1,.4-1.5.8-1.7,1.4-1.9,4-.5,5.7,1.4,1.7,4,1.9,5.7.5.5-.4.9-1,1.1-1.6l43.6,9.6-20.9,28.6c-.1.2-.2.4-.1.6,0,.2.2.4.4.4l54.8,20.4c.3,0,.5,0,.7-.2.2-.2.2-.5.1-.7L-.5,946.5l51.5,11.4c.2,0,.4,0,.6-.1.2-.1.3-.3.3-.5l1.6-80.2c.6-.1,1.2-.3,1.7-.7,1.5-1.3,1.7-3.5.4-5-1.3-1.5-3.5-1.7-5-.4-.2.2-.3.4-.4.5l-47.6-24.6,49.9-66.8c2.3,1.4,5.3,1.3,7.4-.5,1.1-1,1.8-2.3,2.1-3.6l12.1,1,18.3,24.6c0,.2.3.3.5.3.2,0,.4,0,.5-.3l17.2-21.6,58.2,4.8-60.2,110.1c-1.7-.7-3.7-.4-5.2.9-2.2,1.8-2.4,5.1-.6,7.3.5.6,1.1,1,1.7,1.3l-21.1,64.5c0,.2,0,.5.1.7.2.2.4.3.7.2l52.4-13.2,36.5,1.8-23.7,34.3-44.8-8.5c-.3,0-.5,0-.7.3l-33.6,48-67.9-21.8c-.2-.8-.6-1.5-1.1-2.1-2-2.4-5.6-2.7-7.9-.7-.7.6-1.2,1.4-1.5,2.2l-104.6,33.2,13.5-37.4,20.5,4.3c.2,0,.4,0,.6-.1.2-.1.2-.3.2-.5l-2-71.9c0-.2,0-.3-.2-.4,0,0-.2-.2-.3-.2-.3,0-.6,0-.7.3l-30.4,44.1c-.8-.3-1.7-.2-2.3.4-.3.2-.5.5-.6.8l-55.9-10.8,6.1-59.7,26.4,23.6c.2.2.6.2.8,0,.3-.2.4-.5.3-.8l-19.6-61.6c1-.4,1.9-.9,2.8-1.6,4.2-3.6,4.7-9.9,1.2-14.1-.3-.3-.6-.6-1-.9l19.6-24.9ZM-169.8,861.3c-.8,3.1-.2,6.4,2,9,1.6,1.9,3.7,3,5.9,3.3l-3.6,35.4-83.5-74.8,79.2,27.1Z"/>
          <path class="cls-6" d="M-118.4,918.7c1.3,1.5,3.6,1.7,5.1.4,1.5-1.3,1.7-3.6.4-5.1-1.3-1.5-3.6-1.7-5.1-.4-1.5,1.3-1.7,3.6-.4,5.1Z"/>
          <path class="cls-6" d="M53.5,1013c3.3,3.9,9.1,4.4,13,1.1,3.9-3.3,4.4-9.1,1.1-13-3.3-3.9-9.1-4.4-13-1.1-3.9,3.3-4.4,9.1-1.1,13Z"/>
          <path class="cls-6" d="M-47.8,858.9c1.6,1.9,4.4,2.1,6.3.5,1.9-1.6,2.1-4.4.5-6.3-1.6-1.9-4.4-2.1-6.3-.5-1.9,1.6-2.1,4.4-.5,6.3Z"/>
          <path class="cls-6" d="M98.6,830.2c-1.3-1.5-3.6-1.7-5.1-.4-1.5,1.3-1.7,3.6-.4,5.1,1.3,1.5,3.6,1.7,5.1.4,1.5-1.3,1.7-3.6.4-5.1Z"/>
          <path class="cls-6" d="M161.1,860.3c1.2,1.4,3.2,1.5,4.6.4,1.4-1.2,1.5-3.2.4-4.6-1.2-1.4-3.2-1.5-4.6-.4-1.4,1.2-1.5,3.2-.4,4.6Z"/>
          <path class="cls-6" d="M142.8,797.5c-2.6-3-7.1-3.4-10.1-.8-3,2.6-3.4,7.1-.8,10.1,2.6,3,7.1,3.4,10.1.8,3-2.6,3.4-7.1.8-10.1Z"/>
          <path class="cls-6" d="M-141.6,1021.4c-1.7-2-4.7-2.3-6.7-.6-2,1.7-2.3,4.7-.6,6.7,1.7,2,4.7,2.3,6.7.6,2-1.7,2.3-4.7.6-6.7Z"/>
        </g>
        <g class="cls-13">
          <path class="cls-6" d="M667.8,971.6c-.2.3-.1.6.1.8l86.7,77.7-6.2,60.6-21.2-4.1c-.3,0-.5,0-.7.3l-35.3,45.9c-2.3-1.4-5.2-1.3-7.3.5-2.7,2.2-3,6.2-.7,8.9,2.2,2.7,6.2,3,8.9.7.7-.6,1.2-1.2,1.5-1.9l47.8,18.4-2.6,25.2c0,.2,0,.4.2.6.2.1.4.2.6.1l37.9-12,22.2,8.5c.2,0,.4,0,.5,0,.2,0,.3-.2.4-.4l6.3-17.4,104.8-33.2c0,.7,0,1.4.2,2.1l-69.9,82.6s0,0,0,0c0,0,0,.2-.1.3,0,0,0,0,0,0,0,0,0,0,0,0,0,.1,0,.2,0,.3,0,0,0,0,0,0,0,0,0,0,.1.1,0,0,0,.1.1.1h0s0,0,0,0l38.4,30c.2.1.4.2.6.1.2,0,.4-.2.5-.4l9.8-22.5c1.2.3,2.5,0,3.6-.8.7-.6,1.1-1.3,1.3-2.1l49.6,3.8c.2,0,.4,0,.6-.3.1-.2.2-.4.1-.6l-26.9-87.3c.5-.2.9-.5,1.4-.8,1.3-1.1,2-2.7,2-4.3l66.8,21.5-18.4,26.3c-.1.2-.2.4,0,.6,0,.2.3.4.5.4l90.1,22.8s0,0,0,0c0,0,.2,0,.3,0,0,0,.1,0,.2,0,0,0,0,0,0,0,0,0,0,0,0,0,0,0,0,0,.1,0l46-72.8c3.6,1.9,8.1,1.6,11.4-1.2,4.3-3.6,4.8-10,1.2-14.3-3.6-4.3-10-4.8-14.3-1.2-1.7,1.4-2.7,3.2-3.2,5.2l-32.5-6.2,23.9-34.5,40.7,2c.2,0,.4,0,.5-.2.1-.1.2-.3.2-.5l-1.8-67.5c0-.2,0-.3-.2-.4,0,0-.1-.1-.2-.2-.2-.1-.5,0-.7,0l-28.5,23.5-4.2-39,75.9-24.9c.4,1.1,1,2.2,1.8,3.1,4,4.7,11.1,5.3,15.9,1.3,4.7-4,5.3-11.1,1.3-15.9-4-4.7-11.1-5.3-15.9-1.3-.7.6-1.2,1.2-1.8,1.9l-87.5-56.8s-.1,0-.2,0c0,0,0,0-.2,0l-58.4-4.8,54.4-68.2c.2-.2.2-.6,0-.8,0,0,0,0,0,0-.2-.2-.4-.3-.7-.2l-77.4,23.1,13.5-18c2.7,1.7,6.3,1.5,8.9-.6,3.2-2.7,3.6-7.6.9-10.8-2.7-3.2-7.6-3.6-10.8-.9-2.2,1.9-3.1,4.7-2.5,7.3l-98.7,29.3-13.5-24.8s0,0,0-.1c-.2-.2-.4-.3-.7-.2l-47.9,11.1c-.3,0-.5.3-.5.6,0,.3.2.6.4.7l47.9,17-61.9,18.4c-.2-.4-.4-.7-.7-1.1-1.7-2-4.7-2.2-6.7-.6-2,1.7-2.2,4.7-.6,6.7,0,0,.1.1.2.2l-32.6,41.5-32.8-3.5c-.3,0-.5,0-.6.3-.1.2-.1.5,0,.7l16,24.8-19.9,25.3c-3.6-2.5-8.6-2.4-12.1.6-1.2,1.1-2.1,2.4-2.7,3.8l-82.3-28.2c-.3-.1-.6,0-.8.3ZM759.7,1013.2c.9,0,1.8,0,2.7-.3l18.8,59.3-25.3-22.6,3.7-36.3ZM694,1159.8c.5-1.9.1-4.1-1.3-5.7-.1-.2-.3-.3-.5-.5l35.1-45.6,20.9,4-6.8,66-47.5-18.3ZM740.3,1203.8l2.4-23.8,32.8,12.6-35.3,11.2ZM777.6,1191.9l-34.7-13.4,6.8-66.2,55.9,10.8c0,.5.2.9.5,1.3l-10,14.5c-.1.2-.2.4,0,.6,0,.2.3.4.5.4l23.2,4.9-13.8,38.2-28.2,9ZM810,1124l15.9,3.1-5.9,16.5-22.4-4.7,9.4-13.7c.8.3,1.7.2,2.3-.4.3-.2.5-.5.6-.8ZM827.5,1126.8c0-.2,0-.4,0-.6,0,0,0,0,0-.1,0-.1-.2-.2-.4-.2l-16.8-3.2c0-.5-.2-.9-.5-1.3l29.3-42.4,1.9,69-19.5-4.1,6.1-17ZM799.5,1200.4l-19.9-7.7,25.6-8.1-5.7,15.8ZM888.2,1238.9l-42.8-3.3,57.6-22.4-9.9,22.8c-1.2-.3-2.5,0-3.6.8-.7.6-1.1,1.3-1.3,2.1ZM880.5,1265l-35.9-28.1,43.5,3.4c0,.8.4,1.6.9,2.2.3.3.6.5.9.8l-9.4,21.7ZM918.2,1157l26.6,86.3-48.6-3.8c0-.8-.4-1.6-.9-2.2-.3-.3-.6-.5-.9-.8l10.6-24.3c.1-.2,0-.5-.1-.7,0,0,0,0,0,0-.2-.2-.5-.3-.7-.2l-59.4,23.1,67.8-80.1c.2.3.3.5.5.7,1.3,1.6,3.4,2.2,5.3,1.9ZM972.9,1199.1l18.1-25.8,38.6,12.4c0,.9.1,1.8.8,2.5,1,1.2,2.7,1.5,4.1.8l25.7,32.1-87.2-22ZM1105.6,1147.6c.5.6,1.1,1.1,1.8,1.6l-45.5,72-26.3-33c.7-.9,1-2.1.7-3.1l68.7-38.5c.2.3.4.7.7,1ZM1103.3,1139.8c-.2,1.9,0,3.8.9,5.6l-68.7,38.5s0,0-.1-.1l34.8-50.3,33.1,6.3ZM1034.3,1183c-1.1-.5-2.5-.4-3.5.5-.3.3-.5.6-.7.9l-38.2-12.3,33.2-47.3,43.8,8.3-34.5,49.8ZM1133.2,1033l1.7,65.4-39.1-2,9.7-14c1.2.5,2.7.4,3.8-.5,1.5-1.3,1.7-3.6.4-5.1-.6-.8-1.5-1.2-2.5-1.3l-2.1-19.4,28.1-23.2ZM1103.9,1057.2l2,18.6c-.5.1-.9.4-1.3.7-1.5,1.3-1.7,3.6-.4,5.1,0,0,.1,0,.2.2l-10.2,14.7-35.7-1.8,45.3-37.4ZM1103.7,1055.6l-46.7,38.5-27.1-50.9c.1,0,.2-.1.4-.2,1.5-1.2,2-3.1,1.7-4.9l67.4-22.1,4.3,39.6ZM1055.8,1094.7l-50.5,12.7,20.7-63.3c.9.2,1.9,0,2.7-.2l27,50.8ZM1177.3,981c-1.4,2.6-1.8,5.6-1.1,8.4l-75.6,24.8-9.6-89.2,86.4,56.1ZM1099.3,1014.6l-67.7,22.2c-.2-.4-.4-.8-.7-1.1-.3-.3-.6-.6-.9-.8l59.7-109.1,9.6,88.8ZM1013.1,939.4l-17-22.9,33.2,2.7-16.1,20.2ZM1083.9,850.8l-53.6,67.2-35.2-2.9-9.5-12.8,21.3-28.5,77.1-23ZM918.1,1085.6l20.5,45.4-52.4-19.5,20.8-28.4,11.1,2.5ZM907.9,1082l5.3-7.3,4.2,9.4-9.6-2.1ZM919.1,1084.4l-5.1-11.3c0,0,0-.1,0-.2-.1-.1-.3-.2-.4-.2-.2,0-.5,0-.6.3l-6.3,8.7-44.2-9.8c0-.5,0-1-.2-1.4l64.2-32.8,8.3,17.1c-.6.4-1.3.8-1.8,1.3-5,4.2-5.6,11.6-1.4,16.6,4.2,5,11.6,5.6,16.6,1.4,5-4.2,5.6-11.6,1.4-16.6-.6-.8-1.4-1.4-2.2-1.9l24.6-39.2c.2,0,.3.1.5.1l-1.6,79.4-51.7-11.4ZM861.5,1069.3c0,0,0-.1-.1-.2,0,0-.1-.1-.2-.2l48.6-65.2,16,32.7-64.3,32.8ZM946.1,1054.7c-3.1-1.7-6.9-1.9-10.2-.5l-8.4-17.2,42.8-21.8s0,0,0,.1c0,.1.2.2.3.2l-24.6,39.2ZM926.9,1035.8l-16.3-33.3,11.3-15.1,47.8,24.7c-.2.6-.2,1.3,0,1.9l-42.7,21.8ZM910,1001.2l-13-26.7,23.8,12.3-10.7,14.4ZM895.8,972.3c-.3-.1-.6,0-.8.1-.2.2-.3.5-.1.8l14.2,29.2-49,65.7c-.5-.3-1.1-.4-1.6-.4l-18.2-160.3c.7-.2,1.3-.5,1.9-.9.8-.7,1.3-1.6,1.5-2.5l50.8,4.2-19.2,35.1c-.1.2-.1.5,0,.7.2.2.4.3.7.3l46.8-6.7c.2,0,.4-.2.5-.3.1-.2.1-.4,0-.6l-12-27.1,58.4,4.8c0,1.4.5,2.8,1.5,3.9.1.1.3.3.4.4l-50,67-25.8-13.3ZM896.6,906.9l6.7-12.2,5.9,13.3-12.6-1ZM909.8,909.4l11.9,27-44.6,6.3,18.8-34.5,13.9,1.1ZM980.8,910.1c-.2-.2-.4-.4-.7-.6l4.5-6,8.6,11.5-10.9-.9c0-1.4-.5-2.8-1.5-3.9ZM984.6,901.1l-12.7-17,32.6-9.7-20,26.8ZM918.7,879.8l4,7.4-13.2-4.7,9.2-2.7ZM859.9,864.9l45.1-10.4,13.1,24.1-10.7,3.2-47.5-16.9ZM907.4,883.2l16.6,5.9c.3,0,.6,0,.7-.2.2-.2.2-.5,0-.8l-4.7-8.7,98.4-29.2c.3.8.7,1.5,1.2,2.1.2.3.5.5.8.7l-14.5,19.5-35.3,10.5c-.2,0-.4.2-.4.4,0,.2,0,.4.1.6l13.5,18.1-4.8,6.4c-2.2-1.2-5.1-1-7.1.7-1.1,1-1.8,2.3-2.1,3.6l-59.1-4.9-6.7-15.2c0,0,0-.1-.1-.2-.1-.1-.3-.2-.5-.2-.3,0-.5.1-.6.3l-7.6,14-51.4-4.3c0-.1,0-.3,0-.4l63.7-18.9ZM771.4,945.5l30.6,3.3-15.6,19.9-15-23.2ZM803.6,949l22.8,2.5-11.1,61.9-28.1-43.5,16.4-20.9ZM786.3,971l28.8,44.5c.2.2.4.3.7.3.3,0,.5-.3.5-.5l11.6-64.3c0-.2,0-.4-.1-.5,0,0,0,0,0,0-.1-.1-.3-.2-.4-.2l-22.7-2.5,32.1-40.8c.7.4,1.4.6,2.2.6l18.2,160.3c-.5.2-1,.4-1.5.8-1.7,1.4-1.9,4-.5,5.7,1.4,1.7,4,1.9,5.7.5.5-.4.9-1,1.1-1.6l43.6,9.6-20.9,28.6c-.1.2-.2.4,0,.6,0,.2.2.4.4.4l54.8,20.4c.3,0,.5,0,.7-.2.2-.2.2-.5.1-.7l-20.8-46,51.5,11.4c.2,0,.4,0,.6-.1.2-.1.3-.3.3-.5l1.6-80.2c.6-.1,1.2-.3,1.7-.7,1.5-1.3,1.7-3.5.4-5-1.3-1.5-3.5-1.7-5-.4-.2.2-.3.4-.4.5l-47.6-24.6,49.9-66.8c2.3,1.4,5.3,1.3,7.4-.5,1.1-1,1.8-2.3,2.1-3.6l12.1,1,18.3,24.6c0,.2.3.3.5.3.2,0,.4,0,.5-.3l17.2-21.6,58.2,4.8-60.2,110.1c-1.7-.7-3.7-.4-5.2.9-2.2,1.8-2.4,5.1-.6,7.3.5.6,1.1,1,1.7,1.3l-21.1,64.5c0,.2,0,.5.1.7.2.2.4.3.7.2l52.4-13.2,36.5,1.8-23.7,34.3-44.8-8.5c-.3,0-.5,0-.7.3l-33.6,48-67.9-21.8c-.2-.8-.6-1.5-1.1-2.1-2-2.4-5.6-2.7-7.9-.7-.7.6-1.2,1.4-1.5,2.2l-104.6,33.2,13.5-37.4,20.5,4.3c.2,0,.4,0,.6-.1.2-.1.2-.3.2-.5l-2-71.9c0-.2,0-.3-.2-.4,0,0-.2-.2-.3-.2-.3,0-.6,0-.7.3l-30.4,44.1c-.8-.3-1.7-.2-2.3.4-.3.2-.5.5-.6.8l-55.9-10.8,6.1-59.7,26.4,23.6c.2.2.6.2.8,0,.3-.2.4-.5.3-.8l-19.6-61.6c1-.4,1.9-.9,2.8-1.6,4.2-3.6,4.7-9.9,1.2-14.1-.3-.3-.6-.6-1-.9l19.6-24.9ZM750.5,1000.7c-.8,3.1-.2,6.4,2,9,1.6,1.9,3.7,3,5.9,3.3l-3.6,35.4-83.5-74.8,79.2,27.1Z"/>
          <path class="cls-6" d="M801.8,1058.1c1.3,1.5,3.6,1.7,5.1.4,1.5-1.3,1.7-3.6.4-5.1-1.3-1.5-3.6-1.7-5.1-.4-1.5,1.3-1.7,3.6-.4,5.1Z"/>
          <path class="cls-6" d="M973.8,1152.4c3.3,3.9,9.1,4.4,13,1.1,3.9-3.3,4.4-9.1,1.1-13-3.3-3.9-9.1-4.4-13-1.1s-4.4,9.1-1.1,13Z"/>
          <path class="cls-6" d="M872.4,998.3c1.6,1.9,4.4,2.1,6.3.5,1.9-1.6,2.1-4.4.5-6.3-1.6-1.9-4.4-2.1-6.3-.5-1.9,1.6-2.1,4.4-.5,6.3Z"/>
          <path class="cls-6" d="M1018.8,969.6c-1.3-1.5-3.6-1.7-5.1-.4s-1.7,3.6-.4,5.1c1.3,1.5,3.6,1.7,5.1.4,1.5-1.3,1.7-3.6.4-5.1Z"/>
          <path class="cls-6" d="M1081.4,999.7c1.2,1.4,3.2,1.5,4.6.4,1.4-1.2,1.5-3.2.4-4.6-1.2-1.4-3.2-1.5-4.6-.4-1.4,1.2-1.5,3.2-.4,4.6Z"/>
          <path class="cls-6" d="M1063.1,936.9c-2.6-3-7.1-3.4-10.1-.8s-3.4,7.1-.8,10.1c2.6,3,7.1,3.4,10.1.8,3-2.6,3.4-7.1.8-10.1Z"/>
          <path class="cls-6" d="M778.7,1160.9c-1.7-2-4.7-2.3-6.7-.6-2,1.7-2.3,4.7-.6,6.7,1.7,2,4.7,2.3,6.7.6,2-1.7,2.3-4.7.6-6.7Z"/>
        </g>
      </g>
    </g>
  </g>
  <text class="cls-8" transform="translate(455.8 1038)"><tspan x="0" y="0">ask.iitis.pl</tspan></text>
</svg>