<?xml version="1.0" encoding="UTF-8"?>
<svg id="Warstwa_1" data-name="Warstwa 1" xmlns="http://www.w3.org/2000/svg" version="1.1" xmlns:xlink="http://www.w3.org/1999/xlink" viewBox="0 0 1080 1920">
  <defs>
    <style>
      .cls-1, .cls-2, .cls-3, .cls-4, .cls-5, .cls-6, .cls-7 {
        stroke-width: 0px;
      }

      .cls-1, .cls-8 {
        fill: #ed7e23;
      }

      .cls-2 {
        opacity: .8;
      }

      .cls-2, .cls-9, .cls-6 {
        fill: #fff;
      }

      .cls-9 {
        font-family: Lato-Bold, Lato;
        font-size: 40px;
      }

      .cls-9, .cls-10 {
        font-weight: 700;
      }

      .cls-3 {
        fill: none;
      }

      .cls-4 {
        fill: #f07c00;
      }

      .cls-11 {
        clip-path: url(#clippath-1);
      }

      .cls-12 {
        opacity: .3;
      }

      .cls-13 {
        clip-path: url(#clippath);
      }

      .cls-10 {
        fill: #242f44;
        font-family: Roboto-Bold, Roboto;
        font-size: 76px;
      }

      .cls-5 {
        fill: #9c9e9f;
      }

      .cls-7 {
        fill: #f07c00;
      }
    </style>
    <clipPath id="clippath">
      <polygon class="cls-3" points="1055.1 -20.5 487.1 -20.5 447.9 58.3 -61.9 1082 314 1861.9 474.6 2195 1081 2195 1081 -20.5 1055.1 -20.5"/>
    </clipPath>
    <clipPath id="clippath-1">
      <polygon class="cls-1" points="1 1718.7 40.5 1831.6 1031.5 1799.4 1084 1922.2 1 1922.2 1 1718.7"/>
    </clipPath>
  </defs>
  <g>
    <g class="cls-13">
      <image width="5943" height="3962" transform="translate(-1047.6 -21.9) scale(.5)" xlink:href="D:\akademia logo\happy-woman-sitting-classroom-looking-up.jpg"/>
    </g>
    <polygon class="cls-2" points="482.3 -13.9 434.2 82.2 -70.2 1090.3 338.5 1934 1081 1933.7 1081 -18.5 482.3 -13.9"/>
  </g>
  <g>
    <g>
      <path class="cls-5" d="M273.7,173.4c0,5.4-3.8,9.8-8.5,9.8s-3.1-.5-4.4-1.4l-.5.3s0,0,0,0l-52.1,33.2-49.1-31.3h0s-4.5-2.8-4.5-2.8c-1.3.9-2.8,1.4-4.4,1.4-4.7,0-8.5-4.4-8.5-9.8h0c0-5.4,3.8-9.8,8.5-9.8s8.4,4.3,8.5,9.6l49.6,31.6,48.6-30.9c0-5.3,3.8-9.7,8.5-9.7s8.5,4.4,8.5,9.8Z"/>
      <polygon class="cls-7" points="208.2 182 141.6 139.7 141.6 150.7 208.2 193.1 273.7 151.3 273.7 140.3 208.2 182"/>
      <polygon class="cls-4" points="208.2 226.5 141.6 184 141.6 195 208.2 237.5 273.7 195.7 273.7 184.7 208.2 226.5"/>
      <path class="cls-4" d="M269.2,131.6c2.6,0,4.7-2,4.7-4.6s-2.1-4.6-4.7-4.6-4.7,2-4.7,4.6,2.1,4.6,4.7,4.6Z"/>
      <path class="cls-4" d="M269.2,113.1c1.3,0,2.4-1,2.4-2.3s-1.1-2.3-2.4-2.3-2.4,1-2.4,2.3,1.1,2.3,2.4,2.3Z"/>
      <g>
        <path class="cls-4" d="M237,117.5c1.3,0,2.4-1,2.4-2.3s-1.1-2.3-2.4-2.3-2.4,1-2.4,2.3,1.1,2.3,2.4,2.3Z"/>
        <path class="cls-4" d="M237,104.1c1.3,0,2.4-1,2.4-2.3s-1.1-2.3-2.4-2.3-2.4,1-2.4,2.3,1.1,2.3,2.4,2.3Z"/>
        <path class="cls-4" d="M237,131.6c1.3,0,2.4-1,2.4-2.3s-1.1-2.3-2.4-2.3-2.4,1-2.4,2.3,1.1,2.3,2.4,2.3Z"/>
        <path class="cls-4" d="M237,150c2.6,0,4.7-2,4.7-4.6s-2.1-4.6-4.7-4.6-4.7,2-4.7,4.6,2.1,4.6,4.7,4.6Z"/>
      </g>
      <path class="cls-4" d="M146.3,131.4c2.6,0,4.7-2,4.7-4.6s-2.1-4.6-4.7-4.6-4.7,2-4.7,4.6,2.1,4.6,4.7,4.6Z"/>
      <path class="cls-4" d="M146.3,112.9c1.3,0,2.4-1,2.4-2.3s-1.1-2.3-2.4-2.3-2.4,1-2.4,2.3,1.1,2.3,2.4,2.3Z"/>
      <g>
        <path class="cls-4" d="M208.1,106.6c1.3,0,2.4-1,2.4-2.3s-1.1-2.3-2.4-2.3-2.4,1-2.4,2.3,1.1,2.3,2.4,2.3Z"/>
        <path class="cls-4" d="M208.1,122.2c1.3,0,2.4-1,2.4-2.3s-1.1-2.3-2.4-2.3-2.4,1-2.4,2.3,1.1,2.3,2.4,2.3Z"/>
        <path class="cls-4" d="M208.1,91.1c1.3,0,2.4-1,2.4-2.3s-1.1-2.3-2.4-2.3-2.4,1-2.4,2.3,1.1,2.3,2.4,2.3Z"/>
        <path class="cls-4" d="M208.1,140.6c2.6,0,4.7-2,4.7-4.6s-2.1-4.6-4.7-4.6-4.7,2-4.7,4.6,2.1,4.6,4.7,4.6Z"/>
        <path class="cls-4" d="M208.1,163.7c3.2,0,5.8-2.5,5.8-5.7s-2.6-5.7-5.8-5.7-5.8,2.5-5.8,5.7,2.6,5.7,5.8,5.7Z"/>
      </g>
      <path class="cls-4" d="M176.5,150c2.6,0,4.7-2,4.7-4.6s-2.1-4.6-4.7-4.6-4.7,2-4.7,4.6,2.1,4.6,4.7,4.6Z"/>
      <path class="cls-4" d="M176.5,131.6c1.3,0,2.4-1,2.4-2.3s-1.1-2.3-2.4-2.3-2.4,1-2.4,2.3,1.1,2.3,2.4,2.3Z"/>
      <path class="cls-4" d="M176.5,117.5c1.3,0,2.4-1,2.4-2.3s-1.1-2.3-2.4-2.3-2.4,1-2.4,2.3,1.1,2.3,2.4,2.3Z"/>
      <path class="cls-4" d="M176.5,104.1c1.3,0,2.4-1,2.4-2.3s-1.1-2.3-2.4-2.3-2.4,1-2.4,2.3,1.1,2.3,2.4,2.3Z"/>
    </g>
    <path class="cls-5" d="M354.8,147.2h-7.5c-.9,0-1.6-.2-2.1-.6-.5-.4-.9-.9-1.2-1.5l-3.1-9.7h-18.2l-3.1,9.7c-.2.5-.6,1-1.1,1.5-.6.5-1.2.7-2.1.7h-7.6l18-49.3h10l18,49.3ZM325,128.5h13.7l-5-15.6c-.3-.8-.6-1.7-.9-2.7-.3-1-.6-2.1-1-3.4-.3,1.2-.6,2.3-.9,3.4-.3,1-.6,1.9-.9,2.7l-5,15.6Z"/>
    <path class="cls-5" d="M367.1,118.3h1.6c1.5,0,2.5-.5,3.2-1.5l9.7-17c.5-.7,1.1-1.3,1.8-1.6.7-.3,1.5-.4,2.4-.4h8.5l-12.7,20.3c-.9,1.3-1.9,2.2-2.9,2.8.7.3,1.4.7,2,1.2.6.5,1.2,1.2,1.7,2l12.9,23.1h-8.7c-1.1,0-1.9-.2-2.4-.5-.5-.3-1-.8-1.4-1.3l-9.8-18c-.4-.6-.8-1-1.3-1.3-.5-.3-1.2-.4-2.1-.4h-2.4v21.5h-9.8v-49.3h9.8v20.5Z"/>
    <path class="cls-5" d="M442.2,147.2h-7.5c-.9,0-1.6-.2-2.1-.6-.5-.4-.9-.9-1.2-1.5l-3.1-9.7h-18.2l-3.1,9.7c-.2.5-.6,1-1.1,1.5-.6.5-1.2.7-2.1.7h-7.6l18-49.3h10l18,49.3ZM412.3,128.5h13.7l-5-15.6c-.3-.8-.6-1.7-.9-2.7-.3-1-.6-2.1-1-3.4-.3,1.2-.6,2.3-.9,3.4-.3,1-.6,1.9-.9,2.7l-5,15.6Z"/>
    <path class="cls-5" d="M486.9,122.5c0,3.6-.6,6.9-1.7,10-1.1,3-2.8,5.6-4.8,7.8-2.1,2.2-4.6,3.9-7.6,5.1-2.9,1.2-6.2,1.8-9.8,1.8h-18v-49.3h18c3.6,0,6.9.6,9.8,1.8,2.9,1.2,5.5,2.9,7.6,5.1,2.1,2.2,3.7,4.8,4.8,7.8,1.1,3,1.7,6.3,1.7,9.9ZM477,122.5c0-2.6-.3-5-1-7.1-.6-2.1-1.6-3.9-2.8-5.3-1.2-1.5-2.7-2.6-4.4-3.4-1.7-.8-3.7-1.2-5.9-1.2h-8.2v33.9h8.2c2.2,0,4.1-.4,5.9-1.2,1.7-.8,3.2-1.9,4.4-3.3,1.2-1.5,2.1-3.2,2.8-5.3.6-2.1,1-4.5,1-7.1Z"/>
    <path class="cls-5" d="M522.2,97.9v7.8h-20.3v13h15.8v7.5h-15.8v13.3h20.3v7.8h-30.1v-49.3h30.1Z"/>
    <path class="cls-5" d="M556.6,131c.3-.9.7-1.7,1-2.5.3-.8.7-1.6,1.2-2.4l15.2-26.7c.2-.4.4-.7.6-.9.2-.2.4-.4.7-.4.2,0,.5-.1.9-.2.3,0,.7,0,1.1,0h7.4v49.3h-8.6v-30.9c0-.7,0-1.4,0-2.2s0-1.6.2-2.4l-15.6,27.6c-.8,1.4-1.9,2.2-3.4,2.2h-1.4c-1.5,0-2.7-.7-3.4-2.2l-15.8-27.7c0,.8.2,1.7.2,2.5,0,.8,0,1.6,0,2.2v30.9h-8.6v-49.3h7.4c.4,0,.8,0,1.1,0,.3,0,.6,0,.9.2.3,0,.5.2.7.4.2.2.4.5.6.9l15.3,26.8c.8,1.6,1.6,3.2,2.2,4.9Z"/>
    <path class="cls-5" d="M603.1,147.2h-9.8v-49.3h9.8v49.3Z"/>
    <path class="cls-5" d="M652.3,147.2h-7.5c-.9,0-1.6-.2-2.1-.6-.5-.4-.9-.9-1.2-1.5l-3.1-9.7h-18.2l-3.1,9.7c-.2.5-.6,1-1.1,1.5-.6.5-1.2.7-2.1.7h-7.6l18-49.3h10l18,49.3ZM622.5,128.5h13.7l-5-15.6c-.3-.8-.6-1.7-.9-2.7-.3-1-.6-2.1-1-3.4-.3,1.2-.6,2.3-.9,3.4-.3,1-.6,1.9-.9,2.7l-5,15.6Z"/>
    <g>
      <path class="cls-5" d="M336.7,182.5c-.4.7-.9,1-1.5,1s-.8-.2-1.3-.6c-.5-.4-1.1-.8-1.9-1.3-.7-.5-1.6-.9-2.6-1.3-1-.4-2.3-.6-3.7-.6s-2.6.2-3.6.6c-1,.4-1.9.9-2.6,1.6-.7.7-1.2,1.5-1.5,2.4-.3.9-.5,1.9-.5,2.9s.3,2.5.9,3.4c.6.9,1.5,1.7,2.5,2.3,1,.6,2.2,1.2,3.5,1.7,1.3.5,2.7,1,4,1.4,1.4.5,2.7,1.1,4,1.7,1.3.6,2.5,1.4,3.5,2.4,1,1,1.9,2.1,2.5,3.5.6,1.4.9,3.1.9,5.1s-.3,4.2-1,6c-.7,1.9-1.7,3.5-3,4.9-1.3,1.4-3,2.5-4.9,3.3-1.9.8-4.1,1.2-6.6,1.2s-5.8-.6-8.3-1.7c-2.5-1.2-4.7-2.7-6.4-4.7l2-3.2c.2-.3.4-.5.7-.6.3-.2.6-.2.9-.2s1,.3,1.6.8c.6.5,1.3,1.1,2.2,1.7.9.6,1.9,1.2,3.1,1.7,1.2.5,2.7.8,4.4.8s2.7-.2,3.8-.6c1.1-.4,2.1-1,2.8-1.8.8-.8,1.4-1.7,1.8-2.8.4-1.1.6-2.3.6-3.6s-.3-2.7-.9-3.6c-.6-.9-1.5-1.7-2.5-2.4-1-.6-2.2-1.2-3.5-1.6-1.3-.4-2.7-.9-4-1.4-1.4-.5-2.7-1-4-1.6-1.3-.6-2.5-1.4-3.5-2.4-1-1-1.9-2.2-2.5-3.7-.6-1.5-.9-3.3-.9-5.5s.3-3.4,1-5c.6-1.6,1.6-3.1,2.8-4.3,1.2-1.3,2.7-2.3,4.5-3,1.8-.8,3.9-1.1,6.2-1.1s5,.4,7.2,1.3c2.2.9,4,2.1,5.6,3.8l-1.7,3.2Z"/>
      <path class="cls-5" d="M373.8,174.8v2.5c0,.8-.2,1.5-.7,2.2l-22.9,38.6h23.1v5.5h-31.3v-2.6c0-.4,0-.7.2-1,.1-.3.3-.6.5-.9l22.8-38.7h-22.2v-5.5h30.5Z"/>
      <path class="cls-5" d="M412.1,174.8v5.6h-14.2v43.2h-6.8v-43.2h-14.3v-5.6h35.3Z"/>
      <path class="cls-5" d="M435.8,218.2c2,0,3.7-.3,5.3-1,1.5-.7,2.9-1.6,3.9-2.9,1.1-1.2,1.9-2.7,2.4-4.4.6-1.7.8-3.5.8-5.6v-29.7h6.8v29.7c0,2.8-.4,5.4-1.3,7.8-.9,2.4-2.2,4.5-3.8,6.2-1.6,1.8-3.7,3.1-6,4.1-2.4,1-5.1,1.5-8,1.5s-5.6-.5-8-1.5c-2.4-1-4.4-2.4-6-4.1-1.7-1.8-2.9-3.8-3.8-6.2-.9-2.4-1.3-5-1.3-7.8v-29.7h6.8v29.6c0,2,.3,3.9.8,5.6.6,1.7,1.4,3.2,2.4,4.4,1.1,1.2,2.4,2.2,3.9,2.9,1.5.7,3.3,1,5.3,1Z"/>
      <path class="cls-5" d="M470.4,196.1h1.9c.7,0,1.3-.1,1.8-.3.5-.2.9-.6,1.2-1.1l12.6-18.4c.4-.6.9-1,1.4-1.2.5-.2,1.1-.4,1.8-.4h5.8l-14.9,21c-.8,1.1-1.6,1.8-2.5,2.3,1.1.4,2.2,1.2,3.1,2.4l15.3,23.2h-5.9c-.8,0-1.4-.1-1.8-.4-.4-.3-.7-.6-1.1-1l-12.9-19.3c-.4-.6-.8-1-1.3-1.2-.5-.2-1.1-.4-2.1-.4h-2.5v22.3h-6.8v-48.8h6.8v21.3Z"/>
      <path class="cls-5" d="M509.5,223.6h-6.8v-48.8h6.8v48.8Z"/>
      <path class="cls-5" d="M544.3,196.1h1.9c.7,0,1.3-.1,1.8-.3.5-.2.9-.6,1.2-1.1l12.6-18.4c.4-.6.9-1,1.4-1.2.5-.2,1.1-.4,1.8-.4h5.8l-14.9,21c-.8,1.1-1.6,1.8-2.5,2.3,1.1.4,2.2,1.2,3.1,2.4l15.3,23.2h-5.9c-.8,0-1.4-.1-1.8-.4-.4-.3-.7-.6-1.1-1l-12.9-19.3c-.4-.6-.8-1-1.3-1.2-.5-.2-1.1-.4-2.1-.4h-2.5v22.3h-6.8v-48.8h6.8v21.3Z"/>
      <path class="cls-5" d="M573.6,174.8h5.7c.6,0,1.1.1,1.5.4.4.3.7.7.8,1.1l9.5,33.7c.3,1.2.7,2.6,1,4.2.1-.8.3-1.5.5-2.2.2-.7.4-1.4.6-2l10.9-33.6c.1-.4.4-.8.8-1.1.4-.3.9-.5,1.5-.5h2c.6,0,1.1.1,1.5.4.4.3.6.7.8,1.1l10.9,33.7c.2.6.4,1.2.6,1.9.2.7.3,1.4.5,2.1.1-.7.3-1.5.4-2.2.1-.7.3-1.3.5-1.9l9.4-33.7c.1-.4.4-.8.8-1.1.4-.3.9-.5,1.5-.5h5.3l-14.8,48.8h-6.1l-11.7-37c-.1-.3-.2-.7-.4-1.1-.1-.4-.2-.8-.4-1.3,0,.5-.2.9-.3,1.3-.1.4-.2.8-.4,1.1l-11.8,37h-6.1l-14.8-48.8Z"/>
      <path class="cls-5" d="M679.7,223.6h-5.2c-.6,0-1.1-.1-1.4-.4-.4-.3-.6-.7-.8-1.1l-4.2-11.7h-20.1l-4.1,11.7c-.1.4-.4.8-.8,1.1-.4.3-.9.5-1.5.5h-5.2l18.3-48.8h6.9l18.3,48.8ZM649.6,205.5h16.7l-6.9-19.7c-.2-.6-.5-1.3-.7-2.1-.2-.8-.5-1.6-.7-2.6-.2.9-.5,1.8-.7,2.6-.2.8-.5,1.5-.7,2.1l-6.9,19.6Z"/>
      <path class="cls-5" d="M688.9,175c.3.1.6.5,1,.9l26.5,36.5c0-.6,0-1.2-.1-1.8,0-.6,0-1.1,0-1.6v-34.3h5.9v48.8h-3.4c-.5,0-1,0-1.3-.3-.4-.2-.7-.5-1.1-.9l-26.5-36.4c0,.6,0,1.1.1,1.6,0,.5,0,1,0,1.5v34.5h-5.9v-48.8h3.5c.6,0,1,0,1.3.2Z"/>
      <path class="cls-5" d="M762.1,174.8v5.6h-14.2v43.2h-6.8v-43.2h-14.3v-5.6h35.3Z"/>
      <path class="cls-5" d="M807.3,199.2c0,3.7-.5,7-1.6,10.1-1.1,3-2.6,5.7-4.6,7.9-2,2.2-4.3,3.9-7.1,5.1-2.8,1.2-5.8,1.8-9.2,1.8s-6.4-.6-9.2-1.8c-2.8-1.2-5.2-2.9-7.1-5.1-2-2.2-3.5-4.8-4.6-7.9-1.1-3-1.6-6.4-1.6-10.1s.5-7,1.6-10.1c1.1-3.1,2.6-5.7,4.6-7.9,2-2.2,4.4-3.9,7.1-5.2,2.8-1.2,5.8-1.8,9.2-1.8s6.4.6,9.2,1.8c2.8,1.2,5.1,2.9,7.1,5.2,2,2.2,3.5,4.9,4.6,7.9,1.1,3.1,1.6,6.4,1.6,10.1ZM800.4,199.2c0-3-.4-5.6-1.1-8-.7-2.4-1.8-4.4-3.1-6-1.4-1.6-3-2.9-4.9-3.8-1.9-.9-4.1-1.3-6.4-1.3s-4.5.4-6.4,1.3c-1.9.9-3.6,2.1-4.9,3.8-1.4,1.6-2.4,3.7-3.1,6-.7,2.4-1.1,5-1.1,8s.4,5.6,1.1,8c.7,2.4,1.8,4.4,3.1,6,1.4,1.6,3,2.9,4.9,3.8,1.9.9,4.1,1.3,6.4,1.3s4.5-.4,6.4-1.3c1.9-.9,3.6-2.1,4.9-3.8,1.3-1.6,2.4-3.7,3.1-6,.7-2.4,1.1-5,1.1-8Z"/>
      <path class="cls-5" d="M807.4,174.8h5.7c.6,0,1.1.1,1.5.4.4.3.7.7.8,1.1l9.5,33.7c.3,1.2.7,2.6,1,4.2.1-.8.3-1.5.5-2.2s.4-1.4.6-2l10.9-33.6c.1-.4.4-.8.8-1.1.4-.3.9-.5,1.5-.5h2c.6,0,1.1.1,1.5.4.4.3.6.7.8,1.1l10.9,33.7c.2.6.4,1.2.6,1.9.2.7.3,1.4.5,2.1.1-.7.3-1.5.4-2.2.1-.7.3-1.3.5-1.9l9.4-33.7c.1-.4.4-.8.8-1.1.4-.3.9-.5,1.5-.5h5.3l-14.8,48.8h-6.1l-11.7-37c-.1-.3-.2-.7-.4-1.1-.1-.4-.2-.8-.4-1.3,0,.5-.2.9-.3,1.3-.1.4-.2.8-.4,1.1l-11.8,37h-6.1l-14.8-48.8Z"/>
      <path class="cls-5" d="M907.1,174.8v5.5h-21.7v16h17.5v5.3h-17.5v16.5h21.8v5.5h-28.6v-48.8h28.5Z"/>
      <path class="cls-5" d="M929.7,206.7c0,2.7-.3,5.2-.8,7.3-.5,2.2-1.4,4-2.5,5.5-1.1,1.5-2.4,2.6-4.1,3.4-1.6.8-3.5,1.2-5.6,1.2s-1.9,0-2.9-.2c-.9-.1-1.9-.4-3-.7,0-.7.1-1.4.2-2,0-.7.1-1.3.2-2,0-.4.2-.7.4-.9.2-.2.6-.4,1.1-.4s.7,0,1.2.3c.5.2,1.2.3,2,.3,2.2,0,3.9-.9,5.1-2.7,1.2-1.8,1.7-4.8,1.7-8.9v-32.1h6.8v31.9Z"/>
    </g>
  </g>
  <text class="cls-10" transform="translate(191.1 882.4)"><tspan x="0" y="0">Szkolenia z obliczeń </tspan><tspan x="136.8" y="100">kwantowych </tspan><tspan x="-83.4" y="200">i SI kreujące innowacyjne </tspan><tspan x="101.2" y="300">społeczeństwo</tspan></text>
  <g>
    <polygon class="cls-5" points="1 1718.7 51.8 1799.4 1031.5 1799.4 1084 1922.2 1 1922.2 1 1718.7"/>
    <g>
      <polygon class="cls-8" points="1 1718.7 40.5 1831.6 1031.5 1799.4 1084 1922.2 1 1922.2 1 1718.7"/>
      <g class="cls-11">
        <g class="cls-12">
          <path class="cls-6" d="M-251.2,1671.4c-.2.3-.1.6.1.8l86.8,77.8-6.2,60.6-21.2-4.1c-.3,0-.5,0-.7.3l-35.4,45.9c-2.3-1.4-5.2-1.3-7.3.5-2.7,2.2-3,6.2-.7,8.9,2.2,2.7,6.2,3,8.9.7.7-.6,1.2-1.2,1.5-1.9l47.9,18.4-2.6,25.2c0,.2,0,.4.2.6.2.1.4.2.6.1l37.9-12,22.2,8.5c.2,0,.4,0,.5,0,.2,0,.3-.2.4-.4l6.3-17.4,104.8-33.2c0,.7,0,1.4.2,2.1l-70,82.7s0,0,0,0c0,0,0,.2-.1.3,0,0,0,0,0,0,0,0,0,0,0,0,0,.1,0,.2,0,.3,0,0,0,0,0,0,0,0,0,0,.1.1,0,0,0,.1.1.1h0s0,0,0,0l38.4,30c.2.1.4.2.6.1s.4-.2.5-.4l9.8-22.5c1.2.3,2.5,0,3.6-.8.7-.6,1.1-1.3,1.3-2.1l49.7,3.8c.2,0,.4,0,.6-.3.1-.2.2-.4.1-.6L.7,1856.5c.5-.2.9-.5,1.4-.8,1.3-1.1,2-2.7,2-4.3l66.9,21.5-18.4,26.3c-.1.2-.2.4,0,.6,0,.2.3.4.5.4l90.1,22.8s0,0,0,0c0,0,.2,0,.3,0,0,0,.1,0,.2,0,0,0,0,0,0,0,0,0,0,0,0,0,0,0,0,0,.1,0l46.1-72.8c3.6,1.9,8.1,1.6,11.4-1.2,4.3-3.6,4.8-10,1.2-14.3-3.6-4.3-10-4.8-14.3-1.2-1.7,1.4-2.7,3.2-3.2,5.2l-32.5-6.2,23.9-34.5,40.7,2.1c.2,0,.4,0,.5-.2.1-.1.2-.3.2-.5l-1.8-67.5c0-.2,0-.3-.2-.4,0,0-.1-.1-.2-.2-.2-.1-.5,0-.7,0l-28.5,23.5-4.2-39,76-24.9c.4,1.1,1,2.2,1.8,3.1,4,4.7,11.1,5.3,15.9,1.3,4.7-4,5.3-11.1,1.3-15.9-4-4.7-11.1-5.3-15.9-1.3-.7.6-1.3,1.2-1.8,1.9l-87.6-56.9s-.1,0-.2,0c0,0,0,0-.2,0l-58.4-4.8,54.5-68.2c.2-.2.2-.6,0-.8,0,0,0,0,0,0-.2-.2-.4-.3-.7-.2l-77.5,23.1,13.5-18.1c2.7,1.7,6.4,1.5,8.9-.6,3.2-2.7,3.6-7.6.9-10.8-2.7-3.2-7.6-3.6-10.8-.9-2.2,1.9-3.1,4.7-2.5,7.4L.6,1578l-13.5-24.9s0,0,0-.1c-.2-.2-.4-.3-.7-.2l-47.9,11.1c-.3,0-.5.3-.5.6,0,.3.2.6.4.7l48,17.1-61.9,18.4c-.2-.4-.4-.7-.7-1.1-1.7-2-4.7-2.2-6.7-.6-2,1.7-2.2,4.7-.6,6.7,0,0,.1.1.2.2l-32.6,41.5-32.9-3.5c-.3,0-.5,0-.6.3-.1.2-.1.5,0,.7l16,24.8-19.9,25.3c-3.6-2.5-8.6-2.4-12.1.6-1.2,1.1-2.1,2.4-2.7,3.8l-82.4-28.2c-.3-.1-.6,0-.8.3ZM-159.1,1713.1c.9,0,1.8,0,2.7-.3l18.8,59.3-25.3-22.7,3.7-36.4ZM-224.9,1859.7c.5-1.9.1-4.1-1.3-5.7-.1-.2-.3-.3-.5-.5l35.1-45.6,20.9,4-6.8,66-47.5-18.3ZM-178.6,1903.7l2.4-23.8,32.8,12.6-35.3,11.2ZM-141.3,1891.9l-34.8-13.4,6.8-66.3,55.9,10.8c0,.5.2.9.5,1.3l-10,14.5c-.1.2-.2.4,0,.6,0,.2.3.4.5.4l23.2,4.9-13.8,38.2-28.3,9ZM-108.8,1823.9l16,3.1-5.9,16.5-22.4-4.7,9.4-13.7c.8.3,1.7.2,2.3-.4.3-.2.5-.5.6-.8ZM-91.3,1826.7c0-.2,0-.4,0-.6,0,0,0,0,0-.1,0-.1-.2-.2-.4-.2l-16.8-3.2c0-.5-.2-.9-.5-1.3l29.3-42.4,1.9,69-19.5-4.1,6.1-17ZM-119.3,1900.4l-20-7.7,25.7-8.1-5.7,15.8ZM-30.6,1938.9l-42.8-3.3,57.6-22.5-9.9,22.8c-1.2-.3-2.5,0-3.6.8-.7.6-1.1,1.3-1.3,2.1ZM-38.3,1965l-36-28.1,43.6,3.4c0,.8.4,1.6.9,2.2.3.3.6.5.9.8l-9.4,21.7ZM-.6,1856.9l26.6,86.4-48.7-3.8c0-.8-.4-1.6-.9-2.2-.3-.3-.6-.5-.9-.8l10.6-24.3c.1-.2,0-.5-.1-.7,0,0,0,0,0,0-.2-.2-.5-.3-.7-.2l-59.4,23.2,67.8-80.2c.2.3.3.5.5.7,1.3,1.6,3.4,2.2,5.3,1.9ZM54.2,1899.1l18.1-25.8,38.6,12.4c0,.9.1,1.8.8,2.5,1,1.2,2.7,1.5,4.1.8l25.7,32.2-87.2-22.1ZM186.9,1847.5c.5.6,1.1,1.1,1.8,1.6l-45.6,72-26.3-33c.7-.9,1-2.1.7-3.1l68.7-38.6c.2.4.4.7.7,1ZM184.6,1839.7c-.2,1.9,0,3.8.9,5.6l-68.7,38.6s0,0-.1-.1l34.8-50.3,33.1,6.3ZM115.6,1883c-1.1-.5-2.5-.4-3.5.5-.3.3-.5.6-.7.9l-38.2-12.3,33.2-47.4,43.8,8.4-34.5,49.8ZM214.6,1732.9l1.7,65.4-39.1-2,9.7-14c1.2.5,2.7.4,3.8-.5,1.5-1.3,1.7-3.6.4-5.1-.6-.8-1.5-1.2-2.5-1.3l-2.1-19.4,28.1-23.2ZM185.2,1757.1l2,18.6c-.5.1-.9.4-1.3.7-1.5,1.3-1.7,3.6-.4,5.1,0,0,.1,0,.2.2l-10.2,14.7-35.7-1.8,45.4-37.4ZM185,1755.5l-46.8,38.5-27.1-50.9c.1,0,.2-.1.4-.2,1.5-1.2,2-3.1,1.7-4.9l67.5-22.1,4.3,39.6ZM137.1,1794.6l-50.5,12.7,20.7-63.3c.9.2,1.9,0,2.7-.2l27,50.9ZM258.7,1680.9c-1.4,2.6-1.8,5.6-1.1,8.4l-75.7,24.8-9.6-89.3,86.4,56.1ZM180.6,1714.5l-67.7,22.2c-.2-.4-.4-.8-.7-1.1-.3-.3-.6-.6-.9-.8l59.7-109.1,9.6,88.9ZM94.4,1639.3l-17.1-22.9,33.2,2.7-16.1,20.2ZM165.2,1550.5l-53.7,67.2-35.3-2.9-9.5-12.8,21.3-28.6,77.1-23ZM-.7,1785.5l20.5,45.4-52.4-19.5,20.8-28.4,11.1,2.5ZM-10.9,1781.9l5.3-7.3,4.2,9.4-9.6-2.1ZM.3,1784.4l-5.1-11.3c0,0,0-.1,0-.2-.1-.1-.3-.2-.4-.2-.2,0-.5,0-.6.3l-6.4,8.7-44.2-9.8c0-.5,0-1-.2-1.4l64.3-32.8,8.4,17.1c-.6.4-1.3.8-1.8,1.3-5,4.2-5.6,11.6-1.4,16.6,4.2,5,11.6,5.6,16.6,1.4,5-4.2,5.6-11.6,1.4-16.6-.7-.8-1.4-1.4-2.2-2l24.6-39.2c.2,0,.3.1.5.1l-1.6,79.5-51.7-11.4ZM-57.3,1769.2c0,0,0-.1-.1-.2,0,0-.1-.1-.2-.2l48.6-65.2,16,32.7-64.3,32.8ZM27.3,1754.6c-3.1-1.7-6.9-1.9-10.2-.5l-8.4-17.2,42.8-21.9s0,0,0,.1c0,.1.2.2.3.2l-24.6,39.2ZM8.2,1735.7l-16.3-33.3,11.3-15.2,47.8,24.7c-.2.6-.2,1.3,0,1.9l-42.8,21.8ZM-8.8,1701l-13.1-26.7,23.8,12.3-10.8,14.4ZM-23,1672.2c-.3-.1-.6,0-.8.1-.2.2-.3.5-.1.8l14.2,29.2-49,65.7c-.5-.3-1.1-.4-1.6-.4l-18.3-160.4c.7-.2,1.3-.5,1.9-1,.8-.7,1.3-1.6,1.5-2.6l50.9,4.2-19.2,35.2c-.1.2-.1.5,0,.7.2.2.4.3.7.3l46.9-6.7c.2,0,.4-.2.5-.3.1-.2.1-.4,0-.6l-12-27.1,58.4,4.8c0,1.4.5,2.8,1.5,3.9.1.1.3.3.4.4l-50,67.1-25.8-13.3ZM-22.2,1606.7l6.7-12.3,5.9,13.3-12.6-1ZM-9,1609.2l12,27-44.7,6.3,18.8-34.5,13.9,1.2ZM62.1,1609.9c-.2-.2-.4-.4-.7-.6l4.5-6,8.6,11.5-10.9-.9c0-1.4-.5-2.8-1.5-3.9ZM65.9,1600.9l-12.7-17.1,32.7-9.7-20,26.8ZM0,1579.6l4,7.4-13.2-4.7,9.2-2.7ZM-58.9,1564.7l45.1-10.4,13.1,24.2-10.7,3.2-47.5-16.9ZM-11.4,1583l16.6,5.9c.3,0,.6,0,.7-.2.2-.2.2-.5,0-.8l-4.7-8.7,98.5-29.3c.3.8.7,1.5,1.2,2.1.2.3.5.5.8.7l-14.6,19.5-35.3,10.5c-.2,0-.4.2-.4.4,0,.2,0,.4.1.6l13.5,18.2-4.8,6.4c-2.2-1.2-5.1-1-7.1.7-1.1,1-1.8,2.3-2.1,3.6l-59.2-4.9-6.7-15.2c0,0,0-.1-.1-.2-.1-.1-.3-.2-.5-.2-.3,0-.5.1-.6.3l-7.6,14-51.5-4.3c0-.1,0-.3,0-.4l63.7-18.9ZM-147.4,1645.3l30.6,3.3-15.6,19.9-15-23.2ZM-115.2,1648.8l22.8,2.5-11.1,62-28.1-43.5,16.4-20.9ZM-132.5,1670.8l28.8,44.6c.2.2.4.3.7.3.3,0,.5-.3.5-.5l11.6-64.4c0-.2,0-.4-.1-.5,0,0,0,0,0,0-.1-.1-.3-.2-.4-.2l-22.7-2.5,32.1-40.9c.7.4,1.4.6,2.2.6l18.3,160.4c-.5.2-1,.4-1.5.8-1.7,1.4-1.9,4-.5,5.7,1.4,1.7,4,1.9,5.7.5.5-.4.9-1,1.1-1.6l43.6,9.6-21,28.6c-.1.2-.2.4-.1.6,0,.2.2.4.4.4l54.8,20.4c.3,0,.5,0,.7-.2.2-.2.2-.5.1-.7l-20.8-46,51.5,11.4c.2,0,.4,0,.6-.1.2-.1.3-.3.3-.5l1.6-80.3c.6-.1,1.2-.3,1.7-.7,1.5-1.3,1.7-3.5.4-5-1.3-1.5-3.5-1.7-5-.4-.2.2-.3.4-.4.5l-47.6-24.6,49.9-66.9c2.3,1.4,5.3,1.3,7.4-.5,1.1-1,1.8-2.3,2.1-3.6l12.1,1,18.3,24.6c0,.2.3.3.5.3.2,0,.4,0,.5-.3l17.2-21.6,58.3,4.8-60.3,110.1c-1.7-.7-3.7-.4-5.2.9-2.2,1.8-2.4,5.1-.6,7.3.5.6,1.1,1,1.7,1.3l-21.1,64.5c0,.2,0,.5.1.7.2.2.4.3.7.2l52.4-13.2,36.5,1.8-23.8,34.3-44.8-8.5c-.3,0-.5,0-.7.3l-33.7,48.1-67.9-21.8c-.2-.8-.6-1.5-1.1-2.1-2-2.4-5.6-2.7-8-.7-.7.6-1.2,1.4-1.5,2.2l-104.6,33.2,13.5-37.4,20.5,4.3c.2,0,.4,0,.6-.1.2-.1.2-.3.2-.5l-2-71.9c0-.2,0-.3-.2-.4,0,0-.2-.2-.3-.2-.3,0-.6,0-.7.3l-30.5,44.2c-.8-.3-1.7-.2-2.3.4-.3.2-.5.5-.6.8l-56-10.8,6.1-59.8,26.4,23.6c.2.2.6.2.8,0,.3-.2.4-.5.3-.8l-19.6-61.7c1-.4,1.9-.9,2.8-1.6,4.2-3.6,4.7-9.9,1.2-14.1-.3-.3-.6-.6-1-.9l19.6-24.9ZM-168.4,1700.6c-.8,3.1-.2,6.4,2,9,1.6,1.9,3.7,3,5.9,3.3l-3.6,35.4-83.6-74.9,79.2,27.1Z"/>
          <path class="cls-6" d="M-117,1758c1.3,1.5,3.6,1.7,5.1.4,1.5-1.3,1.7-3.6.4-5.1-1.3-1.5-3.6-1.7-5.1-.4-1.5,1.3-1.7,3.6-.4,5.1Z"/>
          <path class="cls-6" d="M55.1,1852.4c3.3,3.9,9.1,4.4,13,1.1,3.9-3.3,4.4-9.1,1.1-13-3.3-3.9-9.1-4.4-13-1.1s-4.4,9.1-1.1,13Z"/>
          <path class="cls-6" d="M-46.4,1698.2c1.6,1.9,4.4,2.1,6.3.5,1.9-1.6,2.1-4.4.5-6.3-1.6-1.9-4.4-2.1-6.3-.5-1.9,1.6-2.1,4.4-.5,6.3Z"/>
          <path class="cls-6" d="M100.1,1669.5c-1.3-1.5-3.6-1.7-5.1-.4-1.5,1.3-1.7,3.6-.4,5.1,1.3,1.5,3.6,1.7,5.1.4,1.5-1.3,1.7-3.6.4-5.1Z"/>
          <path class="cls-6" d="M162.7,1699.6c1.2,1.4,3.2,1.5,4.6.4,1.4-1.2,1.5-3.2.4-4.6-1.2-1.4-3.2-1.5-4.6-.4-1.4,1.2-1.5,3.2-.4,4.6Z"/>
          <path class="cls-6" d="M144.4,1636.7c-2.6-3-7.1-3.4-10.2-.8-3,2.6-3.4,7.1-.8,10.2,2.6,3,7.1,3.4,10.2.8,3-2.6,3.4-7.1.8-10.2Z"/>
          <path class="cls-6" d="M-140.2,1860.8c-1.7-2-4.7-2.3-6.7-.6-2,1.7-2.3,4.7-.6,6.7,1.7,2,4.7,2.3,6.7.6,2-1.7,2.3-4.7.6-6.7Z"/>
        </g>
        <g class="cls-12">
          <path class="cls-6" d="M669.7,1810.9c-.2.3-.1.6.1.8l86.8,77.8-6.2,60.6-21.2-4.1c-.3,0-.5,0-.7.3l-35.4,45.9c-2.3-1.4-5.2-1.3-7.3.5-2.7,2.2-3,6.2-.7,8.9,2.2,2.7,6.2,3,8.9.7.7-.6,1.2-1.2,1.5-1.9l47.9,18.4-2.6,25.2c0,.2,0,.5.2.6.2.1.4.2.6.1l37.9-12,22.2,8.5c.2,0,.4,0,.5,0,.2,0,.3-.2.4-.4l6.3-17.4,104.8-33.2c0,.7,0,1.4.2,2.1l-70,82.7s0,0,0,0c0,0,0,.2-.1.3,0,0,0,0,0,0,0,0,0,0,0,0,0,.1,0,.2,0,.3,0,0,0,0,0,0,0,0,0,0,.1.1,0,0,0,.1.1.1h0s0,0,0,0l38.4,30c.2.1.4.2.6.1.2,0,.4-.2.5-.4l9.8-22.5c1.2.3,2.5,0,3.6-.8.7-.6,1.1-1.3,1.3-2.1l49.7,3.8c.2,0,.4,0,.6-.3.1-.2.2-.4.1-.6l-26.9-87.3c.5-.2.9-.5,1.4-.8,1.3-1.1,2-2.7,2-4.3l66.9,21.5-18.4,26.3c-.1.2-.2.4,0,.6,0,.2.3.4.5.4l90.1,22.8s0,0,0,0c0,0,.2,0,.3,0,0,0,.1,0,.2,0,0,0,0,0,0,0,0,0,0,0,0,0,0,0,0,0,.1,0l46.1-72.8c3.6,1.9,8.1,1.6,11.4-1.2,4.3-3.6,4.8-10,1.2-14.3-3.6-4.3-10-4.8-14.3-1.2-1.7,1.4-2.7,3.2-3.2,5.2l-32.5-6.2,23.9-34.5,40.7,2.1c.2,0,.4,0,.5-.2.1-.1.2-.3.2-.5l-1.8-67.5c0-.2,0-.3-.2-.4,0,0-.1-.1-.2-.2-.2-.1-.5,0-.7,0l-28.5,23.5-4.2-39,76-24.9c.4,1.1,1,2.2,1.8,3.2,4,4.7,11.1,5.3,15.9,1.3,4.7-4,5.3-11.1,1.3-15.9-4-4.7-11.1-5.3-15.9-1.3-.7.6-1.3,1.2-1.8,1.9l-87.6-56.9s-.1,0-.2,0c0,0,0,0-.2,0l-58.4-4.8,54.5-68.2c.2-.2.2-.6,0-.8,0,0,0,0,0,0-.2-.2-.4-.3-.7-.2l-77.5,23.1,13.5-18.1c2.7,1.7,6.4,1.5,8.9-.6,3.2-2.7,3.6-7.6.9-10.8-2.7-3.2-7.6-3.6-10.8-.9-2.2,1.9-3.1,4.7-2.5,7.4l-98.8,29.3-13.5-24.9s0,0,0-.1c-.2-.2-.4-.3-.7-.2l-47.9,11.1c-.3,0-.5.3-.5.6,0,.3.2.6.4.7l48,17.1-61.9,18.4c-.2-.4-.4-.7-.7-1.1-1.7-2-4.7-2.2-6.7-.6-2,1.7-2.2,4.7-.6,6.7,0,0,.1.1.2.2l-32.6,41.5-32.9-3.5c-.3,0-.5,0-.6.3-.1.2-.1.5,0,.7l16,24.8-19.9,25.3c-3.6-2.5-8.6-2.4-12.1.6-1.2,1.1-2.1,2.4-2.7,3.8l-82.4-28.2c-.3-.1-.6,0-.8.3ZM761.7,1852.6c.9,0,1.8,0,2.7-.3l18.8,59.3-25.3-22.7,3.7-36.4ZM695.9,1999.2c.5-1.9.1-4.1-1.3-5.7-.1-.2-.3-.3-.5-.5l35.1-45.6,20.9,4-6.8,66-47.5-18.3ZM742.2,2043.3l2.4-23.8,32.8,12.6-35.3,11.2ZM779.5,2031.4l-34.8-13.4,6.8-66.3,55.9,10.8c0,.5.2.9.5,1.3l-10,14.5c-.1.2-.2.4,0,.6,0,.2.3.4.5.4l23.2,4.9-13.8,38.2-28.3,9ZM812,1963.4l16,3.1-5.9,16.5-22.4-4.7,9.4-13.7c.8.3,1.7.2,2.3-.4.3-.2.5-.5.6-.8ZM829.5,1966.2c0-.2,0-.4,0-.6,0,0,0,0,0-.1,0-.1-.2-.2-.4-.2l-16.8-3.2c0-.5-.2-.9-.5-1.3l29.3-42.4,1.9,69-19.5-4.1,6.1-17ZM801.5,2039.9l-20-7.7,25.7-8.1-5.7,15.8ZM890.2,2078.5l-42.8-3.3,57.6-22.5-9.9,22.8c-1.2-.3-2.5,0-3.6.8-.7.6-1.1,1.3-1.3,2.1ZM882.5,2104.5l-36-28.1,43.6,3.4c0,.8.4,1.6.9,2.2.3.3.6.5.9.8l-9.4,21.7ZM920.3,1996.5l26.6,86.4-48.7-3.8c0-.8-.4-1.6-.9-2.2-.3-.3-.6-.5-.9-.8l10.6-24.3c.1-.2,0-.5-.1-.7,0,0,0,0,0,0-.2-.2-.5-.3-.7-.2l-59.4,23.2,67.8-80.2c.2.3.3.5.5.7,1.3,1.6,3.4,2.2,5.3,1.9ZM975,2038.6l18.1-25.8,38.6,12.4c0,.9.1,1.8.8,2.5,1,1.2,2.7,1.5,4.1.8l25.7,32.2-87.2-22.1ZM1107.7,1987c.5.6,1.1,1.1,1.8,1.6l-45.6,72-26.3-33c.7-.9,1-2.1.7-3.1l68.7-38.6c.2.4.4.7.7,1ZM1105.5,1979.3c-.2,1.9,0,3.8.9,5.6l-68.7,38.6s0,0-.1-.1l34.8-50.3,33.1,6.3ZM1036.4,2022.5c-1.1-.5-2.5-.4-3.5.5-.3.3-.5.6-.7.9l-38.2-12.3,33.2-47.4,43.8,8.4-34.5,49.8ZM1135.4,1872.4l1.7,65.4-39.1-2,9.7-14c1.2.5,2.7.4,3.8-.5,1.5-1.3,1.7-3.6.4-5.1-.6-.8-1.5-1.2-2.5-1.3l-2.1-19.4,28.1-23.2ZM1106,1896.6l2,18.6c-.5.1-.9.4-1.3.7-1.5,1.3-1.7,3.6-.4,5.1,0,0,.1,0,.2.2l-10.2,14.7-35.7-1.8,45.4-37.4ZM1105.9,1895l-46.8,38.5-27.1-50.9c.1,0,.2-.1.4-.2,1.5-1.2,2-3.1,1.7-4.9l67.5-22.1,4.3,39.6ZM1057.9,1934.1l-50.5,12.7,20.7-63.3c.9.2,1.9,0,2.7-.2l27,50.9ZM1179.5,1820.4c-1.4,2.6-1.8,5.6-1.1,8.4l-75.7,24.8-9.6-89.3,86.4,56.1ZM1101.4,1854l-67.7,22.2c-.2-.4-.4-.8-.7-1.1-.3-.3-.6-.6-.9-.8l59.7-109.1,9.6,88.9ZM1015.2,1778.8l-17.1-22.9,33.2,2.7-16.1,20.2ZM1086,1690.1l-53.7,67.2-35.3-2.9-9.5-12.8,21.3-28.6,77.1-23ZM920.2,1925.1l20.5,45.4-52.4-19.5,20.8-28.4,11.1,2.5ZM909.9,1921.4l5.3-7.3,4.2,9.4-9.6-2.1ZM921.1,1923.9l-5.1-11.3c0,0,0-.1,0-.2-.1-.1-.3-.2-.4-.2-.2,0-.5,0-.6.3l-6.4,8.7-44.2-9.8c0-.5,0-1-.2-1.4l64.3-32.8,8.4,17.1c-.6.4-1.3.8-1.8,1.3-5,4.2-5.6,11.6-1.4,16.6,4.2,5,11.6,5.6,16.6,1.4,5-4.2,5.6-11.6,1.4-16.6-.6-.8-1.4-1.4-2.2-2l24.6-39.2c.2,0,.3.1.5.1l-1.6,79.5-51.7-11.4ZM863.5,1908.7c0,0,0-.1-.1-.2,0,0-.1-.1-.2-.2l48.6-65.2,16,32.7-64.3,32.8ZM948.2,1894.1c-3.1-1.7-6.9-1.9-10.2-.5l-8.4-17.2,42.8-21.9s0,0,0,.1c0,.1.2.2.3.2l-24.6,39.2ZM929,1875.2l-16.3-33.3,11.3-15.2,47.8,24.7c-.2.6-.2,1.3,0,1.9l-42.8,21.8ZM912,1840.6l-13-26.7,23.8,12.3-10.8,14.4ZM897.8,1811.7c-.3-.1-.6,0-.8.1-.2.2-.3.5-.1.8l14.2,29.2-49,65.7c-.5-.3-1.1-.4-1.6-.4l-18.3-160.4c.7-.2,1.3-.5,1.9-1,.8-.7,1.3-1.6,1.5-2.6l50.9,4.2-19.2,35.2c-.1.2-.1.5,0,.7.2.2.4.3.7.3l46.9-6.7c.2,0,.4-.2.5-.3.1-.2.1-.4,0-.6l-12-27.1,58.4,4.8c0,1.4.5,2.8,1.5,3.9.1.1.3.3.4.4l-50,67.1-25.8-13.3ZM898.6,1746.2l6.7-12.3,5.9,13.3-12.6-1ZM911.8,1748.7l12,27-44.7,6.3,18.8-34.5,13.9,1.2ZM982.9,1749.4c-.2-.2-.4-.4-.7-.6l4.5-6,8.6,11.5-10.9-.9c0-1.4-.5-2.8-1.5-3.9ZM986.7,1740.5l-12.7-17.1,32.7-9.7-20,26.8ZM920.8,1719.2l4,7.4-13.2-4.7,9.2-2.7ZM861.9,1704.2l45.1-10.4,13.1,24.2-10.7,3.2-47.5-16.9ZM909.4,1722.5l16.6,5.9c.3,0,.6,0,.7-.2.2-.2.2-.5,0-.8l-4.7-8.7,98.5-29.3c.3.8.7,1.5,1.2,2.1.2.3.5.5.8.7l-14.6,19.5-35.3,10.5c-.2,0-.4.2-.4.4,0,.2,0,.4.1.6l13.5,18.2-4.8,6.4c-2.2-1.2-5.1-1-7.1.7-1.1,1-1.8,2.3-2.1,3.6l-59.2-4.9-6.7-15.2c0,0,0-.1-.1-.2-.1-.1-.3-.2-.5-.2-.3,0-.5.1-.6.3l-7.6,14-51.5-4.3c0-.1,0-.3,0-.4l63.7-18.9ZM773.4,1784.9l30.6,3.3-15.6,19.9-15-23.2ZM805.6,1788.3l22.8,2.5-11.1,62-28.1-43.5,16.4-20.9ZM788.3,1810.4l28.8,44.6c.2.2.4.3.7.3.3,0,.5-.3.5-.5l11.6-64.4c0-.2,0-.4-.1-.5,0,0,0,0,0,0-.1-.1-.3-.2-.4-.2l-22.7-2.5,32.1-40.9c.7.4,1.4.6,2.2.6l18.3,160.4c-.5.2-1,.4-1.5.8-1.7,1.4-1.9,4-.5,5.7,1.4,1.7,4,1.9,5.7.5.5-.4.9-1,1.1-1.6l43.6,9.6-21,28.6c-.1.2-.2.4-.1.6,0,.2.2.4.4.4l54.8,20.4c.3,0,.5,0,.7-.2.2-.2.2-.5.1-.7l-20.8-46,51.5,11.4c.2,0,.4,0,.6-.1.2-.1.3-.3.3-.5l1.6-80.3c.6-.1,1.2-.3,1.7-.7,1.5-1.3,1.7-3.5.4-5-1.3-1.5-3.5-1.7-5-.4-.2.2-.3.4-.4.5l-47.6-24.6,49.9-66.9c2.3,1.4,5.3,1.3,7.4-.5,1.1-1,1.8-2.3,2.1-3.6l12.1,1,18.3,24.6c0,.2.3.3.5.3.2,0,.4,0,.5-.3l17.2-21.6,58.3,4.8-60.3,110.1c-1.7-.7-3.7-.4-5.2.9-2.2,1.8-2.4,5.1-.6,7.3.5.6,1.1,1,1.7,1.3l-21.1,64.5c0,.2,0,.5.1.7.2.2.4.3.7.2l52.4-13.2,36.5,1.8-23.8,34.3-44.8-8.6c-.3,0-.5,0-.7.3l-33.7,48.1-67.9-21.8c-.2-.8-.6-1.5-1.1-2.1-2-2.4-5.6-2.7-8-.7-.7.6-1.2,1.4-1.5,2.2l-104.6,33.2,13.5-37.4,20.5,4.3c.2,0,.4,0,.6-.1.2-.1.2-.3.2-.5l-2-71.9c0-.2,0-.3-.2-.4,0,0-.2-.2-.3-.2-.3,0-.6,0-.7.3l-30.5,44.2c-.8-.3-1.7-.2-2.3.4-.3.2-.5.5-.6.8l-56-10.8,6.1-59.8,26.4,23.6c.2.2.6.2.8,0,.3-.2.4-.5.3-.8l-19.6-61.7c1-.4,1.9-.9,2.8-1.6,4.2-3.6,4.7-9.9,1.2-14.1-.3-.3-.6-.6-1-.9l19.6-24.9ZM752.4,1840.1c-.8,3.1-.2,6.4,2,9,1.6,1.9,3.7,3,5.9,3.3l-3.6,35.4-83.6-74.9,79.2,27.1Z"/>
          <path class="cls-6" d="M803.8,1897.6c1.3,1.5,3.6,1.7,5.1.4,1.5-1.3,1.7-3.6.4-5.1-1.3-1.5-3.6-1.7-5.1-.4-1.5,1.3-1.7,3.6-.4,5.1Z"/>
          <path class="cls-6" d="M975.9,1991.9c3.3,3.9,9.1,4.4,13,1.1,3.9-3.3,4.4-9.1,1.1-13-3.3-3.9-9.1-4.4-13-1.1-3.9,3.3-4.4,9.1-1.1,13Z"/>
          <path class="cls-6" d="M874.5,1837.7c1.6,1.9,4.4,2.1,6.3.5,1.9-1.6,2.1-4.4.5-6.3-1.6-1.9-4.4-2.1-6.3-.5-1.9,1.6-2.1,4.4-.5,6.3Z"/>
          <path class="cls-6" d="M1020.9,1809c-1.3-1.5-3.6-1.7-5.1-.4s-1.7,3.6-.4,5.1c1.3,1.5,3.6,1.7,5.1.4,1.5-1.3,1.7-3.6.4-5.1Z"/>
          <path class="cls-6" d="M1083.5,1839.1c1.2,1.4,3.2,1.5,4.6.4,1.4-1.2,1.5-3.2.4-4.6-1.2-1.4-3.2-1.5-4.6-.4-1.4,1.2-1.5,3.2-.4,4.6Z"/>
          <path class="cls-6" d="M1065.2,1776.2c-2.6-3-7.1-3.4-10.2-.8-3,2.6-3.4,7.1-.8,10.2,2.6,3,7.1,3.4,10.2.8,3-2.6,3.4-7.1.8-10.2Z"/>
          <path class="cls-6" d="M780.7,2000.4c-1.7-2-4.7-2.3-6.7-.6-2,1.7-2.3,4.7-.6,6.7,1.7,2,4.7,2.3,6.7.6,2-1.7,2.3-4.7.6-6.7Z"/>
        </g>
        <g class="cls-12">
          <path class="cls-6" d="M3861.6-2.2c-.2.3-.1.6.1.8l86.8,77.8-6.2,60.6-21.2-4.1c-.3,0-.5,0-.7.3l-35.4,45.9c-2.3-1.4-5.2-1.3-7.3.5-2.7,2.2-3,6.2-.7,8.9,2.2,2.7,6.2,3,8.9.7.7-.6,1.2-1.2,1.5-1.9l47.9,18.4-2.6,25.2c0,.2,0,.5.2.6.2.1.4.2.6.1l37.9-12,22.2,8.5c.2,0,.4,0,.5,0,.2,0,.3-.2.4-.4l6.3-17.4,104.8-33.2c0,.7,0,1.4.2,2.1l-70,82.7s0,0,0,0c0,0,0,.2-.1.3,0,0,0,0,0,0,0,0,0,0,0,0,0,.1,0,.2,0,.3,0,0,0,0,0,0,0,0,0,0,.1.1,0,0,0,.1.1.1h0s0,0,0,0l38.4,30c.2.1.4.2.6.1.2,0,.4-.2.5-.4l9.8-22.5c1.2.3,2.5,0,3.6-.8.7-.6,1.1-1.3,1.3-2.1l49.7,3.8c.2,0,.4,0,.6-.3.1-.2.2-.4.1-.6l-26.9-87.3c.5-.2.9-.5,1.4-.8,1.3-1.1,2-2.7,2-4.3l66.9,21.5-18.4,26.3c-.1.2-.2.4,0,.6,0,.2.3.4.5.4l90.1,22.8s0,0,0,0c0,0,.2,0,.3,0,0,0,.1,0,.2,0,0,0,0,0,0,0,0,0,0,0,0,0,0,0,0,0,.1,0l46.1-72.8c3.6,1.9,8.1,1.6,11.4-1.2,4.3-3.6,4.8-10,1.2-14.3-3.6-4.3-10-4.8-14.3-1.2-1.7,1.4-2.7,3.2-3.2,5.2l-32.5-6.2,23.9-34.5,40.7,2.1c.2,0,.4,0,.5-.2.1-.1.2-.3.2-.5l-1.8-67.5c0-.2,0-.3-.2-.4,0,0-.1-.1-.2-.2-.2-.1-.5,0-.7,0l-28.5,23.5-4.2-39,76-24.9c.4,1.1,1,2.2,1.8,3.2,4,4.7,11.1,5.3,15.9,1.3,4.7-4,5.3-11.1,1.3-15.9-4-4.7-11.1-5.3-15.9-1.3-.7.6-1.3,1.2-1.8,1.9l-87.6-56.9s-.1,0-.2,0c0,0,0,0-.2,0l-58.4-4.8,54.5-68.2c.2-.2.2-.6,0-.8,0,0,0,0,0,0-.2-.2-.4-.3-.7-.2l-77.5,23.1,13.5-18.1c2.7,1.7,6.4,1.5,8.9-.6,3.2-2.7,3.6-7.6.9-10.8-2.7-3.2-7.6-3.6-10.8-.9-2.2,1.9-3.1,4.7-2.5,7.4l-98.8,29.3-13.5-24.9s0,0,0-.1c-.2-.2-.4-.3-.7-.2l-47.9,11.1c-.3,0-.5.3-.5.6,0,.3.2.6.4.7l48,17.1-61.9,18.4c-.2-.4-.4-.7-.7-1.1-1.7-2-4.7-2.2-6.7-.6-2,1.7-2.2,4.7-.6,6.7,0,0,.1.1.2.2l-32.6,41.5-32.9-3.5c-.3,0-.5,0-.6.3-.1.2-.1.5,0,.7l16,24.8-19.9,25.3c-3.6-2.5-8.6-2.4-12.1.6-1.2,1.1-2.1,2.4-2.7,3.8l-82.4-28.2c-.3-.1-.6,0-.8.3ZM3953.6,39.5c.9,0,1.8,0,2.7-.3l18.8,59.3-25.3-22.7,3.7-36.4ZM3887.9,186.2c.5-1.9.1-4.1-1.3-5.7-.1-.2-.3-.3-.5-.5l35.1-45.6,20.9,4-6.8,66-47.5-18.3ZM3934.1,230.2l2.4-23.8,32.8,12.6-35.3,11.2ZM3971.5,218.3l-34.8-13.4,6.8-66.3,55.9,10.8c0,.5.2.9.5,1.3l-10,14.5c-.1.2-.2.4,0,.6,0,.2.3.4.5.4l23.2,4.9-13.8,38.2-28.3,9ZM4003.9,150.4l16,3.1-5.9,16.5-22.4-4.7,9.4-13.7c.8.3,1.7.2,2.3-.4.3-.2.5-.5.6-.8ZM4021.4,153.2c0-.2,0-.4,0-.6,0,0,0,0,0-.1,0-.1-.2-.2-.4-.2l-16.8-3.2c0-.5-.2-.9-.5-1.3l29.3-42.4,1.9,69-19.5-4.1,6.1-17ZM3993.4,226.8l-20-7.7,25.7-8.1-5.7,15.8ZM4082.2,265.4l-42.8-3.3,57.6-22.5-9.9,22.8c-1.2-.3-2.5,0-3.6.8-.7.6-1.1,1.3-1.3,2.1ZM4074.4,291.4l-36-28.1,43.6,3.4c0,.8.4,1.6.9,2.2.3.3.6.5.9.8l-9.4,21.7ZM4112.2,183.4l26.6,86.4-48.7-3.8c0-.8-.4-1.6-.9-2.2-.3-.3-.6-.5-.9-.8l10.6-24.3c.1-.2,0-.5-.1-.7,0,0,0,0,0,0-.2-.2-.5-.3-.7-.2l-59.4,23.2,67.8-80.2c.2.3.3.5.5.7,1.3,1.6,3.4,2.2,5.3,1.9ZM4166.9,225.5l18.1-25.8,38.6,12.4c0,.9.1,1.8.8,2.5,1,1.2,2.7,1.5,4.1.8l25.7,32.2-87.2-22.1ZM4299.7,173.9c.5.6,1.1,1.1,1.8,1.6l-45.6,72-26.3-33c.7-.9,1-2.1.7-3.1l68.7-38.6c.2.4.4.7.7,1ZM4297.4,166.2c-.2,1.9,0,3.8.9,5.6l-68.7,38.6s0,0-.1-.1l34.8-50.3,33.1,6.3ZM4228.3,209.4c-1.1-.5-2.5-.4-3.5.5-.3.3-.5.6-.7.9l-38.2-12.3,33.2-47.4,43.8,8.4-34.5,49.8ZM4327.3,59.3l1.7,65.4-39.1-2,9.7-14c1.2.5,2.7.4,3.8-.5,1.5-1.3,1.7-3.6.4-5.1-.6-.8-1.5-1.2-2.5-1.3l-2.1-19.4,28.1-23.2ZM4297.9,83.5l2,18.6c-.5.1-.9.4-1.3.7-1.5,1.3-1.7,3.6-.4,5.1,0,0,.1,0,.2.2l-10.2,14.7-35.7-1.8,45.4-37.4ZM4297.8,81.9l-46.8,38.5-27.1-50.9c.1,0,.2-.1.4-.2,1.5-1.2,2-3.1,1.7-4.9l67.5-22.1,4.3,39.6ZM4249.8,121.1l-50.5,12.7,20.7-63.3c.9.2,1.9,0,2.7-.2l27,50.9ZM4371.4,7.3c-1.4,2.6-1.8,5.6-1.1,8.4l-75.7,24.8-9.6-89.3,86.4,56.1ZM4293.3,40.9l-67.7,22.2c-.2-.4-.4-.8-.7-1.1-.3-.3-.6-.6-.9-.8l59.7-109.1,9.6,88.9ZM4207.1-34.3l-17.1-22.9,33.2,2.7-16.1,20.2ZM4277.9-123l-53.7,67.2-35.3-2.9-9.5-12.8,21.3-28.6,77.1-23ZM4112.1,112l20.5,45.4-52.4-19.5,20.8-28.4,11.1,2.5ZM4101.8,108.3l5.3-7.3,4.2,9.4-9.6-2.1ZM4113,110.8l-5.1-11.3c0,0,0-.1,0-.2-.1-.1-.3-.2-.4-.2-.2,0-.5,0-.6.3l-6.4,8.7-44.2-9.8c0-.5,0-1-.2-1.4l64.3-32.8,8.4,17.1c-.6.4-1.3.8-1.8,1.3-5,4.2-5.6,11.6-1.4,16.6,4.2,5,11.6,5.6,16.6,1.4,5-4.2,5.6-11.6,1.4-16.6-.6-.8-1.4-1.4-2.2-2l24.6-39.2c.2,0,.3.1.5.1l-1.6,79.5-51.7-11.4ZM4055.4,95.6c0,0,0-.1-.1-.2,0,0-.1-.1-.2-.2l48.6-65.2,16,32.7-64.3,32.8ZM4140.1,81.1c-3.1-1.7-6.9-1.9-10.2-.5l-8.4-17.2,42.8-21.9s0,0,0,.1c0,.1.2.2.3.2l-24.6,39.2ZM4120.9,62.2l-16.3-33.3,11.3-15.2,47.8,24.7c-.2.6-.2,1.3,0,1.9l-42.8,21.8ZM4104,27.5l-13-26.7,23.8,12.3-10.8,14.4ZM4089.7-1.4c-.3-.1-.6,0-.8.1-.2.2-.3.5-.1.8l14.2,29.2-49,65.7c-.5-.3-1.1-.4-1.6-.4l-18.3-160.4c.7-.2,1.3-.5,1.9-1,.8-.7,1.3-1.6,1.5-2.6l50.9,4.2-19.2,35.2c-.1.2-.1.5,0,.7.2.2.4.3.7.3l46.9-6.7c.2,0,.4-.2.5-.3.1-.2.1-.4,0-.6l-12-27.1,58.4,4.8c0,1.4.5,2.8,1.5,3.9.1.1.3.3.4.4l-50,67.1-25.8-13.3ZM4090.6-66.8l6.7-12.3,5.9,13.3-12.6-1ZM4103.7-64.4l12,27-44.7,6.3,18.8-34.5,13.9,1.2ZM4174.8-63.7c-.2-.2-.4-.4-.7-.6l4.5-6,8.6,11.5-10.9-.9c0-1.4-.5-2.8-1.5-3.9ZM4178.6-72.6l-12.7-17.1,32.7-9.7-20,26.8ZM4112.7-93.9l4,7.4-13.2-4.7,9.2-2.7ZM4053.8-108.9l45.1-10.4,13.1,24.2-10.7,3.2-47.5-16.9ZM4101.3-90.5l16.6,5.9c.3,0,.6,0,.7-.2.2-.2.2-.5,0-.8l-4.7-8.7,98.5-29.3c.3.8.7,1.5,1.2,2.1.2.3.5.5.8.7l-14.6,19.5-35.3,10.5c-.2,0-.4.2-.4.4,0,.2,0,.4.1.6l13.5,18.2-4.8,6.4c-2.2-1.2-5.1-1-7.1.7-1.1,1-1.8,2.3-2.1,3.6l-59.2-4.9-6.7-15.2c0,0,0-.1-.1-.2-.1-.1-.3-.2-.5-.2-.3,0-.5.1-.6.3l-7.6,14-51.5-4.3c0-.1,0-.3,0-.4l63.7-18.9ZM3965.3-28.2l30.6,3.3-15.6,19.9-15-23.2ZM3997.5-24.8l22.8,2.5-11.1,62-28.1-43.5,16.4-20.9ZM3980.2-2.7l28.8,44.6c.2.2.4.3.7.3.3,0,.5-.3.5-.5l11.6-64.4c0-.2,0-.4-.1-.5,0,0,0,0,0,0-.1-.1-.3-.2-.4-.2l-22.7-2.5,32.1-40.9c.7.4,1.4.6,2.2.6l18.3,160.4c-.5.2-1,.4-1.5.8-1.7,1.4-1.9,4-.5,5.7,1.4,1.7,4,1.9,5.7.5.5-.4.9-1,1.1-1.6l43.6,9.6-21,28.6c-.1.2-.2.4-.1.6,0,.2.2.4.4.4l54.8,20.4c.3,0,.5,0,.7-.2.2-.2.2-.5.1-.7l-20.8-46,51.5,11.4c.2,0,.4,0,.6-.1.2-.1.3-.3.3-.5l1.6-80.3c.6-.1,1.2-.3,1.7-.7,1.5-1.3,1.7-3.5.4-5-1.3-1.5-3.5-1.7-5-.4-.2.2-.3.4-.4.5l-47.6-24.6,49.9-66.9c2.3,1.4,5.3,1.3,7.4-.5,1.1-1,1.8-2.3,2.1-3.6l12.1,1,18.3,24.6c0,.2.3.3.5.3.2,0,.4,0,.5-.3l17.2-21.6,58.3,4.8-60.3,110.1c-1.7-.7-3.7-.4-5.2.9-2.2,1.8-2.4,5.1-.6,7.3.5.6,1.1,1,1.7,1.3l-21.1,64.5c0,.2,0,.5.1.7.2.2.4.3.7.2l52.4-13.2,36.5,1.8-23.8,34.3-44.8-8.6c-.3,0-.5,0-.7.3l-33.7,48.1-67.9-21.8c-.2-.8-.6-1.5-1.1-2.1-2-2.4-5.6-2.7-8-.7-.7.6-1.2,1.4-1.5,2.2l-104.6,33.2,13.5-37.4,20.5,4.3c.2,0,.4,0,.6-.1.2-.1.2-.3.2-.5l-2-71.9c0-.2,0-.3-.2-.4,0,0-.2-.2-.3-.2-.3,0-.6,0-.7.3l-30.5,44.2c-.8-.3-1.7-.2-2.3.4-.3.2-.5.5-.6.8l-56-10.8,6.1-59.8,26.4,23.6c.2.2.6.2.8,0,.3-.2.4-.5.3-.8l-19.6-61.7c1-.4,1.9-.9,2.8-1.6,4.2-3.6,4.7-9.9,1.2-14.1-.3-.3-.6-.6-1-.9l19.6-24.9ZM3944.3,27c-.8,3.1-.2,6.4,2,9,1.6,1.9,3.7,3,5.9,3.3l-3.6,35.4L3865.1,0l79.2,27.1Z"/>
          <path class="cls-6" d="M3995.7,84.5c1.3,1.5,3.6,1.7,5.1.4,1.5-1.3,1.7-3.6.4-5.1-1.3-1.5-3.6-1.7-5.1-.4-1.5,1.3-1.7,3.6-.4,5.1Z"/>
          <path class="cls-6" d="M4167.8,178.8c3.3,3.9,9.1,4.4,13,1.1,3.9-3.3,4.4-9.1,1.1-13-3.3-3.9-9.1-4.4-13-1.1-3.9,3.3-4.4,9.1-1.1,13Z"/>
          <path class="cls-6" d="M4066.4,24.6c1.6,1.9,4.4,2.1,6.3.5,1.9-1.6,2.1-4.4.5-6.3-1.6-1.9-4.4-2.1-6.3-.5-1.9,1.6-2.1,4.4-.5,6.3Z"/>
          <path class="cls-6" d="M4212.9-4.1c-1.3-1.5-3.6-1.7-5.1-.4s-1.7,3.6-.4,5.1c1.3,1.5,3.6,1.7,5.1.4,1.5-1.3,1.7-3.6.4-5.1Z"/>
          <path class="cls-6" d="M4275.4,26c1.2,1.4,3.2,1.5,4.6.4,1.4-1.2,1.5-3.2.4-4.6-1.2-1.4-3.2-1.5-4.6-.4-1.4,1.2-1.5,3.2-.4,4.6Z"/>
          <path class="cls-6" d="M4257.1-36.8c-2.6-3-7.1-3.4-10.2-.8s-3.4,7.1-.8,10.2c2.6,3,7.1,3.4,10.2.8,3-2.6,3.4-7.1.8-10.2Z"/>
          <path class="cls-6" d="M3972.6,187.3c-1.7-2-4.7-2.3-6.7-.6-2,1.7-2.3,4.7-.6,6.7,1.7,2,4.7,2.3,6.7.6,2-1.7,2.3-4.7.6-6.7Z"/>
        </g>
        <g class="cls-12">
          <path class="cls-6" d="M3723.5,103.9c-.2.3-.1.6.1.8l86.8,77.8-6.2,60.6-21.2-4.1c-.3,0-.5,0-.7.3l-35.4,45.9c-2.3-1.4-5.2-1.3-7.3.5-2.7,2.2-3,6.2-.7,8.9,2.2,2.7,6.2,3,8.9.7.7-.6,1.2-1.2,1.5-1.9l47.9,18.4-2.6,25.2c0,.2,0,.5.2.6.2.1.4.2.6.1l37.9-12,22.2,8.5c.2,0,.4,0,.5,0,.2,0,.3-.2.4-.4l6.3-17.4,104.8-33.2c0,.7,0,1.4.2,2.1l-70,82.7s0,0,0,0c0,0,0,.2-.1.3,0,0,0,0,0,0,0,0,0,0,0,0,0,.1,0,.2,0,.3,0,0,0,0,0,0,0,0,0,0,.1.1,0,0,0,.1.1.1h0s0,0,0,0l38.4,30c.2.1.4.2.6.1.2,0,.4-.2.5-.4l9.8-22.5c1.2.3,2.5,0,3.6-.8.7-.6,1.1-1.3,1.3-2.1l49.7,3.8c.2,0,.4,0,.6-.3.1-.2.2-.4.1-.6l-26.9-87.3c.5-.2.9-.5,1.4-.8,1.3-1.1,2-2.7,2-4.3l66.9,21.5-18.4,26.3c-.1.2-.2.4,0,.6,0,.2.3.4.5.4l90.1,22.8s0,0,0,0c0,0,.2,0,.3,0,0,0,.1,0,.2,0,0,0,0,0,0,0,0,0,0,0,0,0,0,0,0,0,.1,0l46.1-72.8c3.6,1.9,8.1,1.6,11.4-1.2,4.3-3.6,4.8-10,1.2-14.3-3.6-4.3-10-4.8-14.3-1.2-1.7,1.4-2.7,3.2-3.2,5.2l-32.5-6.2,23.9-34.5,40.7,2.1c.2,0,.4,0,.5-.2.1-.1.2-.3.2-.5l-1.8-67.5c0-.2,0-.3-.2-.4,0,0-.1-.1-.2-.2-.2-.1-.5,0-.7,0l-28.5,23.5-4.2-39,76-24.9c.4,1.1,1,2.2,1.8,3.2,4,4.7,11.1,5.3,15.9,1.3,4.7-4,5.3-11.1,1.3-15.9-4-4.7-11.1-5.3-15.9-1.3-.7.6-1.3,1.2-1.8,1.9l-87.6-56.9s-.1,0-.2,0c0,0,0,0-.2,0l-58.4-4.8,54.5-68.2c.2-.2.2-.6,0-.8,0,0,0,0,0,0-.2-.2-.4-.3-.7-.2l-77.5,23.1,13.5-18.1c2.7,1.7,6.4,1.5,8.9-.6,3.2-2.7,3.6-7.6.9-10.8-2.7-3.2-7.6-3.6-10.8-.9-2.2,1.9-3.1,4.7-2.5,7.4l-98.8,29.3-13.5-24.9s0,0,0-.1c-.2-.2-.4-.3-.7-.2l-47.9,11.1c-.3,0-.5.3-.5.6,0,.3.2.6.4.7l48,17.1-61.9,18.4c-.2-.4-.4-.7-.7-1.1-1.7-2-4.7-2.2-6.7-.6-2,1.7-2.2,4.7-.6,6.7,0,0,.1.1.2.2l-32.6,41.5-32.9-3.5c-.3,0-.5,0-.6.3-.1.2-.1.5,0,.7l16,24.8-19.9,25.3c-3.6-2.5-8.6-2.4-12.1.6-1.2,1.1-2.1,2.4-2.7,3.8l-82.4-28.2c-.3-.1-.6,0-.8.3ZM3815.5,145.6c.9,0,1.8,0,2.7-.3l18.8,59.3-25.3-22.7,3.7-36.4ZM3749.8,292.2c.5-1.9.1-4.1-1.3-5.7-.1-.2-.3-.3-.5-.5l35.1-45.6,20.9,4-6.8,66-47.5-18.3ZM3796,336.2l2.4-23.8,32.8,12.6-35.3,11.2ZM3833.4,324.4l-34.8-13.4,6.8-66.3,55.9,10.8c0,.5.2.9.5,1.3l-10,14.5c-.1.2-.2.4,0,.6,0,.2.3.4.5.4l23.2,4.9-13.8,38.2-28.3,9ZM3865.8,256.4l16,3.1-5.9,16.5-22.4-4.7,9.4-13.7c.8.3,1.7.2,2.3-.4.3-.2.5-.5.6-.8ZM3883.3,259.2c0-.2,0-.4,0-.6,0,0,0,0,0-.1,0-.1-.2-.2-.4-.2l-16.8-3.2c0-.5-.2-.9-.5-1.3l29.3-42.4,1.9,69-19.5-4.1,6.1-17ZM3855.3,332.9l-20-7.7,25.7-8.1-5.7,15.8ZM3944.1,371.4l-42.8-3.3,57.6-22.5-9.9,22.8c-1.2-.3-2.5,0-3.6.8-.7.6-1.1,1.3-1.3,2.1ZM3936.4,397.5l-36-28.1,43.6,3.4c0,.8.4,1.6.9,2.2.3.3.6.5.9.8l-9.4,21.7ZM3974.1,289.4l26.6,86.4-48.7-3.8c0-.8-.4-1.6-.9-2.2-.3-.3-.6-.5-.9-.8l10.6-24.3c.1-.2,0-.5-.1-.7,0,0,0,0,0,0-.2-.2-.5-.3-.7-.2l-59.4,23.2,67.8-80.2c.2.3.3.5.5.7,1.3,1.6,3.4,2.2,5.3,1.9ZM4028.9,331.6l18.1-25.8,38.6,12.4c0,.9.1,1.8.8,2.5,1,1.2,2.7,1.5,4.1.8l25.7,32.2-87.2-22.1ZM4161.6,280c.5.6,1.1,1.1,1.8,1.6l-45.6,72-26.3-33c.7-.9,1-2.1.7-3.1l68.7-38.6c.2.4.4.7.7,1ZM4159.3,272.2c-.2,1.9,0,3.8.9,5.6l-68.7,38.6s0,0-.1-.1l34.8-50.3,33.1,6.3ZM4090.2,315.5c-1.1-.5-2.5-.4-3.5.5-.3.3-.5.6-.7.9l-38.2-12.3,33.2-47.4,43.8,8.4-34.5,49.8ZM4189.2,165.4l1.7,65.4-39.1-2,9.7-14c1.2.5,2.7.4,3.8-.5,1.5-1.3,1.7-3.6.4-5.1-.6-.8-1.5-1.2-2.5-1.3l-2.1-19.4,28.1-23.2ZM4159.9,189.6l2,18.6c-.5.1-.9.4-1.3.7-1.5,1.3-1.7,3.6-.4,5.1,0,0,.1,0,.2.2l-10.2,14.7-35.7-1.8,45.4-37.4ZM4159.7,188l-46.8,38.5-27.1-50.9c.1,0,.2-.1.4-.2,1.5-1.2,2-3.1,1.7-4.9l67.5-22.1,4.3,39.6ZM4111.7,227.1l-50.5,12.7,20.7-63.3c.9.2,1.9,0,2.7-.2l27,50.9ZM4233.3,113.4c-1.4,2.6-1.8,5.6-1.1,8.4l-75.7,24.8-9.6-89.3,86.4,56.1ZM4155.3,147l-67.7,22.2c-.2-.4-.4-.8-.7-1.1-.3-.3-.6-.6-.9-.8l59.7-109.1,9.6,88.9ZM4069,71.8l-17.1-22.9,33.2,2.7-16.1,20.2ZM4139.8-17l-53.7,67.2-35.3-2.9-9.5-12.8,21.3-28.6,77.1-23ZM3974,218l20.5,45.4-52.4-19.5,20.8-28.4,11.1,2.5ZM3963.7,214.4l5.3-7.3,4.2,9.4-9.6-2.1ZM3974.9,216.9l-5.1-11.3c0,0,0-.1,0-.2-.1-.1-.3-.2-.4-.2-.2,0-.5,0-.6.3l-6.4,8.7-44.2-9.8c0-.5,0-1-.2-1.4l64.3-32.8,8.4,17.1c-.6.4-1.3.8-1.8,1.3-5,4.2-5.6,11.6-1.4,16.6,4.2,5,11.6,5.6,16.6,1.4,5-4.2,5.6-11.6,1.4-16.6-.6-.8-1.4-1.4-2.2-2l24.6-39.2c.2,0,.3.1.5.1l-1.6,79.5-51.7-11.4ZM3917.3,201.7c0,0,0-.1-.1-.2,0,0-.1-.1-.2-.2l48.6-65.2,16,32.7-64.3,32.8ZM4002,187.1c-3.1-1.7-6.9-1.9-10.2-.5l-8.4-17.2,42.8-21.9s0,0,0,.1c0,.1.2.2.3.2l-24.6,39.2ZM3982.8,168.2l-16.3-33.3,11.3-15.2,47.8,24.7c-.2.6-.2,1.3,0,1.9l-42.8,21.8ZM3965.9,133.5l-13-26.7,23.8,12.3-10.8,14.4ZM3951.6,104.7c-.3-.1-.6,0-.8.1-.2.2-.3.5-.1.8l14.2,29.2-49,65.7c-.5-.3-1.1-.4-1.6-.4l-18.3-160.4c.7-.2,1.3-.5,1.9-1,.8-.7,1.3-1.6,1.5-2.6l50.9,4.2-19.2,35.2c-.1.2-.1.5,0,.7.2.2.4.3.7.3l46.9-6.7c.2,0,.4-.2.5-.3.1-.2.1-.4,0-.6l-12-27.1,58.4,4.8c0,1.4.5,2.8,1.5,3.9.1.1.3.3.4.4l-50,67.1-25.8-13.3ZM3952.5,39.2l6.7-12.3,5.9,13.3-12.6-1ZM3965.7,41.7l12,27-44.7,6.3,18.8-34.5,13.9,1.2ZM4036.7,42.4c-.2-.2-.4-.4-.7-.6l4.5-6,8.6,11.5-10.9-.9c0-1.4-.5-2.8-1.5-3.9ZM4040.5,33.4l-12.7-17.1,32.7-9.7-20,26.8ZM3974.6,12.1l4,7.4-13.2-4.7,9.2-2.7ZM3915.7-2.8l45.1-10.4,13.1,24.2-10.7,3.2-47.5-16.9ZM3963.2,15.5l16.6,5.9c.3,0,.6,0,.7-.2.2-.2.2-.5,0-.8l-4.7-8.7,98.5-29.3c.3.8.7,1.5,1.2,2.1.2.3.5.5.8.7l-14.6,19.5-35.3,10.5c-.2,0-.4.2-.4.4,0,.2,0,.4.1.6l13.5,18.2-4.8,6.4c-2.2-1.2-5.1-1-7.1.7-1.1,1-1.8,2.3-2.1,3.6l-59.2-4.9-6.7-15.2c0,0,0-.1-.1-.2-.1-.1-.3-.2-.5-.2-.3,0-.5.1-.6.3l-7.6,14-51.5-4.3c0-.1,0-.3,0-.4l63.7-18.9ZM3827.2,77.8l30.6,3.3-15.6,19.9-15-23.2ZM3859.4,81.3l22.8,2.5-11.1,62-28.1-43.5,16.4-20.9ZM3842.1,103.3l28.8,44.6c.2.2.4.3.7.3.3,0,.5-.3.5-.5l11.6-64.4c0-.2,0-.4-.1-.5,0,0,0,0,0,0-.1-.1-.3-.2-.4-.2l-22.7-2.5,32.1-40.9c.7.4,1.4.6,2.2.6l18.3,160.4c-.5.2-1,.4-1.5.8-1.7,1.4-1.9,4-.5,5.7,1.4,1.7,4,1.9,5.7.5.5-.4.9-1,1.1-1.6l43.6,9.6-21,28.6c-.1.2-.2.4-.1.6,0,.2.2.4.4.4l54.8,20.4c.3,0,.5,0,.7-.2.2-.2.2-.5.1-.7l-20.8-46,51.5,11.4c.2,0,.4,0,.6-.1.2-.1.3-.3.3-.5l1.6-80.3c.6-.1,1.2-.3,1.7-.7,1.5-1.3,1.7-3.5.4-5-1.3-1.5-3.5-1.7-5-.4-.2.2-.3.4-.4.5l-47.6-24.6,49.9-66.9c2.3,1.4,5.3,1.3,7.4-.5,1.1-1,1.8-2.3,2.1-3.6l12.1,1,18.3,24.6c0,.2.3.3.5.3.2,0,.4,0,.5-.3l17.2-21.6,58.3,4.8-60.3,110.1c-1.7-.7-3.7-.4-5.2.9-2.2,1.8-2.4,5.1-.6,7.3.5.6,1.1,1,1.7,1.3l-21.1,64.5c0,.2,0,.5.1.7.2.2.4.3.7.2l52.4-13.2,36.5,1.8-23.8,34.3-44.8-8.6c-.3,0-.5,0-.7.3l-33.7,48.1-67.9-21.8c-.2-.8-.6-1.5-1.1-2.1-2-2.4-5.6-2.7-8-.7-.7.6-1.2,1.4-1.5,2.2l-104.6,33.2,13.5-37.4,20.5,4.3c.2,0,.4,0,.6-.1.2-.1.2-.3.2-.5l-2-71.9c0-.2,0-.3-.2-.4,0,0-.2-.2-.3-.2-.3,0-.6,0-.7.3l-30.5,44.2c-.8-.3-1.7-.2-2.3.4-.3.2-.5.5-.6.8l-56-10.8,6.1-59.8,26.4,23.6c.2.2.6.2.8,0,.3-.2.4-.5.3-.8l-19.6-61.7c1-.4,1.9-.9,2.8-1.6,4.2-3.6,4.7-9.9,1.2-14.1-.3-.3-.6-.6-1-.9l19.6-24.9ZM3806.2,133.1c-.8,3.1-.2,6.4,2,9,1.6,1.9,3.7,3,5.9,3.3l-3.6,35.4-83.6-74.9,79.2,27.1Z"/>
          <path class="cls-6" d="M3857.6,190.5c1.3,1.5,3.6,1.7,5.1.4,1.5-1.3,1.7-3.6.4-5.1-1.3-1.5-3.6-1.7-5.1-.4-1.5,1.3-1.7,3.6-.4,5.1Z"/>
          <path class="cls-6" d="M4029.7,284.9c3.3,3.9,9.1,4.4,13,1.1,3.9-3.3,4.4-9.1,1.1-13-3.3-3.9-9.1-4.4-13-1.1-3.9,3.3-4.4,9.1-1.1,13Z"/>
          <path class="cls-6" d="M3928.3,130.7c1.6,1.9,4.4,2.1,6.3.5,1.9-1.6,2.1-4.4.5-6.3-1.6-1.9-4.4-2.1-6.3-.5-1.9,1.6-2.1,4.4-.5,6.3Z"/>
          <path class="cls-6" d="M4074.8,102c-1.3-1.5-3.6-1.7-5.1-.4s-1.7,3.6-.4,5.1c1.3,1.5,3.6,1.7,5.1.4,1.5-1.3,1.7-3.6.4-5.1Z"/>
          <path class="cls-6" d="M4137.3,132.1c1.2,1.4,3.2,1.5,4.6.4,1.4-1.2,1.5-3.2.4-4.6-1.2-1.4-3.2-1.5-4.6-.4-1.4,1.2-1.5,3.2-.4,4.6Z"/>
          <path class="cls-6" d="M4119,69.2c-2.6-3-7.1-3.4-10.2-.8s-3.4,7.1-.8,10.2c2.6,3,7.1,3.4,10.2.8,3-2.6,3.4-7.1.8-10.2Z"/>
          <path class="cls-6" d="M3834.5,293.3c-1.7-2-4.7-2.3-6.7-.6-2,1.7-2.3,4.7-.6,6.7,1.7,2,4.7,2.3,6.7.6,2-1.7,2.3-4.7.6-6.7Z"/>
        </g>
      </g>
    </g>
  </g>
  <text class="cls-9" transform="translate(449.6 1880.4)"><tspan x="0" y="0">ask.iitis.pl</tspan></text>
</svg>