<?xml version="1.0" encoding="UTF-8" standalone="no"?>
<!DOCTYPE svg PUBLIC "-//W3C//DTD SVG 1.1//EN" "http://www.w3.org/Graphics/SVG/1.1/DTD/svg11.dtd">
<svg width="100%" height="100%" viewBox="0 0 386 305" version="1.1" xmlns="http://www.w3.org/2000/svg" xmlns:xlink="http://www.w3.org/1999/xlink" xml:space="preserve" xmlns:serif="http://www.serif.com/" style="fill-rule:evenodd;clip-rule:evenodd;">
    <g id="Layer-1" serif:id="Layer 1" transform="matrix(1,0,0,1,-102.847,-67.7363)">
        <g id="g64465">
        </g>
        <g id="g56129">
            <rect id="rect29714" x="106.639" y="173.039" width="381.741" height="116.482" style="fill:rgb(244,244,244);stroke:black;stroke-width:0.72px;"/>
            <g id="g29697" transform="matrix(1,0,0,1,-36.5714,5.14285)">
                <rect id="rect4151" x="418.857" y="194.461" width="82.286" height="59.429" style="fill:rgb(215,215,215);stroke:black;stroke-width:0.8px;"/>
                <g id="g29684" transform="matrix(1,0,0,1,0.461062,-0.150812)">
                    <g id="g29643" transform="matrix(0.665385,0,0,0.665385,257.404,-136.286)">
                        <path id="path29645" d="M272.156,557.275C278.157,545.292 290.487,537.72 303.889,537.789C317.29,537.858 329.541,545.556 335.419,557.6" style="fill:none;fill-rule:nonzero;stroke:black;stroke-width:1.6px;stroke-linecap:square;"/>
                        <rect id="rect29647" x="256.429" y="507.89" width="94.714" height="69.857" style="fill:none;stroke:black;stroke-width:1.6px;stroke-linecap:square;"/>
                        <path id="path29649" d="M299,556.89L318.429,520.461L322.368,512.961" style="fill:none;stroke:black;stroke-width:1.6px;"/>
                    </g>
                    <g transform="matrix(0.340578,0,0,-0.340578,317.863,354.373)">
                        <g id="g29651">
                            <g id="g29653">
                                <path id="path29655" d="M376.872,337.392L377.032,338.432L379.744,349.272C380.104,350.664 380.184,350.784 381.896,350.784L385.72,350.784C389.032,350.784 391.144,349.704 391.144,346.96C391.144,345.4 390.344,341.976 388.792,340.544C386.8,338.744 384.408,338.432 382.656,338.432L377.032,338.432L376.872,337.392L383.648,337.392C389.312,337.392 394.848,341.536 394.848,346C394.848,349.072 392.216,352.016 387,352.016L374.088,352.016C373.328,352.016 372.888,352.016 372.888,351.256C372.888,350.784 373.248,350.784 374.048,350.784C374.56,350.784 375.28,350.744 375.76,350.704C376.4,350.624 376.632,350.504 376.632,350.064C376.632,349.904 376.6,349.784 376.472,349.312L371.136,327.912C370.736,326.352 370.656,326.032 367.512,326.032C366.832,326.032 366.392,326.032 366.392,325.28C366.392,324.8 366.872,324.8 366.992,324.8L377.192,324.8C377.472,324.8 377.992,324.8 377.992,325.6C377.992,326.032 377.632,326.032 376.872,326.032C375.4,326.032 374.288,326.032 374.288,326.752C374.288,326.992 374.368,327.192 374.4,327.432L376.872,337.392Z"/>
                                <path id="path29657" d="M404.792,328.096L404.792,328.664L404.776,329.208L404.752,329.736L404.72,330.248L404.672,330.744L404.608,331.216L404.536,331.68L404.448,332.128L404.352,332.568L404.232,332.992L404.096,333.4L403.944,333.8L403.776,334.192L403.584,334.576L403.376,334.952L403.264,335.144L403.144,335.328C402.288,336.608 400.552,337.72 398.32,337.72L398.32,336.944C399.832,336.944 401.28,336.024 401.784,334.4C402.232,332.896 402.256,330.888 402.256,328.464C402.256,326.4 402.256,324.328 401.896,322.576C401.336,320.04 399.44,319.424 398.32,319.424C397.04,319.424 395.336,320.176 394.776,322.464C394.384,324.112 394.384,326.4 394.384,328.464C394.384,330.496 394.384,332.616 394.808,334.152C395.392,336.36 397.176,336.944 398.32,336.944L398.32,337.72C391.848,337.72 391.848,330.104 391.848,328.096C391.848,326.088 391.848,318.64 398.32,318.64C404.792,318.64 404.792,326.088 404.792,328.096Z"/>
                                <path id="path29659" d="M416.088,324.84L416.088,325.088L416.08,325.32L416.064,325.552L416.048,325.776L416.016,325.992L415.992,326.2L415.952,326.408L415.912,326.6L415.864,326.792L415.808,326.976L415.752,327.152L415.696,327.32L415.624,327.48L415.552,327.632L415.48,327.776L415.4,327.92L415.312,328.048L415.224,328.168L415.128,328.288L415.032,328.392L414.928,328.496L414.824,328.584L414.712,328.664L414.592,328.744L414.472,328.808L414.352,328.864L414.224,328.912L414.096,328.952L413.96,328.984L413.824,329.008L413.688,329.024L413.544,329.024C412.224,329.024 411.424,328.032 411.424,326.912C411.424,325.84 412.224,324.8 413.544,324.8C414.016,324.8 414.536,324.96 414.936,325.32C415.056,325.4 415.096,325.44 415.136,325.44C415.176,325.44 415.216,325.4 415.216,324.84C415.216,321.888 413.816,319.504 412.504,318.184C412.064,317.744 412.064,317.664 412.064,317.544C412.064,317.272 412.264,317.112 412.464,317.112C412.904,317.112 416.088,320.176 416.088,324.84Z"/>
                                <path id="path29661" d="M437.672,337.392L437.832,338.432L440.544,349.272C440.904,350.664 440.984,350.784 442.696,350.784L446.52,350.784C449.824,350.784 451.944,349.704 451.944,346.96C451.944,345.4 451.144,341.976 449.592,340.544C447.6,338.744 445.208,338.432 443.456,338.432L437.832,338.432L437.672,337.392L444.448,337.392C450.112,337.392 455.648,341.536 455.648,346C455.648,349.072 453.016,352.016 447.8,352.016L434.88,352.016C434.128,352.016 433.688,352.016 433.688,351.256C433.688,350.784 434.048,350.784 434.848,350.784C435.36,350.784 436.08,350.744 436.56,350.704C437.2,350.624 437.432,350.504 437.432,350.064C437.432,349.904 437.4,349.784 437.272,349.312L431.936,327.912C431.536,326.352 431.456,326.032 428.312,326.032C427.632,326.032 427.192,326.032 427.192,325.28C427.192,324.8 427.672,324.8 427.792,324.8L437.992,324.8C438.272,324.8 438.792,324.8 438.792,325.6C438.792,326.032 438.432,326.032 437.672,326.032C436.2,326.032 435.08,326.032 435.08,326.752C435.08,326.992 435.168,327.192 435.2,327.432L437.672,337.392Z"/>
                                <path id="path29663" d="M460.544,321.488L460.544,337.192L460.536,337.216L460.536,337.296L460.528,337.312L460.528,337.36L460.52,337.384L460.52,337.416L460.504,337.456L460.488,337.52L460.44,337.592L460.4,337.632L460.376,337.648L460.344,337.664L460.32,337.672L460.288,337.68L460.248,337.696L460.208,337.696L460.192,337.704L460.168,337.704L460.144,337.712L460.048,337.712L460.024,337.72L459.712,337.72C457.92,335.968 455.384,335.936 454.24,335.936L454.24,334.936C454.912,334.936 456.752,334.936 458.28,335.712L458.28,321.488C458.28,320.568 458.28,320.2 455.496,320.2L454.432,320.2L454.432,319.2L464.392,319.2L464.392,320.2L463.336,320.2C460.544,320.2 460.544,320.568 460.544,321.488Z"/>
                            </g>
                        </g>
                    </g>
                </g>
            </g>
            <path id="path29734" d="M206.286,229.318L253.143,229.318" style="fill:none;stroke:black;stroke-width:0.8px;"/>
            <path id="path29736" d="M335.429,229.211L382,229.09" style="fill:none;stroke:black;stroke-width:0.8px;"/>
            <g id="g47803" transform="matrix(1,0,0,1,0,5.22016e-06)">
                <rect id="rect4136" x="124" y="199.604" width="82.286" height="59.429" style="fill:rgb(215,215,215);stroke:black;stroke-width:0.8px;"/>
                <g transform="matrix(1.06299,0,0,-1.06299,-251.35,585.17)">
                    <g id="g34329">
                        <g id="content">
                            <path id="path34332" d="M371.136,316.272L371.136,353.656L371.128,353.72L371.128,353.784L371.12,353.84L371.104,353.968L371.088,354.08L371.056,354.192L371.04,354.24L370.968,354.384L370.944,354.424L370.912,354.464L370.84,354.536L370.8,354.568L370.76,354.592L370.736,354.608L370.688,354.624L370.656,354.64L370.632,354.648L370.6,354.656L370.576,354.664L370.544,354.672L370.512,354.672L370.48,354.68L370.448,354.68L370.416,354.688L370.344,354.688C369.544,354.688 369.544,353.968 369.544,353.256L369.544,316.272C369.544,315.56 369.544,314.84 370.344,314.84C371.136,314.84 371.136,315.56 371.136,316.272Z"/>
                            <path id="path34334" d="M394.408,351.416L394.416,351.432L394.416,351.448L394.424,351.464L394.424,351.48L394.432,351.52L394.44,351.552L394.456,351.592L394.464,351.624L394.488,351.744L394.504,351.784L394.512,351.824L394.512,351.864L394.528,351.944L394.528,352.016C394.528,352.416 394.248,352.456 394.048,352.456C393.648,352.456 393.616,352.376 393.448,351.656L386.84,325.32C383.808,325.68 382.296,327.152 382.296,329.784C382.296,330.576 382.296,331.616 384.448,337.192C384.608,337.672 384.888,338.352 384.888,339.144C384.888,340.944 383.608,342.416 381.616,342.416C377.832,342.416 376.36,336.632 376.36,336.28C376.36,335.88 376.752,335.88 376.832,335.88C377.232,335.88 377.272,335.96 377.472,336.6C378.544,340.384 380.144,341.536 381.496,341.536C381.816,341.536 382.496,341.536 382.496,340.264C382.496,339.224 382.096,338.232 381.576,336.832C379.664,331.816 379.664,330.776 379.664,330.096C379.664,326.312 382.768,324.68 386.6,324.44C386.28,323.008 386.28,322.928 385.72,320.816C385.6,320.376 384.8,317.152 384.8,317.032C384.8,316.992 384.8,316.632 385.28,316.632C385.36,316.632 385.56,316.632 385.64,316.792C385.76,316.872 386,317.864 386.12,318.424L387.632,324.36C389.112,324.36 392.616,324.36 396.36,328.624C397.992,330.456 398.832,332.216 399.272,333.408C399.632,334.4 400.504,337.872 400.504,339.624C400.504,341.856 399.432,342.416 398.752,342.416C397.76,342.416 396.76,341.376 396.76,340.496C396.76,339.984 397,339.744 397.36,339.424C397.792,338.984 398.792,337.952 398.792,336.04C398.792,333.488 396.72,330.216 395.328,328.784C391.816,325.24 389.272,325.24 387.832,325.24L394.408,351.416Z"/>
                            <path id="path34336" d="M414.08,334.088L414.08,335.44L407.104,353.768C406.864,354.448 406.632,354.688 406.184,354.688C405.752,354.688 405.392,354.328 405.392,353.888C405.392,353.768 405.392,353.688 405.592,353.256L412.64,334.76L405.592,316.352C405.392,315.912 405.392,315.832 405.392,315.632C405.392,315.2 405.752,314.84 406.184,314.84C406.704,314.84 406.864,315.232 407.024,315.632L414.08,334.088Z"/>
                        </g>
                    </g>
                </g>
            </g>
            <g id="g47811" transform="matrix(1,0,0,1,0,5.22016e-06)">
                <rect id="rect4149" x="253.143" y="199.604" width="82.286" height="59.429" style="fill:rgb(215,215,215);stroke:black;stroke-width:0.8px;"/>
                <g transform="matrix(1.06299,0,0,-1.06299,-108.819,589.132)">
                    <g id="g43308">
                        <g id="g43310">
                            <path id="path43312" d="M388.041,348.355L388.121,348.659L388.169,348.803L388.209,348.947L388.265,349.091L388.313,349.227L388.369,349.363L388.433,349.491L388.505,349.619L388.577,349.739L388.737,349.979L388.833,350.091L388.929,350.195L389.033,350.299L389.145,350.403L389.273,350.491L389.401,350.587L389.537,350.667L389.689,350.747L389.849,350.827L390.017,350.899L390.193,350.963L390.385,351.027L390.585,351.075L390.801,351.131L391.025,351.171L391.265,351.211L391.513,351.243L391.777,351.267L392.057,351.291L392.345,351.307C392.545,351.307 393.025,351.347 393.025,352.099C393.025,352.139 393.025,352.539 392.505,352.539L384.297,352.539C384.057,352.539 383.577,352.539 383.577,351.747C383.577,351.307 383.977,351.307 384.297,351.307C386.569,351.267 387.009,350.427 387.009,349.555C387.009,349.435 386.929,348.835 386.889,348.715L383.297,334.491C381.945,329.147 377.361,325.683 373.377,325.683C370.665,325.683 368.513,327.435 368.513,330.867C368.513,330.939 368.513,332.219 368.953,333.971L372.817,349.475C373.177,350.907 373.257,351.307 376.169,351.307C377.201,351.307 377.521,351.307 377.521,352.099C377.521,352.539 377.081,352.539 376.969,352.539L366.721,352.539C366.401,352.539 365.969,352.539 365.969,351.747C365.969,351.307 366.321,351.307 367.081,351.307C367.161,351.307 367.921,351.307 368.593,351.227C369.313,351.147 369.673,351.107 369.673,350.587C369.673,350.347 369.233,348.675 368.993,347.755L368.121,344.251C367.761,342.699 365.849,335.163 365.689,334.411C365.409,333.291 365.409,332.691 365.409,332.099C365.409,327.235 369.033,324.443 373.217,324.443C378.241,324.443 383.177,328.947 384.497,334.211L388.041,348.355Z"/>
                        </g>
                    </g>
                </g>
            </g>
            <g id="g54474" transform="matrix(1,0,0,1,-0.0613895,-0.25)">
                <path id="path53595" d="M165.185,190.802L165.155,198.14" style="fill:none;stroke:black;stroke-width:0.8px;"/>
                <path id="path54470" d="M165.979,157.425L165.979,190.961" style="fill:none;stroke:black;stroke-width:0.8px;"/>
                <path id="path54472" d="M164.379,157.425L164.379,190.961" style="fill:none;stroke:black;stroke-width:0.8px;"/>
            </g>
            <g id="g54515" transform="matrix(1,0,0,1,129.081,0)">
                <path id="path54517" d="M165.185,190.802L165.155,198.14" style="fill:none;stroke:black;stroke-width:0.8px;"/>
                <path id="path54519" d="M165.979,157.425L165.979,190.961" style="fill:none;stroke:black;stroke-width:0.8px;"/>
                <path id="path54521" d="M164.379,157.425L164.379,190.961" style="fill:none;stroke:black;stroke-width:0.8px;"/>
            </g>
            <g id="g54577" transform="matrix(1,0,0,1,258.224,101.682)">
                <path id="path54579" d="M165.185,190.802L165.155,198.14" style="fill:none;stroke:black;stroke-width:0.8px;"/>
                <path id="path54581" d="M165.979,157.425L165.979,190.961" style="fill:none;stroke:black;stroke-width:0.8px;"/>
                <path id="path54583" d="M164.379,157.425L164.379,190.961" style="fill:none;stroke:black;stroke-width:0.8px;"/>
            </g>
            <g id="g56097" transform="matrix(1,0,0,1,0,2)">
                <g transform="matrix(1,0,0,1,102.447,81.5785)">
                    <g id="text54585">
                        <text x="0px" y="0px" style="font-family:'Gentium';font-size:20px;">Przygoto<tspan x="73.545px 87.373px 96.553px " y="0px 0px 0px ">wan</tspan>ie</text>
                    </g>
                </g>
                <g transform="matrix(1,0,0,1,259.65,81.473)">
                    <g id="text54589">
                        <text x="0px" y="0px" style="font-family:'Gentium';font-size:20px;">Ew<tspan x="23.75px 33.809px " y="0px 0px ">ol</tspan>ucja</text>
                    </g>
                </g>
                <g transform="matrix(1,0,0,1,394.848,81.5683)">
                    <g id="text54593">
                        <text x="0px" y="0px" style="font-family:'Gentium';font-size:20px;">Pomiar</text>
                    </g>
                </g>
            </g>
            <g transform="matrix(1,0,0,1,206.904,282.427)">
                <g id="text54597">
                    <text x="0px" y="0px" style="font-family:'Gentium';font-size:20px;">Urządzenie kw<tspan x="121.416px 130.596px " y="0px 0px ">an</tspan>to<tspan x="158.281px " y="0px ">w</tspan>e</text>
                </g>
            </g>
            <g id="text54601">
                <g transform="matrix(1,0,0,1,165.461,133.086)">
                    <text x="-34.66px" y="0px" style="font-family:'Gentium';font-size:16px;">par<tspan x="-12.66px -5.316px " y="0px 0px ">am</tspan>etry</text>
                </g>
                <g transform="matrix(1,0,0,1,165.461,153.086)">
                    <text x="-18.168px" y="0px" style="font-family:'Gentium';font-size:16px;">stanu</text>
                </g>
            </g>
            <g id="text54607" transform="matrix(1,0,0,1,0,1.36461)">
                <g transform="matrix(1,0,0,1,293.861,131.672)">
                    <text x="-34.66px" y="0px" style="font-family:'Gentium';font-size:16px;">par<tspan x="-12.66px -5.316px " y="0px 0px ">am</tspan>etry</text>
                </g>
                <g transform="matrix(1,0,0,1,293.861,151.672)">
                    <text x="-27.391px" y="0px" style="font-family:'Gentium';font-size:16px;">ew<tspan x="-8.937px -0.891px " y="0px 0px ">ol</tspan>ucji</text>
                </g>
            </g>
            <g id="text54613">
                <g transform="matrix(1,0,0,1,422.442,317.134)">
                    <text x="-20.176px" y="0px" style="font-family:'Gentium';font-size:16px;">wynik</text>
                </g>
                <g transform="matrix(1,0,0,1,422.442,337.134)">
                    <text x="-27.934px" y="0px" style="font-family:'Gentium';font-size:16px;">pomiaru</text>
                </g>
            </g>
            <g transform="matrix(1,0,0,1,231.894,364.28)">
                <g id="text54619">
                    <text x="0px" y="0px" style="font-family:'Gentium';font-size:20px;">Świat klasyczny</text>
                </g>
            </g>
        </g>
    </g>
</svg>
